<?xml version="1.0" standalone="no"?>
<!DOCTYPE svg PUBLIC "-//W3C//DTD SVG 1.1//EN" "http://www.w3.org/Graphics/SVG/1.1/DTD/svg11.dtd" >
<svg>
<metadata>
Created by FontForge 20120731 at Fri Oct  7 21:09:33 2016
 By ,,,
2015 published by Monotype GmbH
</metadata>
<defs>
<font id="RealTextOffc-Demibold" horiz-adv-x="600" >
  <font-face 
    font-family="Real Text Offc Demibold"
    font-weight="600"
    font-stretch="normal"
    units-per-em="1000"
    panose-1="2 11 7 4 2 1 1 1 1 2"
    ascent="800"
    descent="-200"
    x-height="531"
    cap-height="700"
    bbox="-480 -320 1421 995"
    underline-thickness="122"
    underline-position="4"
    unicode-range="U+0020-1F310"
  />
<missing-glyph 
d="M531 -165h-462v865h462v-865zM195 581v-627h209v627h-209z" />
    <glyph glyph-name=".notdef" 
d="M531 -165h-462v865h462v-865zM195 581v-627h209v627h-209z" />
    <glyph glyph-name=".null" horiz-adv-x="0" 
 />
    <glyph glyph-name="nonmarkingreturn" horiz-adv-x="238" 
 />
    <glyph glyph-name="space" unicode=" " horiz-adv-x="238" 
 />
    <glyph glyph-name="exclam" unicode="!" horiz-adv-x="279" 
d="M219 495l-22 -268h-117l-21 268v208h160v-208zM140 163q37 0 63.5 -26t26.5 -64q0 -18 -7 -34t-19.5 -28t-29 -19t-34.5 -7t-34.5 7t-29 19.5t-20 28.5t-7.5 34q0 37 27 63t64 26z" />
    <glyph glyph-name="quotedbl" unicode="&#x22;" horiz-adv-x="468" 
d="M191 397h-130v319h130v-319zM406 397h-130v319h130v-319z" />
    <glyph glyph-name="numbersign" unicode="#" 
d="M475 437l-26 -183h72v-93h-85l-23 -161h-110l23 161h-91l-23 -161h-109l23 161h-72v93h86l26 183h-73v94h87l24 169h109l-24 -169h91l24 169h109l-24 -169h71v-94h-85zM366 437h-91l-26 -183h91z" />
    <glyph glyph-name="dollar" unicode="$" 
d="M356 716q64 -11 111.5 -41t83.5 -76l-91 -73q-21 26 -48.5 47.5t-65.5 30.5v-193q55 -13 95 -30.5t66 -42t38.5 -57.5t12.5 -77q0 -47 -15 -85.5t-42 -66.5t-64 -45.5t-81 -22.5v-133h-91v133q-70 7 -125.5 36t-100.5 91l100 79q27 -45 59.5 -65t72.5 -29v209
q-104 27 -153.5 77t-49.5 132q0 88 53 141t144 62v117h91v-118zM271 607q-33 -7 -51 -31t-18 -57q0 -30 14 -51.5t55 -36.5v176zM346 95q41 8 59.5 34.5t18.5 62.5q0 29 -14.5 53t-63.5 41v-191z" />
    <glyph glyph-name="percent" unicode="%" horiz-adv-x="1029" 
d="M226 717q41 0 76.5 -14.5t62 -43.5t41.5 -72t15 -101q0 -60 -15 -104t-41.5 -72.5t-62 -42t-76.5 -13.5q-42 0 -77.5 13.5t-61.5 42t-41 72.5t-15 104q0 58 15 101t41 72t61.5 43.5t77.5 14.5zM350 -12h-109l433 724h109zM226 630q-45 0 -65.5 -36.5t-20.5 -105.5
q0 -74 20.5 -110.5t65.5 -36.5t65 36.5t20 108.5q0 70 -20 107t-65 37zM803 448q41 0 76.5 -14.5t62 -43.5t41.5 -72.5t15 -101.5q0 -60 -15 -104t-41.5 -72.5t-62 -42t-76.5 -13.5q-42 0 -77.5 13.5t-61.5 42t-41 72.5t-15 104q0 58 15 101.5t41 72.5t61.5 43.5t77.5 14.5z
M804 360q-45 0 -65.5 -36.5t-20.5 -106.5q0 -73 20.5 -109t65.5 -36t65 36t20 108q0 71 -20 107.5t-65 36.5z" />
    <glyph glyph-name="ampersand" unicode="&#x26;" horiz-adv-x="723" 
d="M303 -14q-50 0 -98.5 13t-87 40t-62.5 69.5t-24 101.5q0 63 35.5 110t100.5 80q-41 41 -62.5 74.5t-21.5 77.5q0 40 16.5 71t46 52t69 31.5t86.5 10.5q50 0 89 -12.5t65.5 -33.5t40.5 -49t14 -59q0 -26 -6.5 -49t-23 -44.5t-45.5 -43.5t-75 -45l157 -146q5 16 7.5 35
t4 38t1 37t-1.5 31h136q0 -38 -2.5 -69.5t-9 -58.5t-16.5 -51t-25 -48q29 -22 55.5 -31t49.5 -16l-41 -116q-48 10 -82.5 26t-68.5 46q-47 -37 -99 -54.5t-122 -17.5zM282 453q24 13 40.5 24t27.5 22.5t16 25t5 30.5q0 26 -20.5 42.5t-52.5 16.5q-34 0 -54.5 -16.5
t-20.5 -45.5q0 -13 2.5 -23.5t9.5 -22t18 -24t29 -29.5zM314 108q41 0 70.5 9t50.5 24l-190 183q-30 -21 -46 -46.5t-16 -60.5q0 -53 34.5 -81t96.5 -28z" />
    <glyph glyph-name="quotesingle" unicode="'" horiz-adv-x="252" 
d="M191 397h-130v319h130v-319z" />
    <glyph glyph-name="parenleft" unicode="(" horiz-adv-x="318" 
d="M297 780q-24 -61 -43 -115.5t-32 -110.5t-20 -117t-7 -134q0 -74 7 -134.5t20 -116t32 -110t43 -115.5h-114q-69 112 -106 233t-37 243t37 243.5t106 233.5h114z" />
    <glyph glyph-name="parenright" unicode=")" horiz-adv-x="318" 
d="M21.0186 780q23.998 -61 42.9971 -115.5t31.998 -110.5t19.999 -117q6.99902 -61 6.99902 -134q0 -74 -6.99902 -134.5q-7 -60.5 -19.999 -116t-31.998 -110t-42.9971 -115.5h113.992q68.9961 112 105.994 233q36.9971 121 36.9971 243t-36.9971 243.5
q-36.998 121.5 -105.994 233.5h-113.992z" />
    <glyph glyph-name="asterisk" unicode="*" horiz-adv-x="476" 
d="M283 570l131 62l40 -122l-143 -25l104 -104l-106 -76l-71 127l-68 -129l-107 74l102 108l-144 25l40 122l132 -62l-20 146h129z" />
    <glyph glyph-name="plus" unicode="+" 
d="M370 351h145v-118h-145v-154h-140v154h-145v118h145v154h140v-154z" />
    <glyph glyph-name="comma" unicode="," horiz-adv-x="301" 
d="M149 173q42 0 69 -27.5t27 -70.5q0 -66 -32.5 -130.5t-84.5 -118.5l-76 40q22 35 34 66.5t16 74.5q-23 14 -35 32.5t-12 47.5q0 35 26.5 60.5t67.5 25.5z" />
    <glyph glyph-name="hyphen" unicode="-" horiz-adv-x="376" 
d="M335 246h-294v123h294v-123z" />
    <glyph glyph-name="period" unicode="." horiz-adv-x="301" 
d="M151 173q19 0 36 -7.5t30 -20t20.5 -30t7.5 -36.5t-7.5 -36t-20.5 -29.5t-30 -20t-36 -7.5t-36.5 7.5t-30.5 20.5t-20.5 30t-7.5 36t7.5 36t20.5 29.5t30.5 20t36.5 7.5z" />
    <glyph glyph-name="slash" unicode="/" horiz-adv-x="542" 
d="M158 -164h-125l353 939h124z" />
    <glyph glyph-name="zero" unicode="0" 
d="M299 718q61 0 110 -23t83.5 -69t53 -115t18.5 -161q0 -185 -71 -276.5t-194 -91.5q-122 0 -192.5 91.5t-70.5 276.5q0 184 70.5 276t192.5 92zM299 601q-60 0 -87 -60.5t-27 -187.5t27 -190.5t87 -63.5q61 0 88.5 63.5t27.5 190.5t-27.5 187.5t-88.5 60.5z" />
    <glyph glyph-name="one" unicode="1" 
d="M102 117h161v354h-162v99h21q47 0 77.5 9.5t49.5 26.5t28.5 41t14.5 53h117v-583h132v-117h-439v117z" />
    <glyph glyph-name="two" unicode="2" 
d="M302 715q55 0 99 -15.5t74.5 -43.5t47 -66.5t16.5 -84.5q0 -110 -73.5 -203t-218.5 -185h302v-117h-499v114q89 67 152 120t103 98t58.5 85.5t18.5 82.5q0 48 -22 73.5t-64 25.5q-45 0 -69.5 -32t-24.5 -97h-150q0 50 15.5 94.5t46.5 78t78 53t110 19.5z" />
    <glyph glyph-name="three" unicode="3" 
d="M301 717q58 0 102.5 -14.5t74.5 -39.5t45.5 -59.5t15.5 -74.5q0 -65 -35.5 -104.5t-92.5 -52.5q30 -4 57 -16.5t47.5 -33.5t32.5 -51t12 -68q0 -51 -19 -92t-53.5 -69.5t-83 -44t-107.5 -15.5q-106 0 -175 51t-91 145l137 32q13 -51 44.5 -80.5t83.5 -29.5q47 0 79 26.5
t32 82.5q0 51 -30 77t-79 26h-74v108h62q18 0 36.5 4t33 14.5t24 29t9.5 47.5q0 46 -27.5 66.5t-64.5 20.5q-42 0 -72.5 -23.5t-42.5 -73.5l-138 23q8 41 30 75.5t55 60t76.5 39.5t95.5 14z" />
    <glyph glyph-name="four" unicode="4" 
d="M491 250h89v-118h-89v-132h-143v132h-326v122l280 446h189v-450zM164 250h184v303z" />
    <glyph glyph-name="five" unicode="5" 
d="M508 583h-285l-20 -152q32 30 68.5 42t75.5 12q42 0 81 -16t69.5 -46.5t48.5 -74t18 -97.5q0 -58 -18 -107.5t-53.5 -85.5t-86.5 -56.5t-117 -20.5q-54 0 -97 14.5t-75.5 38.5t-54 55t-32.5 63l134 39q12 -44 45.5 -68.5t81.5 -24.5q30 0 52.5 11t37.5 30.5t22.5 45
t7.5 55.5q0 60 -31 92.5t-85 32.5q-73 0 -113 -62l-128 19l50 378h422z" />
    <glyph glyph-name="six" unicode="6" 
d="M325 717q81 0 138 -36.5t86 -107.5l-127 -42q-13 32 -38 52t-60 20q-124 0 -139 -224q31 47 75.5 67t90.5 20q42 0 81 -15t69 -44.5t48 -72.5t18 -99q0 -60 -19.5 -106.5t-54 -79t-81 -49.5t-101.5 -17q-56 0 -105 18t-86 57.5t-58.5 103t-21.5 155.5q0 97 20 171.5
t57.5 125.5t90 77t117.5 26zM313 351q-47 0 -78.5 -33.5t-31.5 -92.5q0 -29 8.5 -52t23 -40t33.5 -26t41 -9q45 0 75 34t30 95q0 56 -25.5 90t-75.5 34z" />
    <glyph glyph-name="seven" unicode="7" 
d="M551 582q-52 -68 -90.5 -131.5t-66 -132t-45 -146t-28.5 -172.5h-158q13 109 36 193.5t54.5 152.5t71.5 124.5t86 110.5h-232v-81h-126v200h498v-118z" />
    <glyph glyph-name="eight" unicode="8" 
d="M298 717q60 0 105 -16.5t75 -43.5t45 -60.5t15 -67.5q0 -56 -28.5 -90t-70.5 -54q27 -12 51.5 -28.5t42.5 -39.5t28.5 -52.5t10.5 -67.5q0 -36 -13.5 -74t-45.5 -69t-84.5 -51t-130.5 -20q-74 0 -125.5 19t-83.5 49t-46.5 67.5t-14.5 75.5q0 67 32 110t87 66
q-45 31 -63.5 70t-18.5 87q0 34 13.5 68t42 61t72.5 44t105 17zM298 605q-40 0 -63.5 -22.5t-23.5 -60.5q0 -39 20.5 -60.5t70.5 -32.5l32 -7q31 24 43.5 49.5t12.5 50.5q0 32 -23 57.5t-69 25.5zM250 322q-30 -19 -50 -45.5t-20 -71.5q0 -48 31.5 -77.5t86.5 -29.5
q33 0 56.5 9.5t37.5 24.5t20.5 33.5t6.5 37.5q0 27 -9.5 45t-26 30t-40 20t-50.5 14z" />
    <glyph glyph-name="nine" unicode="9" 
d="M299 717q57 0 105.5 -18t84.5 -58t56.5 -103.5t20.5 -154.5q0 -200 -72.5 -300.5t-211.5 -100.5q-87 0 -146 38.5t-89 102.5l126 50q18 -37 44 -56.5t67 -19.5q65 0 96 56.5t35 160.5q-29 -42 -69 -60t-90 -18q-42 0 -81 15.5t-68.5 45t-47.5 73.5t-18 101q0 58 20 103.5
t55 77t82 48.5t101 17zM302 602q-47 0 -77.5 -32.5t-30.5 -94.5q0 -53 26 -88t78 -35q48 0 77 33.5t29 90.5q0 63 -27.5 94.5t-74.5 31.5z" />
    <glyph glyph-name="colon" unicode=":" horiz-adv-x="301" 
d="M151 527q19 0 36 -7.5t30 -20t20.5 -30t7.5 -36.5t-7.5 -36t-20.5 -29.5t-30 -20t-36 -7.5t-36.5 7.5t-30.5 20.5t-20.5 30t-7.5 36t7.5 36t20.5 29.5t30.5 20t36.5 7.5zM151 173q19 0 36 -7.5t30 -20t20.5 -30t7.5 -36.5t-7.5 -36t-20.5 -29.5t-30 -20t-36 -7.5
t-36.5 7.5t-30.5 20.5t-20.5 30t-7.5 36t7.5 36t20.5 29.5t30.5 20t36.5 7.5z" />
    <glyph glyph-name="semicolon" unicode=";" horiz-adv-x="301" 
d="M149 173q42 0 69 -27.5t27 -70.5q0 -66 -32.5 -130.5t-84.5 -118.5l-76 40q22 35 34 66.5t16 74.5q-23 14 -35 32.5t-12 47.5q0 35 26.5 60.5t67.5 25.5zM150 527q19 0 36 -7.5t30 -20t20.5 -30t7.5 -36.5t-7.5 -36t-20.5 -29.5t-30 -20t-36 -7.5t-36.5 7.5t-30.5 20.5
t-20.5 30t-7.5 36t7.5 36t20.5 29.5t30.5 20t36.5 7.5z" />
    <glyph glyph-name="less" unicode="&#x3c;" 
d="M496 396l-295 -107l295 -108v-143l-392 171v159l392 171v-143z" />
    <glyph glyph-name="equal" unicode="=" 
d="M515 352h-430v123h430v-123zM515 130h-430v123h430v-123z" />
    <glyph glyph-name="greater" unicode="&#x3e;" 
d="M496 368v-159l-392 -171v143l294 108l-294 107v143z" />
    <glyph glyph-name="question" unicode="?" horiz-adv-x="534" 
d="M273 714q61 0 106 -16.5t74 -43.5t43.5 -61t14.5 -69q0 -46 -14 -76.5t-35.5 -52t-46 -36.5t-46 -30t-35.5 -33t-14 -44v-25h-133v41q0 36 12.5 62t31 45.5t40 35t40 31t31 33t12.5 41.5q0 38 -23.5 58t-62.5 20q-49 0 -76 -27t-42 -67l-132 36q9 31 28.5 63t51 57.5
t75 41.5t100.5 16zM257 163q37 0 63.5 -26t26.5 -64q0 -18 -7 -34t-19.5 -28t-29 -19t-34.5 -7t-34.5 7t-29 19.5t-20 28.5t-7.5 34q0 37 27 63t64 26z" />
    <glyph glyph-name="at" unicode="@" horiz-adv-x="1051" 
d="M554 717q100 0 179.5 -29.5t134.5 -80.5t84.5 -121t29.5 -151q0 -50 -12 -105t-39 -101.5t-71.5 -77t-109.5 -30.5q-33 0 -55.5 8.5t-36.5 22.5t-21.5 31t-9.5 34q-24 -45 -69 -70t-102 -25q-41 0 -75 15t-58 42t-37.5 65t-13.5 83q0 65 20.5 119t55.5 92.5t80.5 59.5
t95.5 21q42 0 76 -17t51 -50l7 41h104l-52 -310q-6 -35 6 -52.5t38 -17.5q27 0 48 18.5t35.5 50t22 72.5t7.5 87q0 61 -21 113.5t-61.5 90.5t-99 60t-133.5 22q-84 0 -152 -28t-117 -78.5t-75.5 -119.5t-26.5 -150q0 -75 23.5 -137.5t65.5 -108.5t101.5 -71.5t131.5 -25.5
q59 0 105.5 7.5t95.5 24.5l31 -89q-29 -10 -56 -17t-54.5 -12t-57 -7.5t-63.5 -2.5q-99 0 -179.5 32.5t-138 90.5t-89 138t-31.5 176q0 103 35.5 189t100 148t154.5 96.5t198 34.5zM536 414q-34 0 -58.5 -16.5t-40.5 -43.5t-24 -62t-8 -71q0 -45 19.5 -70t59.5 -25
q23 0 46 11t41.5 35t30 60.5t11.5 87.5q0 49 -20.5 71.5t-56.5 22.5z" />
    <glyph glyph-name="A" unicode="A" horiz-adv-x="648" 
d="M453 110h-264l-32 -110h-156l227 700h192l227 -700h-162zM223 232h196l-98 351z" />
    <glyph glyph-name="B" unicode="B" horiz-adv-x="663" 
d="M483 378q81 -16 119.5 -60.5t38.5 -115.5q0 -44 -15.5 -81t-49.5 -64t-87 -42t-128 -15h-290v700h251q76 0 129.5 -12t87.5 -35.5t49 -56.5t15 -75q0 -61 -32.5 -95t-87.5 -48zM223 579v-160h126q41 0 69.5 19t28.5 63q0 45 -29.5 61.5t-84.5 16.5h-110zM367 121
q50 0 82.5 22t32.5 70q0 31 -10.5 50t-27.5 29.5t-38 14.5t-41 4h-142v-190h144z" />
    <glyph glyph-name="C" unicode="C" horiz-adv-x="734" 
d="M379 717q47 0 92.5 -10.5t86 -34.5t73.5 -63t55 -96l-148 -39q-23 57 -60.5 86t-98.5 29q-84 0 -132.5 -61.5t-48.5 -175.5q0 -113 46 -177t137 -64q69 0 110 33.5t64 97.5l145 -45q-42 -108 -128 -161t-198 -53q-60 0 -119.5 20t-107 63.5t-77 113.5t-29.5 171
q0 97 28.5 166.5t75.5 114t108 65t126 20.5z" />
    <glyph glyph-name="D" unicode="D" horiz-adv-x="709" 
d="M299 700q73 0 140 -18.5t118 -59t81.5 -105.5t30.5 -157q0 -103 -30 -172t-78.5 -111t-109.5 -59.5t-122 -17.5h-258v700h228zM224 575v-450h105q33 0 66 9.5t59 35.5t42.5 71.5t16.5 117.5q0 49 -11.5 88.5t-36.5 68t-65 44t-96 15.5h-80z" />
    <glyph glyph-name="E" unicode="E" horiz-adv-x="590" 
d="M538 574h-315v-156h294v-122h-294v-170h324v-126h-476v700h467v-126z" />
    <glyph glyph-name="F" unicode="F" horiz-adv-x="559" 
d="M527 574h-304v-174h281v-123h-281v-277h-152v700h456v-126z" />
    <glyph glyph-name="G" unicode="G" horiz-adv-x="743" 
d="M379 717q49 0 94.5 -10.5t84.5 -33.5t71 -58.5t54 -84.5l-138 -50q-23 55 -63 83.5t-103 28.5q-90 0 -135.5 -64t-45.5 -179t44.5 -178t137.5 -63q70 0 114.5 36t44.5 102v26h-150v113h303v-385h-139v63q-71 -80 -197 -80q-57 0 -113.5 19.5t-101 62.5t-72.5 112.5
t-28 170.5q0 97 28 167t74.5 115t108 66t127.5 21z" />
    <glyph glyph-name="H" unicode="H" horiz-adv-x="724" 
d="M654 0h-152v300h-279v-300h-152v700h152v-274h279v274h152v-700z" />
    <glyph glyph-name="I" unicode="I" horiz-adv-x="399" 
d="M363 579h-88v-458h88v-121h-329v121h88v458h-88v121h329v-121z" />
    <glyph glyph-name="J" unicode="J" horiz-adv-x="410" 
d="M350 224q0 -52 -11 -94.5t-37.5 -72.5t-70 -46.5t-109.5 -16.5q-28 0 -51.5 1.5t-49.5 4.5v128q14 -1 27.5 -1.5t27.5 -0.5q36 0 59.5 5.5t37 18t19 33.5t5.5 52v465h153v-476z" />
    <glyph glyph-name="K" unicode="K" horiz-adv-x="684" 
d="M311 307l-88 -98v-209h-152v700h152v-308l261 308h180l-249 -285l273 -415h-180z" />
    <glyph glyph-name="L" unicode="L" horiz-adv-x="544" 
d="M223 131h303v-131h-455v700h152v-569z" />
    <glyph glyph-name="M" unicode="M" horiz-adv-x="864" 
d="M818 0h-146l-34 553l-124 -553h-166l-124 553l-33 -553h-145l51 700h226l110 -527l108 527h226z" />
    <glyph glyph-name="N" unicode="N" horiz-adv-x="719" 
d="M649 0h-176l-264 466v-466h-138v700h176l264 -477v477h138v-700z" />
    <glyph glyph-name="O" unicode="O" horiz-adv-x="776" 
d="M388 717q61 0 123.5 -18.5t112 -62t81 -114t31.5 -173.5q0 -96 -29 -165t-77.5 -113.5t-111.5 -66t-130 -21.5q-61 0 -122.5 19.5t-111.5 63t-81.5 113.5t-31.5 172q0 97 29 166.5t77.5 114t111 65t129.5 20.5zM388 590q-42 0 -77 -16t-60 -46.5t-39 -74.5t-14 -101
q0 -113 48 -177.5t142 -64.5q41 0 76 15.5t60.5 46t39.5 75t14 101.5q0 111 -48 176.5t-142 65.5z" />
    <glyph glyph-name="P" unicode="P" horiz-adv-x="645" 
d="M336 700q74 0 127 -17.5t87.5 -49t50.5 -74t16 -92.5q0 -110 -69 -173t-210 -63h-115v-231h-152v700h265zM344 354q24 0 45 5.5t37 19t25 35t9 54.5q0 49 -29 77.5t-83 28.5h-125v-220h121z" />
    <glyph glyph-name="Q" unicode="Q" horiz-adv-x="780" 
d="M388 717q61 0 123.5 -18.5t112 -62t81 -114t31.5 -173.5q0 -97 -33 -168t-93 -119q29 -21 63.5 -32.5t82.5 -18.5l-52 -143q-72 20 -120.5 55t-82.5 80q-53 -20 -113 -20q-61 0 -122.5 19.5t-111.5 63t-81.5 113.5t-31.5 172q0 97 29 166.5t77.5 114t111 65t129.5 20.5z
M388 589q-85 0 -137.5 -61.5t-52.5 -175.5q0 -113 48 -177t142 -64q41 0 76 15.5t60.5 45.5t39.5 74.5t14 101.5q0 111 -48 176t-142 65z" />
    <glyph glyph-name="R" unicode="R" horiz-adv-x="657" 
d="M337 700q73 0 125.5 -17t86 -46t49.5 -69t16 -85q0 -142 -144 -194l183 -289h-179l-154 265h-97v-265h-152v700h266zM223 576v-193h120q24 0 45 5t36 16t24 30t9 48q0 48 -28.5 71t-81.5 23h-124z" />
    <glyph glyph-name="S" unicode="S" horiz-adv-x="658" 
d="M332 -17q-96 0 -177 32.5t-137 97.5l99 91q43 -44 94.5 -69t123.5 -25q60 0 98.5 21.5t38.5 62.5q0 19 -6.5 34.5t-25 27.5t-53 22t-89.5 20q-124 22 -184.5 71.5t-60.5 142.5q0 47 19.5 85t55.5 64.5t86.5 41t111.5 14.5q52 0 95.5 -9.5t80 -26t66 -39.5t52.5 -49
l-104 -84q-14 15 -31 29.5t-40 26.5t-52 19t-66 7q-57 0 -87.5 -20t-30.5 -56q0 -17 6.5 -30.5t24.5 -24t51 -20t86 -18.5q66 -11 114 -29t78.5 -44t45.5 -62t15 -83q0 -52 -20.5 -93t-59.5 -69.5t-94 -43.5t-124 -15z" />
    <glyph glyph-name="T" unicode="T" horiz-adv-x="580" 
d="M565 573h-198v-573h-152v573h-198v127h548v-127z" />
    <glyph glyph-name="U" unicode="U" horiz-adv-x="698" 
d="M638 258q0 -56 -16 -106t-51 -87.5t-90 -59.5t-132 -22q-79 0 -133.5 22.5t-88.5 60t-49.5 87.5t-15.5 105v442h152v-440q0 -79 33 -114.5t103 -35.5q69 0 102 37t33 113v440h153v-442z" />
    <glyph glyph-name="V" unicode="V" horiz-adv-x="612" 
d="M404 0h-192l-211 700h162l146 -576l144 576h159z" />
    <glyph glyph-name="W" unicode="W" horiz-adv-x="863" 
d="M713 0h-173l-102 528l-93 -528h-179l-160 700h162l92 -550l99 550h161l103 -546l81 546h154z" />
    <glyph glyph-name="X" unicode="X" horiz-adv-x="647" 
d="M647 0h-181l-147 272l-142 -272h-176l226 374l-202 326h174l121 -221l118 221h169l-196 -318z" />
    <glyph glyph-name="Y" unicode="Y" horiz-adv-x="620" 
d="M384 278v-278h-152v276l-240 424h173l145 -299l147 299h167z" />
    <glyph glyph-name="Z" unicode="Z" horiz-adv-x="608" 
d="M565 580l-352 -454h363v-126h-555v117l357 460h-333v123h520v-120z" />
    <glyph glyph-name="bracketleft" unicode="[" horiz-adv-x="323" 
d="M292 673h-105v-728h105v-118h-251v963h251v-117z" />
    <glyph glyph-name="backslash" unicode="\" horiz-adv-x="542" 
d="M510 -164h-125l-352 939h124z" />
    <glyph glyph-name="bracketright" unicode="]" horiz-adv-x="323" 
d="M31.0176 673h104.994v-728h-104.994v-118h250.985v963h-250.985v-117z" />
    <glyph glyph-name="asciicircum" unicode="^" horiz-adv-x="627" 
d="M708 328h-148l-114 264l-113 -264h-142l186 389h145z" />
    <glyph glyph-name="underscore" unicode="_" horiz-adv-x="578" 
d="M581 -179h-585v122h585v-122z" />
    <glyph glyph-name="grave" unicode="`" horiz-adv-x="338" 
d="M302 593h-111l-164 151h178z" />
    <glyph glyph-name="a" unicode="a" horiz-adv-x="568" 
d="M286 545q121 0 172.5 -44.5t51.5 -123.5v-261q0 -32 3 -60t15 -56h-145q-12 25 -17 54q-29 -37 -69.5 -52t-85.5 -15q-42 0 -75.5 12t-56 34t-34.5 51.5t-12 64.5q0 75 50 120.5t170 60.5l111 14v23q0 42 -16.5 58.5t-64.5 16.5q-45 0 -64.5 -16t-20.5 -54h-144
q2 87 63.5 130t168.5 43zM289 241q-58 -8 -82.5 -26t-24.5 -52q0 -28 17 -45.5t54 -17.5q22 0 42.5 7.5t35.5 20.5t24 31t9 40v52z" />
    <glyph glyph-name="b" unicode="b" horiz-adv-x="626" 
d="M210 479q29 35 66.5 50t78.5 15q53 0 97 -20.5t75 -57t48 -88t17 -114.5q0 -60 -17.5 -111t-48.5 -88t-74 -58t-94 -21q-53 0 -90.5 17.5t-61.5 49.5v-53h-142v700h146v-221zM318 428q-54 0 -85.5 -40t-31.5 -124q0 -83 33.5 -122.5t84.5 -39.5q55 0 87 42t32 120
q0 81 -30.5 122.5t-89.5 41.5z" />
    <glyph glyph-name="c" unicode="c" horiz-adv-x="573" 
d="M306 544q90 0 150.5 -38.5t92.5 -105.5l-127 -50q-14 38 -41.5 58t-66.5 20q-57 0 -91 -40t-34 -121t33.5 -123t91.5 -42q25 0 43.5 7t32 19.5t23 29t16.5 34.5l126 -50q-32 -69 -93.5 -112.5t-155.5 -43.5q-63 0 -113.5 21t-85 58t-53 88t-18.5 112t19 112.5t54 88.5
t85 57.5t112 20.5z" />
    <glyph glyph-name="d" unicode="d" horiz-adv-x="626" 
d="M564 0h-142v58q-29 -38 -70 -55t-84 -17q-53 0 -96 20.5t-73 57.5t-46.5 88.5t-16.5 112.5q0 63 18 114t50 88t75 57t94 20q48 0 83.5 -15.5t61.5 -43.5v215h146v-700zM309 429q-57 0 -88.5 -42t-31.5 -121q0 -81 31 -122t89 -41q54 0 85.5 39.5t32.5 123.5
q0 83 -33.5 123t-84.5 40z" />
    <glyph glyph-name="e" unicode="e" horiz-adv-x="589" 
d="M298 544q61 0 109 -20.5t81 -58t50.5 -90.5t17.5 -117v-28h-370q4 -66 38 -98t91 -32q45 0 74 19.5t46 49.5l117 -57q-38 -60 -99 -93t-147 -33q-64 0 -114 21t-84.5 58t-53 88.5t-18.5 111.5q0 61 17.5 112.5t50.5 88.5t82 57.5t112 20.5zM298 438q-48 0 -77.5 -28
t-34.5 -87h220q-4 60 -32 87.5t-76 27.5z" />
    <glyph glyph-name="f" unicode="f" horiz-adv-x="365" 
d="M263 714q34 0 65 -5.5t56 -13.5v-106q-19 6 -44 11t-48 5q-32 0 -46.5 -10.5t-14.5 -40.5v-32h131v-104h-131v-418h-146v418h-72v104h72v42q0 33 10 60.5t31.5 47.5t55.5 31t81 11z" />
    <glyph glyph-name="g" unicode="g" horiz-adv-x="586" 
d="M569 460q-27 0 -43 -2t-32 -8q14 -19 19.5 -40.5t5.5 -44.5q0 -37 -15 -68.5t-44 -54.5t-72 -36t-100 -13q-29 0 -54.5 4t-48.5 12q-6 -7 -10 -15t-4 -16q0 -20 14 -30t53 -10h92q58 0 100.5 -12t70.5 -33t41 -50t13 -63q0 -78 -68 -123t-203 -45q-73 0 -122 10.5t-79 29
t-42.5 44t-12.5 54.5q0 68 76 105q-27 17 -39 39.5t-12 49.5q0 26 16 51t46 45q-33 22 -52 54.5t-19 72.5q0 37 14.5 69t44 56t73.5 38t103 14q44 0 78.5 -8t62.5 -21q25 30 61.5 47t87.5 17v-119zM283 448q-46 0 -70 -21.5t-24 -56.5t23.5 -55.5t69.5 -20.5t70.5 20.5
t24.5 55.5q0 36 -23.5 57t-70.5 21zM186 26q-20 -13 -27 -25.5t-7 -28.5q0 -14 6 -25t20.5 -19t39 -12t62.5 -4q67 0 96.5 16t29.5 44q0 29 -23 41.5t-82 12.5h-115z" />
    <glyph glyph-name="h" unicode="h" horiz-adv-x="604" 
d="M210 466q61 79 156 79q87 0 133.5 -52.5t46.5 -148.5v-344h-146v305q0 56 -17 86.5t-65 30.5t-78 -35.5t-30 -94.5v-292h-146v700h146v-234z" />
    <glyph glyph-name="i" unicode="i" horiz-adv-x="273" 
d="M210 0h-146v531h146v-531zM135 749q18 0 33.5 -6.5t27.5 -17.5t19 -26t7 -33q0 -17 -7 -32t-19 -26t-27.5 -17.5t-33.5 -6.5q-35 0 -60.5 23.5t-25.5 58.5q0 18 7 33t19 26t27.5 17.5t32.5 6.5z" />
    <glyph glyph-name="j" unicode="j" horiz-adv-x="273" 
d="M210 -13q0 -47 -14 -80.5t-37.5 -54.5t-53.5 -30.5t-63 -9.5q-24 0 -41 1.5t-33 5.5v107q8 -1 12 -1h8q21 0 35.5 4t23.5 15t13 30.5t4 50.5v506h146v-544zM135 749q18 0 33.5 -6.5t27.5 -17.5t19 -26t7 -33q0 -17 -7 -32t-19 -26t-27.5 -17.5t-33.5 -6.5
q-35 0 -60.5 23.5t-25.5 58.5q0 18 7 33t19 26t27.5 17.5t32.5 6.5z" />
    <glyph glyph-name="k" unicode="k" horiz-adv-x="589" 
d="M210 325l202 206h170l-204 -202l211 -329h-169l-141 230l-69 -68v-162h-146v700h146v-375z" />
    <glyph glyph-name="l" unicode="l" horiz-adv-x="293" 
d="M204 164q0 -17 1 -28t5.5 -17.5t13.5 -9t25 -2.5h9q4 0 12 1v-107q-30 -8 -75 -8q-66 0 -101.5 36t-35.5 114v557h146v-536z" />
    <glyph glyph-name="m" unicode="m" horiz-adv-x="896" 
d="M669 545q85 0 127.5 -53t42.5 -150v-342h-146v289q0 69 -14.5 101t-59.5 32q-42 0 -68.5 -34t-26.5 -91v-297h-146v289q0 69 -13.5 101t-59.5 32q-42 0 -68.5 -34t-26.5 -91v-297h-146v531h142v-62q29 40 65 58t84 18q54 0 91 -22.5t55 -64.5q31 46 74 66.5t94 20.5z" />
    <glyph glyph-name="n" unicode="n" horiz-adv-x="604" 
d="M368 545q86 0 132 -52.5t46 -148.5v-344h-146v300q0 60 -17 91t-65 31t-78 -35.5t-30 -94.5v-292h-146v531h142v-70q29 45 70.5 64.5t91.5 19.5z" />
    <glyph glyph-name="o" unicode="o" horiz-adv-x="626" 
d="M313 544q64 0 115.5 -21.5t87.5 -59t55.5 -88.5t19.5 -110q0 -62 -19 -113.5t-55 -88.5t-87.5 -57t-116.5 -20t-116.5 21t-87 58t-54.5 88t-19 112t19 112.5t55 88.5t87 57.5t116 20.5zM313 428q-57 0 -90.5 -40t-33.5 -121t32.5 -123t91.5 -42t91.5 42t32.5 123
t-33.5 121t-90.5 40z" />
    <glyph glyph-name="p" unicode="p" horiz-adv-x="625" 
d="M356 544q52 0 95.5 -20.5t74 -57.5t47.5 -87.5t17 -111.5t-17 -112.5t-47.5 -89t-74 -58.5t-97.5 -21q-47 0 -83.5 16.5t-61.5 45.5v-215h-145v698h141v-56q29 38 68 53.5t83 15.5zM318 428q-54 0 -85.5 -40t-31.5 -122q0 -85 33 -124.5t84 -39.5q54 0 86.5 42.5
t33.5 123.5q0 77 -31 118.5t-89 41.5z" />
    <glyph glyph-name="q" unicode="q" horiz-adv-x="626" 
d="M273 545q51 0 87.5 -17.5t61.5 -47.5v51h142v-698h-146v218q-29 -35 -67.5 -49.5t-78.5 -14.5q-54 0 -97.5 20.5t-74 57.5t-47.5 88t-17 112q0 63 17.5 114.5t48.5 88t74.5 57t96.5 20.5zM309 429q-57 0 -88.5 -42t-31.5 -121q0 -81 31.5 -122t88.5 -41q54 0 86 40
t32 123t-33.5 123t-84.5 40z" />
    <glyph glyph-name="r" unicode="r" horiz-adv-x="402" 
d="M348 545q22 0 40 -3v-142q-14 1 -21 1h-11q-31 0 -57.5 -8t-46 -28t-31 -55.5t-11.5 -89.5v-220h-146v531h142v-86q27 54 63.5 77t78.5 23z" />
    <glyph glyph-name="s" unicode="s" horiz-adv-x="538" 
d="M276 544q75 0 131 -22.5t94 -57.5l-75 -82q-33 27 -68.5 41t-76.5 14q-44 0 -64.5 -13.5t-20.5 -35.5q0 -12 5 -21t19 -16t38.5 -13t64.5 -13q96 -17 143 -56t47 -113q0 -38 -16 -69t-47 -53.5t-76 -35t-103 -12.5q-88 0 -149 24.5t-106 66.5l75 86q38 -35 80 -51t87 -16
q53 0 77.5 14t24.5 39q0 12 -4 21.5t-17.5 17.5t-38.5 14.5t-68 14.5q-95 17 -140.5 55.5t-45.5 107.5q0 39 17.5 69.5t48.5 51.5t73 32t91 11z" />
    <glyph glyph-name="t" unicode="t" horiz-adv-x="388" 
d="M231 522h128v-104h-128v-249q0 -33 13 -49t49 -16q21 0 39.5 3t36.5 8v-111q-24 -8 -53 -13t-62 -5q-47 0 -79.5 11t-52.5 32t-28.5 51t-8.5 67v271h-72v104h72v138h146v-138z" />
    <glyph glyph-name="u" unicode="u" horiz-adv-x="598" 
d="M535 0h-141v63q-60 -77 -158 -77q-38 0 -70.5 11t-56 34t-37 57.5t-13.5 82.5v360h146v-326q0 -51 18.5 -72t59.5 -21q48 0 77 32.5t29 87.5v299h146v-531z" />
    <glyph glyph-name="v" unicode="v" horiz-adv-x="528" 
d="M354 0h-179l-174 531h162l102 -411l107 411h156z" />
    <glyph glyph-name="w" unicode="w" horiz-adv-x="793" 
d="M648 0h-170l-80 387l-85 -387h-169l-138 531h157l71 -391l82 391h162l86 -391l74 391h150z" />
    <glyph glyph-name="x" unicode="x" horiz-adv-x="538" 
d="M360 290l182 -290h-173l-103 197l-102 -197h-168l180 285l-160 246h173l81 -156l83 156h164z" />
    <glyph glyph-name="y" unicode="y" horiz-adv-x="526" 
d="M361 -19q-12 -38 -27 -69.5t-39 -53.5t-58.5 -34t-85.5 -12q-23 0 -41.5 2t-32.5 5v102q18 -2 27 -2h20q28 0 46 4t29 13t18 24.5t12 39.5h-56l-174 531h163l107 -428l99 428h157z" />
    <glyph glyph-name="z" unicode="z" horiz-adv-x="485" 
d="M450 419l-255 -300h263v-119h-442v109l258 305h-232v117h408v-112z" />
    <glyph glyph-name="braceleft" unicode="{" horiz-adv-x="331" 
d="M313 677h-16q-20 0 -32.5 -5t-19 -14t-8.5 -22t-2 -28v-181q0 -31 -9.5 -52.5t-24 -35.5t-31 -21t-26.5 -9q10 -3 26 -9q17 -7 31.5 -21.5t24 -36t9.5 -52.5v-179q0 -15 2 -28t8.5 -22t19 -14t32.5 -5h16v-113h-56q-82 0 -125.5 43t-43.5 109v190q0 25 -3.5 41.5
t-10.5 27t-18.5 16.5t-27.5 9v88q16 3 27.5 9t18.5 16.5t10.5 26.5t3.5 41v192q0 66 43.5 109t125.5 43h56v-113z" />
    <glyph glyph-name="bar" unicode="|" horiz-adv-x="316" 
d="M214 -165h-112v939h112v-939z" />
    <glyph glyph-name="braceright" unicode="}" horiz-adv-x="331" 
d="M18.0195 677h15.999q19.998 0 32.498 -5q12.499 -5 18.998 -14q6.5 -9 8.5 -22t2 -28v-181q0 -31 9.49902 -52.5q9.5 -21.5 23.999 -35.5t30.998 -21t26.498 -9q-9.99902 -3 -25.998 -9q-16.999 -7 -31.498 -21.5t-23.999 -36q-9.49902 -21.5 -9.49902 -52.5v-179
q0 -15 -2 -28t-8.5 -22q-6.49902 -9 -18.998 -14q-12.5 -5 -32.498 -5h-15.999v-113h55.9961q81.9951 0 125.492 43q43.498 43 43.498 109v190q0 25 3.49902 41.5q3.5 16.5 10.5 27q6.99902 10.5 18.498 16.5q11.5 6 27.499 9v88q-15.999 3 -27.499 9
q-11.499 6 -18.498 16.5q-7 10.5 -10.5 26.5q-3.49902 16 -3.49902 41v192q0 66 -43.498 109q-43.4971 43 -125.492 43h-55.9961v-113z" />
    <glyph glyph-name="asciitilde" unicode="~" 
d="M215 398q33 0 58.5 -9t45.5 -20t37.5 -20t34.5 -9q29 0 48.5 17t32.5 39l75 -65q-11 -20 -26 -39t-35 -34t-45.5 -24t-55.5 -9q-32 0 -57 9t-46 20t-38.5 20t-34.5 9q-29 0 -48.5 -17t-32.5 -40l-75 65q11 20 26 39t34.5 34t44.5 24.5t57 9.5z" />
    <glyph glyph-name="uni00A0" unicode="&#xa0;" horiz-adv-x="238" 
 />
    <glyph glyph-name="exclamdown" unicode="&#xa1;" horiz-adv-x="279" 
d="M139 543q18 0 34 -7t28.5 -19t19.5 -28t7 -34t-7 -34t-19.5 -28t-28.5 -19t-34 -7t-34 7t-28.5 19t-19.5 28t-7 34t7 34t19.5 28t28.5 19t34 7zM219 43v-208h-160v208l21 251h117z" />
    <glyph glyph-name="cent" unicode="&#xa2;" 
d="M551 140q-26 -63 -77 -103t-125 -49v-137h-86v138q-51 7 -91 30t-67.5 59t-42 83.5t-14.5 103.5t14.5 103.5t42 83.5t67.5 58.5t91 30.5v127h86v-126q70 -8 120 -44.5t75 -96.5l-110 -45q-14 36 -35.5 57t-59.5 27v-349q42 8 64.5 32.5t35.5 57.5zM181 267
q0 -84 24 -124.5t68 -49.5v345q-45 -10 -68.5 -50t-23.5 -121z" />
    <glyph glyph-name="sterling" unicode="&#xa3;" 
d="M338 717q81 0 134.5 -41t76.5 -110l-132 -36q-9 41 -27 59.5t-51 18.5q-35 0 -55.5 -24.5t-20.5 -70.5v-136h175v-78h-175v-56q0 -43 -8.5 -71.5t-36.5 -51.5h306v-120h-444l-16 111q18 7 29.5 17t18.5 25t9.5 36.5t2.5 50.5v59h-75v78h75v144q0 39 13 74.5t40 62.5
t67 43t94 16z" />
    <glyph glyph-name="currency" unicode="&#xa4;" horiz-adv-x="638" 
d="M196 482q26 14 57 22.5t66 8.5q34 0 66 -8.5t58 -22.5l102 102l78 -78l-99 -99q15 -26 24 -58t9 -67q0 -36 -9 -68t-25 -58l100 -99l-78 -78l-103 102q-26 -14 -57 -22t-65 -8q-35 0 -66.5 8t-57.5 22l-103 -103l-78 78l101 101q-16 26 -25 57.5t-9 67.5q0 35 9 66.5
t24 57.5l-100 101l78 78zM319 405q-51 0 -79 -32.5t-28 -90.5t28.5 -90.5t79.5 -32.5t79 32.5t28 90.5t-28.5 90.5t-79.5 32.5z" />
    <glyph glyph-name="yen" unicode="&#xa5;" 
d="M393 338h115v-78h-143v-51h143v-78h-143v-131h-131v131h-142v78h142v51h-142v78h114l-186 362h165l116 -299l119 299h160z" />
    <glyph glyph-name="brokenbar" unicode="&#xa6;" horiz-adv-x="316" 
d="M214 405h-112v369h112v-369zM214 -165h-112v369h112v-369z" />
    <glyph glyph-name="section" unicode="&#xa7;" 
d="M304 715q73 0 126.5 -22t91.5 -58l-77 -78q-28 24 -62 37.5t-74 13.5q-42 0 -62 -13t-20 -34q0 -12 5 -21t18.5 -16.5t37 -14t61.5 -13.5q97 -18 146.5 -56.5t49.5 -109.5q0 -44 -21.5 -74.5t-63.5 -60.5q31 -21 44.5 -49t13.5 -63q0 -40 -17 -70.5t-47.5 -51t-72 -31
t-89.5 -10.5q-78 0 -132 24t-93 61l77 76q30 -26 65 -40t80 -14q41 0 62 12.5t21 35.5q0 12 -5 21.5t-18 17t-35.5 14t-57.5 12.5q-100 19 -150.5 58.5t-50.5 110.5q0 44 21.5 74.5t63.5 59.5q-31 22 -45 50t-14 62q0 39 17 69t47 50.5t71 30.5t88 10zM231 405
q-20 -23 -27.5 -40t-7.5 -38q0 -14 5 -26.5t18.5 -23t37.5 -19.5t63 -16l49 -9q20 24 27.5 41t7.5 39q0 14 -5 26t-17.5 22.5t-35 19t-58.5 14.5q-14 2 -28.5 5t-28.5 5z" />
    <glyph glyph-name="dieresis" unicode="&#xa8;" horiz-adv-x="464" 
d="M114 753q16 0 30.5 -6.5t26 -17t18 -25.5t6.5 -31t-6.5 -30.5t-18 -25t-26 -17t-30.5 -6.5t-30.5 6.5t-26 17t-18 25t-6.5 30.5t6.5 31t18 25.5t26 17t30.5 6.5zM351 753q16 0 30.5 -6.5t26 -17t18 -25.5t6.5 -31t-6.5 -30.5t-18 -25t-26 -17t-30.5 -6.5t-30.5 6.5
t-26 17t-18 25t-6.5 30.5t6.5 31t18 25.5t26 17t30.5 6.5z" />
    <glyph glyph-name="copyright" unicode="&#xa9;" horiz-adv-x="900" 
d="M451 717q80 0 148.5 -28.5t118 -78t77.5 -117t28 -144.5t-28 -144t-77.5 -116.5t-118 -77.5t-148.5 -28t-148 28t-118 77.5t-78.5 116.5t-28.5 144t28.5 144.5t78.5 117t118 78t148 28.5zM451 647q-65 0 -119 -24t-93 -64.5t-60.5 -95t-21.5 -114.5t21.5 -114t60.5 -94.5
t93 -64t119 -23.5q66 0 119.5 23.5t92 64t59.5 94.5t21 114t-21 114.5t-59.5 95t-92 64.5t-119.5 24zM450 570q72 0 115.5 -32.5t67.5 -90.5l-91 -25q-12 31 -33 50.5t-59 19.5q-47 0 -75.5 -36t-28.5 -105q0 -64 27 -102.5t79 -38.5q38 0 61.5 19t37.5 58l89 -28
q-23 -55 -68 -91t-121 -36q-44 0 -81 15.5t-64 44t-42 69t-15 90.5q0 60 18 102t47 68t65 37.5t71 11.5z" />
    <glyph glyph-name="ordfeminine" unicode="&#xaa;" horiz-adv-x="437" 
d="M222 717q93 0 132.5 -33t39.5 -93v-195q0 -25 2.5 -46t11.5 -42h-114q-5 9 -8 19t-5 21q-22 -28 -53 -39t-65 -11q-66 0 -101 34t-35 88q0 56 38.5 90.5t130.5 45.5l83 10v18q0 30 -12 41.5t-47 11.5q-33 0 -47.5 -11.5t-15.5 -38.5h-114q2 66 49 98t130 32zM224 487
q-45 -7 -62 -19.5t-17 -36.5q0 -20 13 -32.5t40 -12.5q33 0 57 19.5t24 51.5v38z" />
    <glyph glyph-name="guillemotleft" unicode="&#xab;" horiz-adv-x="535" 
d="M265 452l-98 -174l98 -174l-84 -59l-150 168v130l150 168zM504 452l-98 -174l98 -174l-84 -59l-150 168v130l150 168z" />
    <glyph glyph-name="logicalnot" unicode="&#xac;" 
d="M515 83h-145v146h-285v122h430v-268z" />
    <glyph glyph-name="uni00AD" unicode="&#xad;" horiz-adv-x="376" 
d="M335 246h-294v123h294v-123z" />
    <glyph glyph-name="registered" unicode="&#xae;" horiz-adv-x="900" 
d="M451 717q80 0 148.5 -28.5t118 -78t77.5 -117t28 -144.5t-28 -144t-77.5 -116.5t-118 -77.5t-148.5 -28t-148 28t-118 77.5t-78.5 116.5t-28.5 144t28.5 144.5t78.5 117t118 78t148 28.5zM451 647q-65 0 -119 -24t-93 -64.5t-60.5 -95t-21.5 -114.5t21.5 -114t60.5 -94.5
t93 -64t119 -23.5q66 0 119.5 23.5t92 64t59.5 94.5t21 114t-21 114.5t-59.5 95t-92 64.5t-119.5 24zM463 566q79 0 121 -34t42 -94q0 -45 -26 -73t-61 -39l100 -167h-109l-84 152h-56v-152h-93v407h166zM390 491v-109h72q29 0 47.5 13t18.5 42q0 26 -18 40t-45 14h-75z" />
    <glyph glyph-name="macron" unicode="&#xaf;" horiz-adv-x="417" 
d="M387 618h-357v99h357v-99z" />
    <glyph glyph-name="degree" unicode="&#xb0;" horiz-adv-x="525" 
d="M263 715q37 0 72.5 -12.5t63 -36.5t44 -58.5t16.5 -78.5t-16.5 -78.5t-44 -58t-63 -36t-72.5 -12.5t-72.5 12.5t-63 36.5t-44.5 58.5t-17 78.5t17 78.5t44.5 58t63 36t72.5 12.5zM264 622q-31 0 -56 -22t-25 -70q0 -49 25 -71t56 -22q30 0 55 22t25 70t-25 70.5t-55 22.5
z" />
    <glyph glyph-name="plusminus" unicode="&#xb1;" 
d="M373 380h145v-118h-145v-102h-140v102h-145v118h145v154h140v-154zM512 0h-430v123h430v-123z" />
    <glyph glyph-name="twosuperior" unicode="&#xb2;" horiz-adv-x="400" 
d="M201 763q37 0 67 -10t51 -27t32 -40.5t11 -51.5q0 -66 -44.5 -115.5t-137.5 -99.5h187v-89h-336v86q59 40 99.5 70t65.5 55t36 46t11 44q0 21 -11.5 33t-34.5 12q-52 0 -52 -70h-113q0 33 10 61.5t31 50t53 33.5t75 12z" />
    <glyph glyph-name="threesuperior" unicode="&#xb3;" horiz-adv-x="400" 
d="M203 762q79 0 120.5 -33t41.5 -82q0 -38 -22.5 -61t-60.5 -32q40 -6 68 -30.5t28 -69.5q0 -63 -48 -99t-129 -36q-71 0 -118.5 31t-61.5 91l104 24q14 -58 75 -58q28 0 45 13t17 39q0 25 -17.5 37.5t-46.5 12.5h-45v80h37q22 0 41.5 9t19.5 36q0 22 -15 31.5t-36 9.5
q-23 0 -41 -11t-26 -37l-104 16q13 53 59 86t115 33z" />
    <glyph glyph-name="acute" unicode="&#xb4;" horiz-adv-x="338" 
d="M147 593h-111l97 151h178z" />
    <glyph glyph-name="mu" unicode="&#xb5;" horiz-adv-x="603" 
d="M540 0h-141v57q-43 -69 -119 -69q-47 0 -79 30v-185h-137v698h146v-321q0 -55 20 -77.5t58 -22.5q48 0 77 33.5t29 88.5v299h146v-531z" />
    <glyph glyph-name="paragraph" unicode="&#xb6;" 
d="M543 -162h-91v780h-103v-780h-92v460q-47 3 -84.5 20t-64 44t-40.5 62t-14 74q0 42 15 79t44 64.5t72.5 43t99.5 15.5h258v-862z" />
    <glyph glyph-name="periodcentered" unicode="&#xb7;" horiz-adv-x="301" 
d="M151 395q19 0 36 -7.5t30 -20t20.5 -30t7.5 -36.5t-7.5 -36t-20.5 -29.5t-30 -20t-36 -7.5t-36.5 7.5t-30.5 20.5t-20.5 30t-7.5 36t7.5 36t20.5 29.5t30.5 20t36.5 7.5z" />
    <glyph glyph-name="cedilla" unicode="&#xb8;" horiz-adv-x="331" 
d="M192 -44q53 -5 82 -30t29 -62q0 -52 -41.5 -79.5t-106.5 -27.5q-38 0 -69 7.5t-56 20.5l34 70q17 -8 36.5 -12.5t39.5 -4.5q21 0 35 5.5t14 24.5q0 23 -26.5 30t-77.5 7l17 105h91z" />
    <glyph glyph-name="onesuperior" unicode="&#xb9;" horiz-adv-x="400" 
d="M64 419h106v180h-108v74h10q33 0 54.5 5.5t35 16t20.5 24.5t9 31h89v-331h84v-89h-300v89z" />
    <glyph glyph-name="ordmasculine" unicode="&#xba;" horiz-adv-x="487" 
d="M243 718q49 0 88.5 -16t67 -44.5t42.5 -67t15 -83.5q0 -47 -14.5 -85.5t-42.5 -66.5t-67.5 -43t-88.5 -15q-51 0 -90.5 15.5t-67 43.5t-42 66.5t-14.5 84.5t14.5 85t42 67t67.5 43.5t90 15.5zM243 627q-43 0 -68 -29t-25 -89t24 -90.5t69 -30.5q44 0 68.5 30.5t24.5 90.5
t-25.5 89t-67.5 29z" />
    <glyph glyph-name="guillemotright" unicode="&#xbb;" horiz-adv-x="535" 
d="M504 343v-130l-150 -168l-84 59l98 174l-98 174l84 59zM265 343v-130l-150 -168l-84 59l98 174l-98 174l84 59z" />
    <glyph glyph-name="onequarter" unicode="&#xbc;" horiz-adv-x="952" 
d="M359 -12h-109l433 724h109zM883 157h55v-88h-55v-69h-108v69h-210v91l175 260h143v-263zM671 157h103v152zM64 369h106v180h-108v74h10q33 0 54.5 5.5t35 16t20.5 24.5t9 31h89v-331h84v-89h-300v89z" />
    <glyph glyph-name="onehalf" unicode="&#xbd;" horiz-adv-x="1002" 
d="M359 -12h-109l433 724h109zM803 433q37 0 67 -10t51 -27t32 -40.5t11 -51.5q0 -66 -44.5 -115.5t-137.5 -99.5h187v-89h-336v86q59 40 99.5 70t65.5 55t36 46t11 44q0 21 -11.5 33t-34.5 12q-52 0 -52 -70h-113q0 33 10 61.5t31 50t53 33.5t75 12zM64 369h106v180h-108
v74h10q33 0 54.5 5.5t35 16t20.5 24.5t9 31h89v-331h84v-89h-300v89z" />
    <glyph glyph-name="threequarters" unicode="&#xbe;" horiz-adv-x="912" 
d="M319 -12h-109l433 724h109zM843 157h55v-88h-55v-69h-108v69h-210v91l175 260h143v-263zM631 157h103v152zM203 712q79 0 120.5 -33t41.5 -82q0 -38 -22.5 -61t-60.5 -32q40 -6 68 -30.5t28 -69.5q0 -63 -48 -99t-129 -36q-71 0 -118.5 31t-61.5 91l104 24q14 -58 75 -58
q28 0 45 13t17 39q0 25 -17.5 37.5t-46.5 12.5h-45v80h37q22 0 41.5 9t19.5 36q0 22 -15 31.5t-36 9.5q-23 0 -41 -11t-26 -37l-104 16q13 53 59 86t115 33z" />
    <glyph glyph-name="questiondown" unicode="&#xbf;" horiz-adv-x="534" 
d="M277 543q18 0 34 -7t28.5 -19t19.5 -28t7 -34t-7 -34t-19.5 -28t-28.5 -19t-34 -7t-34 7t-28.5 19t-19.5 28t-7 34t7 34t19.5 28t28.5 19t34 7zM347 262q0 -36 -12.5 -62t-31 -45.5t-40 -35t-40 -31t-31 -33t-12.5 -41.5q0 -38 23.5 -57.5t62.5 -19.5q49 0 76 27t41 67
l133 -36q-9 -32 -28.5 -63.5t-51 -57.5t-75 -42t-100.5 -16q-61 0 -106 16.5t-74 43.5t-43.5 61t-14.5 69q0 46 14 76.5t35 52t46 36.5t46 30t35 33t14 45v21h134v-38z" />
    <glyph glyph-name="Agrave" unicode="&#xc0;" horiz-adv-x="648" 
d="M453 110h-264l-32 -110h-156l227 700h192l227 -700h-162zM223 232h196l-98 351zM395 753h-114l-169 149h184z" />
    <glyph glyph-name="Aacute" unicode="&#xc1;" horiz-adv-x="648" 
d="M453 110h-264l-32 -110h-156l227 700h192l227 -700h-162zM223 232h196l-98 351zM375 753h-115l99 149h184z" />
    <glyph glyph-name="Acircumflex" unicode="&#xc2;" horiz-adv-x="648" 
d="M453 110h-264l-32 -110h-156l227 700h192l227 -700h-162zM223 232h196l-98 351zM536 753h-133l-79 66l-79 -66h-133l138 147h148z" />
    <glyph glyph-name="Atilde" unicode="&#xc3;" horiz-adv-x="648" 
d="M453 110h-264l-32 -110h-156l227 700h192l227 -700h-162zM223 232h196l-98 351zM260 896q28 0 48 -7.5t35 -16.5t26.5 -16.5t22.5 -7.5q15 0 25 8t19 28h79q-8 -60 -42.5 -96t-85.5 -36q-28 0 -48 7.5t-35 16.5t-27 16.5t-23 7.5q-14 0 -24.5 -7.5t-19.5 -27.5h-78
q9 60 42 95.5t86 35.5z" />
    <glyph glyph-name="Adieresis" unicode="&#xc4;" horiz-adv-x="648" 
d="M453 110h-264l-32 -110h-156l227 700h192l227 -700h-162zM223 232h196l-98 351zM206 913q16 0 30.5 -6.5t26 -17t18 -25.5t6.5 -31t-6.5 -30.5t-18 -25t-26 -17t-30.5 -6.5t-30.5 6.5t-26 17t-18 25t-6.5 30.5t6.5 31t18 25.5t26 17t30.5 6.5zM443 913q16 0 30.5 -6.5
t26 -17t18 -25.5t6.5 -31t-6.5 -30.5t-18 -25t-26 -17t-30.5 -6.5t-30.5 6.5t-26 17t-18 25t-6.5 30.5t6.5 31t18 25.5t26 17t30.5 6.5z" />
    <glyph glyph-name="Aring" unicode="&#xc5;" horiz-adv-x="648" 
d="M453 110h-264l-32 -110h-156l227 700h192l227 -700h-162zM223 232h196l-98 351zM324 995q27 0 52 -9t43.5 -26t29.5 -41t11 -53t-11 -53t-29.5 -41t-43.5 -26t-52 -9t-52 9t-43.5 26t-29.5 41t-11 53t11 53t29.5 41t43.5 26t52 9zM324 916q-19 0 -32.5 -13t-13.5 -37
t13.5 -37t32.5 -13t32.5 13t13.5 37t-13.5 37t-32.5 13z" />
    <glyph glyph-name="AE" unicode="&#xc6;" horiz-adv-x="946" 
d="M873 574h-331l25 -156h288v-122h-270l27 -170h311v-126h-448l-14 108h-262l-46 -108h-162l320 700h562v-126zM247 229h197l-48 349z" />
    <glyph glyph-name="Ccedilla" unicode="&#xc7;" horiz-adv-x="734" 
d="M379 717q47 0 92.5 -10.5t86 -34.5t73.5 -63t55 -96l-148 -39q-23 57 -60.5 86t-98.5 29q-84 0 -132.5 -61.5t-48.5 -175.5q0 -113 46 -177t137 -64q69 0 110 33.5t64 97.5l145 -45q-42 -108 -128 -161t-198 -53q-60 0 -119.5 20t-107 63.5t-77 113.5t-29.5 171
q0 97 28.5 166.5t75.5 114t108 65t126 20.5zM418 -44q53 -5 82 -30t29 -62q0 -52 -41.5 -79.5t-106.5 -27.5q-38 0 -69 7.5t-56 20.5l34 70q17 -8 36.5 -12.5t39.5 -4.5q21 0 35 5.5t14 24.5q0 23 -26.5 30t-77.5 7l17 105h91z" />
    <glyph glyph-name="Egrave" unicode="&#xc8;" horiz-adv-x="590" 
d="M538 574h-315v-156h294v-122h-294v-170h324v-126h-476v700h467v-126zM375 753h-114l-169 149h184z" />
    <glyph glyph-name="Eacute" unicode="&#xc9;" horiz-adv-x="590" 
d="M538 574h-315v-156h294v-122h-294v-170h324v-126h-476v700h467v-126zM355 753h-115l99 149h184z" />
    <glyph glyph-name="Ecircumflex" unicode="&#xca;" horiz-adv-x="590" 
d="M538 574h-315v-156h294v-122h-294v-170h324v-126h-476v700h467v-126zM516 753h-133l-79 66l-79 -66h-133l138 147h148z" />
    <glyph glyph-name="Edieresis" unicode="&#xcb;" horiz-adv-x="590" 
d="M538 574h-315v-156h294v-122h-294v-170h324v-126h-476v700h467v-126zM186 913q16 0 30.5 -6.5t26 -17t18 -25.5t6.5 -31t-6.5 -30.5t-18 -25t-26 -17t-30.5 -6.5t-30.5 6.5t-26 17t-18 25t-6.5 30.5t6.5 31t18 25.5t26 17t30.5 6.5zM423 913q16 0 30.5 -6.5t26 -17
t18 -25.5t6.5 -31t-6.5 -30.5t-18 -25t-26 -17t-30.5 -6.5t-30.5 6.5t-26 17t-18 25t-6.5 30.5t6.5 31t18 25.5t26 17t30.5 6.5z" />
    <glyph glyph-name="Igrave" unicode="&#xcc;" horiz-adv-x="399" 
d="M363 579h-88v-458h88v-121h-329v121h88v458h-88v121h329v-121zM269 753h-114l-169 149h184z" />
    <glyph glyph-name="Iacute" unicode="&#xcd;" horiz-adv-x="399" 
d="M363 579h-88v-458h88v-121h-329v121h88v458h-88v121h329v-121zM249 753h-115l99 149h184z" />
    <glyph glyph-name="Icircumflex" unicode="&#xce;" horiz-adv-x="399" 
d="M363 579h-88v-458h88v-121h-329v121h88v458h-88v121h329v-121zM410 753h-133l-79 66l-79 -66h-133l138 147h148z" />
    <glyph glyph-name="Idieresis" unicode="&#xcf;" horiz-adv-x="399" 
d="M363 579h-88v-458h88v-121h-329v121h88v458h-88v121h329v-121zM80 913q16 0 30.5 -6.5t26 -17t18 -25.5t6.5 -31t-6.5 -30.5t-18 -25t-26 -17t-30.5 -6.5t-30.5 6.5t-26 17t-18 25t-6.5 30.5t6.5 31t18 25.5t26 17t30.5 6.5zM317 913q16 0 30.5 -6.5t26 -17t18 -25.5
t6.5 -31t-6.5 -30.5t-18 -25t-26 -17t-30.5 -6.5t-30.5 6.5t-26 17t-18 25t-6.5 30.5t6.5 31t18 25.5t26 17t30.5 6.5z" />
    <glyph glyph-name="Eth" unicode="&#xd0;" horiz-adv-x="732" 
d="M322 700q73 0 140 -18.5t118 -59t81.5 -105.5t30.5 -157q0 -103 -30 -172t-78.5 -111t-109.5 -59.5t-122 -17.5h-258v314h-71v103h71v283h228zM352 125q33 0 66 9.5t59 35.5t42.5 71.5t16.5 117.5q0 49 -11.5 88.5t-36.5 68t-65 44t-96 15.5h-80v-158h154v-103h-154v-189
h105z" />
    <glyph glyph-name="Ntilde" unicode="&#xd1;" horiz-adv-x="719" 
d="M649 0h-176l-264 466v-466h-138v700h176l264 -477v477h138v-700zM296 896q28 0 48 -7.5t35 -16.5t26.5 -16.5t22.5 -7.5q15 0 25 8t19 28h79q-8 -60 -42.5 -96t-85.5 -36q-28 0 -48 7.5t-35 16.5t-27 16.5t-23 7.5q-14 0 -24.5 -7.5t-19.5 -27.5h-78q9 60 42 95.5
t86 35.5z" />
    <glyph glyph-name="Ograve" unicode="&#xd2;" horiz-adv-x="776" 
d="M388 717q61 0 123.5 -18.5t112 -62t81 -114t31.5 -173.5q0 -96 -29 -165t-77.5 -113.5t-111.5 -66t-130 -21.5q-61 0 -122.5 19.5t-111.5 63t-81.5 113.5t-31.5 172q0 97 29 166.5t77.5 114t111 65t129.5 20.5zM388 590q-42 0 -77 -16t-60 -46.5t-39 -74.5t-14 -101
q0 -113 48 -177.5t142 -64.5q41 0 76 15.5t60.5 46t39.5 75t14 101.5q0 111 -48 176.5t-142 65.5zM459 753h-114l-169 149h184z" />
    <glyph glyph-name="Oacute" unicode="&#xd3;" horiz-adv-x="776" 
d="M388 717q61 0 123.5 -18.5t112 -62t81 -114t31.5 -173.5q0 -96 -29 -165t-77.5 -113.5t-111.5 -66t-130 -21.5q-61 0 -122.5 19.5t-111.5 63t-81.5 113.5t-31.5 172q0 97 29 166.5t77.5 114t111 65t129.5 20.5zM388 590q-42 0 -77 -16t-60 -46.5t-39 -74.5t-14 -101
q0 -113 48 -177.5t142 -64.5q41 0 76 15.5t60.5 46t39.5 75t14 101.5q0 111 -48 176.5t-142 65.5zM439 753h-115l99 149h184z" />
    <glyph glyph-name="Ocircumflex" unicode="&#xd4;" horiz-adv-x="776" 
d="M388 717q61 0 123.5 -18.5t112 -62t81 -114t31.5 -173.5q0 -96 -29 -165t-77.5 -113.5t-111.5 -66t-130 -21.5q-61 0 -122.5 19.5t-111.5 63t-81.5 113.5t-31.5 172q0 97 29 166.5t77.5 114t111 65t129.5 20.5zM388 590q-42 0 -77 -16t-60 -46.5t-39 -74.5t-14 -101
q0 -113 48 -177.5t142 -64.5q41 0 76 15.5t60.5 46t39.5 75t14 101.5q0 111 -48 176.5t-142 65.5zM600 753h-133l-79 66l-79 -66h-133l138 147h148z" />
    <glyph glyph-name="Otilde" unicode="&#xd5;" horiz-adv-x="776" 
d="M388 717q61 0 123.5 -18.5t112 -62t81 -114t31.5 -173.5q0 -96 -29 -165t-77.5 -113.5t-111.5 -66t-130 -21.5q-61 0 -122.5 19.5t-111.5 63t-81.5 113.5t-31.5 172q0 97 29 166.5t77.5 114t111 65t129.5 20.5zM388 590q-42 0 -77 -16t-60 -46.5t-39 -74.5t-14 -101
q0 -113 48 -177.5t142 -64.5q41 0 76 15.5t60.5 46t39.5 75t14 101.5q0 111 -48 176.5t-142 65.5zM324 896q28 0 48 -7.5t35 -16.5t26.5 -16.5t22.5 -7.5q15 0 25 8t19 28h79q-8 -60 -42.5 -96t-85.5 -36q-28 0 -48 7.5t-35 16.5t-27 16.5t-23 7.5q-14 0 -24.5 -7.5
t-19.5 -27.5h-78q9 60 42 95.5t86 35.5z" />
    <glyph glyph-name="Odieresis" unicode="&#xd6;" horiz-adv-x="776" 
d="M388 717q61 0 123.5 -18.5t112 -62t81 -114t31.5 -173.5q0 -96 -29 -165t-77.5 -113.5t-111.5 -66t-130 -21.5q-61 0 -122.5 19.5t-111.5 63t-81.5 113.5t-31.5 172q0 97 29 166.5t77.5 114t111 65t129.5 20.5zM388 590q-42 0 -77 -16t-60 -46.5t-39 -74.5t-14 -101
q0 -113 48 -177.5t142 -64.5q41 0 76 15.5t60.5 46t39.5 75t14 101.5q0 111 -48 176.5t-142 65.5zM270 913q16 0 30.5 -6.5t26 -17t18 -25.5t6.5 -31t-6.5 -30.5t-18 -25t-26 -17t-30.5 -6.5t-30.5 6.5t-26 17t-18 25t-6.5 30.5t6.5 31t18 25.5t26 17t30.5 6.5zM507 913
q16 0 30.5 -6.5t26 -17t18 -25.5t6.5 -31t-6.5 -30.5t-18 -25t-26 -17t-30.5 -6.5t-30.5 6.5t-26 17t-18 25t-6.5 30.5t6.5 31t18 25.5t26 17t30.5 6.5z" />
    <glyph glyph-name="multiply" unicode="&#xd7;" 
d="M531 422l-145 -145l145 -144l-87 -86l-144 144l-144 -144l-87 86l145 144l-145 145l87 86l144 -145l144 145z" />
    <glyph glyph-name="Oslash" unicode="&#xd8;" horiz-adv-x="776" 
d="M635 624q45 -44 73 -111t28 -164q0 -96 -29 -165t-77.5 -113.5t-111.5 -66t-130 -21.5q-36 0 -73 7t-72 21l-62 -101h-123l99 154q-51 44 -83.5 114t-32.5 173q0 97 29 166.5t77.5 114t111 65t129.5 20.5q41 0 82 -8t79 -26l49 76h121zM388 589q-85 0 -137.5 -61.5
t-52.5 -175.5q0 -56 10.5 -99.5t32.5 -73.5l247 386q-41 24 -100 24zM388 111q41 0 76 15.5t60.5 45.5t39.5 74.5t14 101.5q0 97 -32 156l-240 -378q34 -15 82 -15z" />
    <glyph glyph-name="Ugrave" unicode="&#xd9;" horiz-adv-x="698" 
d="M638 258q0 -56 -16 -106t-51 -87.5t-90 -59.5t-132 -22q-79 0 -133.5 22.5t-88.5 60t-49.5 87.5t-15.5 105v442h152v-440q0 -79 33 -114.5t103 -35.5q69 0 102 37t33 113v440h153v-442zM420 753h-114l-169 149h184z" />
    <glyph glyph-name="Uacute" unicode="&#xda;" horiz-adv-x="698" 
d="M638 258q0 -56 -16 -106t-51 -87.5t-90 -59.5t-132 -22q-79 0 -133.5 22.5t-88.5 60t-49.5 87.5t-15.5 105v442h152v-440q0 -79 33 -114.5t103 -35.5q69 0 102 37t33 113v440h153v-442zM400 753h-115l99 149h184z" />
    <glyph glyph-name="Ucircumflex" unicode="&#xdb;" horiz-adv-x="698" 
d="M638 258q0 -56 -16 -106t-51 -87.5t-90 -59.5t-132 -22q-79 0 -133.5 22.5t-88.5 60t-49.5 87.5t-15.5 105v442h152v-440q0 -79 33 -114.5t103 -35.5q69 0 102 37t33 113v440h153v-442zM561 753h-133l-79 66l-79 -66h-133l138 147h148z" />
    <glyph glyph-name="Udieresis" unicode="&#xdc;" horiz-adv-x="698" 
d="M638 258q0 -56 -16 -106t-51 -87.5t-90 -59.5t-132 -22q-79 0 -133.5 22.5t-88.5 60t-49.5 87.5t-15.5 105v442h152v-440q0 -79 33 -114.5t103 -35.5q69 0 102 37t33 113v440h153v-442zM231 913q16 0 30.5 -6.5t26 -17t18 -25.5t6.5 -31t-6.5 -30.5t-18 -25t-26 -17
t-30.5 -6.5t-30.5 6.5t-26 17t-18 25t-6.5 30.5t6.5 31t18 25.5t26 17t30.5 6.5zM468 913q16 0 30.5 -6.5t26 -17t18 -25.5t6.5 -31t-6.5 -30.5t-18 -25t-26 -17t-30.5 -6.5t-30.5 6.5t-26 17t-18 25t-6.5 30.5t6.5 31t18 25.5t26 17t30.5 6.5z" />
    <glyph glyph-name="Yacute" unicode="&#xdd;" horiz-adv-x="620" 
d="M384 278v-278h-152v276l-240 424h173l145 -299l147 299h167zM360 753h-115l99 149h184z" />
    <glyph glyph-name="Thorn" unicode="&#xde;" horiz-adv-x="645" 
d="M223 591h113q74 0 127 -18t87.5 -50t50.5 -75.5t16 -94.5q0 -111 -69.5 -175.5t-209.5 -64.5h-115v-113h-152v700h152v-109zM223 465v-229h122q23 0 44 6t36.5 19.5t25 36.5t9.5 56q0 51 -29.5 81t-82.5 30h-125z" />
    <glyph glyph-name="germandbls" unicode="&#xdf;" horiz-adv-x="619" 
d="M294 714q57 0 98 -13t68 -34.5t39.5 -49t12.5 -57.5q0 -36 -14.5 -58.5t-32 -39.5t-32 -31.5t-14.5 -33.5q0 -16 14 -26.5t34.5 -20.5t45 -22t45 -31.5t34.5 -49.5t14 -76q0 -34 -12 -67t-38 -58.5t-66.5 -41.5t-96.5 -16q-51 0 -87 12.5t-71 38.5l62 94
q19 -16 39.5 -22.5t46.5 -6.5q32 0 51.5 16.5t19.5 51.5q0 25 -13 41.5t-33 28.5t-42.5 23t-42.5 25.5t-33 35.5t-13 53q0 31 15 52.5t32.5 39t32.5 34t15 39.5q0 32 -24 45t-53 13q-42 0 -63.5 -25.5t-21.5 -72.5v-504h-146v500q0 98 59 156t171 58z" />
    <glyph glyph-name="agrave" unicode="&#xe0;" horiz-adv-x="568" 
d="M286 545q121 0 172.5 -44.5t51.5 -123.5v-261q0 -32 3 -60t15 -56h-145q-12 25 -17 54q-29 -37 -69.5 -52t-85.5 -15q-42 0 -75.5 12t-56 34t-34.5 51.5t-12 64.5q0 75 50 120.5t170 60.5l111 14v23q0 42 -16.5 58.5t-64.5 16.5q-45 0 -64.5 -16t-20.5 -54h-144
q2 87 63.5 130t168.5 43zM289 241q-58 -8 -82.5 -26t-24.5 -52q0 -28 17 -45.5t54 -17.5q22 0 42.5 7.5t35.5 20.5t24 31t9 40v52zM358 593h-111l-164 151h178z" />
    <glyph glyph-name="aacute" unicode="&#xe1;" horiz-adv-x="568" 
d="M286 545q121 0 172.5 -44.5t51.5 -123.5v-261q0 -32 3 -60t15 -56h-145q-12 25 -17 54q-29 -37 -69.5 -52t-85.5 -15q-42 0 -75.5 12t-56 34t-34.5 51.5t-12 64.5q0 75 50 120.5t170 60.5l111 14v23q0 42 -16.5 58.5t-64.5 16.5q-45 0 -64.5 -16t-20.5 -54h-144
q2 87 63.5 130t168.5 43zM289 241q-58 -8 -82.5 -26t-24.5 -52q0 -28 17 -45.5t54 -17.5q22 0 42.5 7.5t35.5 20.5t24 31t9 40v52zM334 593h-111l97 151h178z" />
    <glyph glyph-name="acircumflex" unicode="&#xe2;" horiz-adv-x="568" 
d="M286 545q121 0 172.5 -44.5t51.5 -123.5v-261q0 -32 3 -60t15 -56h-145q-12 25 -17 54q-29 -37 -69.5 -52t-85.5 -15q-42 0 -75.5 12t-56 34t-34.5 51.5t-12 64.5q0 75 50 120.5t170 60.5l111 14v23q0 42 -16.5 58.5t-64.5 16.5q-45 0 -64.5 -16t-20.5 -54h-144
q2 87 63.5 130t168.5 43zM289 241q-58 -8 -82.5 -26t-24.5 -52q0 -28 17 -45.5t54 -17.5q22 0 42.5 7.5t35.5 20.5t24 31t9 40v52zM503 593h-133l-79 73l-79 -73h-133l138 151h148z" />
    <glyph glyph-name="atilde" unicode="&#xe3;" horiz-adv-x="568" 
d="M286 545q121 0 172.5 -44.5t51.5 -123.5v-261q0 -32 3 -60t15 -56h-145q-12 25 -17 54q-29 -37 -69.5 -52t-85.5 -15q-42 0 -75.5 12t-56 34t-34.5 51.5t-12 64.5q0 75 50 120.5t170 60.5l111 14v23q0 42 -16.5 58.5t-64.5 16.5q-45 0 -64.5 -16t-20.5 -54h-144
q2 87 63.5 130t168.5 43zM289 241q-58 -8 -82.5 -26t-24.5 -52q0 -28 17 -45.5t54 -17.5q22 0 42.5 7.5t35.5 20.5t24 31t9 40v52zM227 736q28 0 48 -7.5t35 -16.5t26.5 -16.5t22.5 -7.5q15 0 25 8t19 28h79q-8 -60 -42.5 -96t-85.5 -36q-28 0 -48 7.5t-35 16.5t-27 16.5
t-23 7.5q-14 0 -24.5 -7.5t-19.5 -27.5h-78q9 60 42 95.5t86 35.5z" />
    <glyph glyph-name="adieresis" unicode="&#xe4;" horiz-adv-x="568" 
d="M286 545q121 0 172.5 -44.5t51.5 -123.5v-261q0 -32 3 -60t15 -56h-145q-12 25 -17 54q-29 -37 -69.5 -52t-85.5 -15q-42 0 -75.5 12t-56 34t-34.5 51.5t-12 64.5q0 75 50 120.5t170 60.5l111 14v23q0 42 -16.5 58.5t-64.5 16.5q-45 0 -64.5 -16t-20.5 -54h-144
q2 87 63.5 130t168.5 43zM289 241q-58 -8 -82.5 -26t-24.5 -52q0 -28 17 -45.5t54 -17.5q22 0 42.5 7.5t35.5 20.5t24 31t9 40v52zM173 753q16 0 30.5 -6.5t26 -17t18 -25.5t6.5 -31t-6.5 -30.5t-18 -25t-26 -17t-30.5 -6.5t-30.5 6.5t-26 17t-18 25t-6.5 30.5t6.5 31
t18 25.5t26 17t30.5 6.5zM410 753q16 0 30.5 -6.5t26 -17t18 -25.5t6.5 -31t-6.5 -30.5t-18 -25t-26 -17t-30.5 -6.5t-30.5 6.5t-26 17t-18 25t-6.5 30.5t6.5 31t18 25.5t26 17t30.5 6.5z" />
    <glyph glyph-name="aring" unicode="&#xe5;" horiz-adv-x="568" 
d="M286 545q121 0 172.5 -44.5t51.5 -123.5v-261q0 -32 3 -60t15 -56h-145q-12 25 -17 54q-29 -37 -69.5 -52t-85.5 -15q-42 0 -75.5 12t-56 34t-34.5 51.5t-12 64.5q0 75 50 120.5t170 60.5l111 14v23q0 42 -16.5 58.5t-64.5 16.5q-45 0 -64.5 -16t-20.5 -54h-144
q2 87 63.5 130t168.5 43zM289 241q-58 -8 -82.5 -26t-24.5 -52q0 -28 17 -45.5t54 -17.5q22 0 42.5 7.5t35.5 20.5t24 31t9 40v52zM291 842q27 0 52 -9t43.5 -26t29.5 -40.5t11 -52.5t-11 -53t-29.5 -41t-43.5 -26t-52 -9t-52 9t-43.5 26t-29.5 41t-11 53t11 52.5t29.5 40.5
t43.5 26t52 9zM291 764q-19 0 -32.5 -13t-13.5 -37t13.5 -37.5t32.5 -13.5t32.5 13.5t13.5 37.5t-13.5 37t-32.5 13z" />
    <glyph glyph-name="ae" unicode="&#xe6;" horiz-adv-x="904" 
d="M615 544q60 0 107.5 -20.5t80.5 -58t50.5 -90.5t17.5 -117v-28h-368q4 -66 37 -98t90 -32q45 0 74 19.5t46 49.5l117 -57q-38 -60 -98.5 -93t-145.5 -33q-69 0 -119.5 25t-83.5 73q-29 -41 -76 -69t-125 -28q-91 0 -138.5 45.5t-47.5 115.5q0 76 50 122t170 60l122 14
q2 11 4.5 21.5t6.5 22.5q-8 29 -31 41.5t-70 12.5q-46 0 -66 -16t-21 -54h-144q2 88 61.5 130.5t165.5 42.5q40 0 68 -5t47.5 -14t32 -21t23.5 -25q22 23 64 43.5t99 20.5zM616 438q-48 0 -77.5 -28t-34.5 -87h220q-4 60 -32 87.5t-76 27.5zM284 240q-54 -6 -78 -24.5
t-24 -53.5q0 -29 17.5 -45.5t54.5 -16.5q23 0 44 7t37.5 18t27 25.5t13.5 28.5q-4 26 -4.5 42t-0.5 30z" />
    <glyph glyph-name="ccedilla" unicode="&#xe7;" horiz-adv-x="573" 
d="M306 544q90 0 150.5 -38.5t92.5 -105.5l-127 -50q-14 38 -41.5 58t-66.5 20q-57 0 -91 -40t-34 -121t33.5 -123t91.5 -42q25 0 43.5 7t32 19.5t23 29t16.5 34.5l126 -50q-32 -69 -93.5 -112.5t-155.5 -43.5q-63 0 -113.5 21t-85 58t-53 88t-18.5 112t19 112.5t54 88.5
t85 57.5t112 20.5zM343 -44q53 -5 82 -30t29 -62q0 -52 -41.5 -79.5t-106.5 -27.5q-38 0 -69 7.5t-56 20.5l34 70q17 -8 36.5 -12.5t39.5 -4.5q21 0 35 5.5t14 24.5q0 23 -26.5 30t-77.5 7l17 105h91z" />
    <glyph glyph-name="egrave" unicode="&#xe8;" horiz-adv-x="589" 
d="M298 544q61 0 109 -20.5t81 -58t50.5 -90.5t17.5 -117v-28h-370q4 -66 38 -98t91 -32q45 0 74 19.5t46 49.5l117 -57q-38 -60 -99 -93t-147 -33q-64 0 -114 21t-84.5 58t-53 88.5t-18.5 111.5q0 61 17.5 112.5t50.5 88.5t82 57.5t112 20.5zM298 438q-48 0 -77.5 -28
t-34.5 -87h220q-4 60 -32 87.5t-76 27.5zM364 593h-111l-164 151h178z" />
    <glyph glyph-name="eacute" unicode="&#xe9;" horiz-adv-x="589" 
d="M298 544q61 0 109 -20.5t81 -58t50.5 -90.5t17.5 -117v-28h-370q4 -66 38 -98t91 -32q45 0 74 19.5t46 49.5l117 -57q-38 -60 -99 -93t-147 -33q-64 0 -114 21t-84.5 58t-53 88.5t-18.5 111.5q0 61 17.5 112.5t50.5 88.5t82 57.5t112 20.5zM298 438q-48 0 -77.5 -28
t-34.5 -87h220q-4 60 -32 87.5t-76 27.5zM340 593h-111l97 151h178z" />
    <glyph glyph-name="ecircumflex" unicode="&#xea;" horiz-adv-x="589" 
d="M298 544q61 0 109 -20.5t81 -58t50.5 -90.5t17.5 -117v-28h-370q4 -66 38 -98t91 -32q45 0 74 19.5t46 49.5l117 -57q-38 -60 -99 -93t-147 -33q-64 0 -114 21t-84.5 58t-53 88.5t-18.5 111.5q0 61 17.5 112.5t50.5 88.5t82 57.5t112 20.5zM298 438q-48 0 -77.5 -28
t-34.5 -87h220q-4 60 -32 87.5t-76 27.5zM509 593h-133l-79 73l-79 -73h-133l138 151h148z" />
    <glyph glyph-name="edieresis" unicode="&#xeb;" horiz-adv-x="589" 
d="M298 544q61 0 109 -20.5t81 -58t50.5 -90.5t17.5 -117v-28h-370q4 -66 38 -98t91 -32q45 0 74 19.5t46 49.5l117 -57q-38 -60 -99 -93t-147 -33q-64 0 -114 21t-84.5 58t-53 88.5t-18.5 111.5q0 61 17.5 112.5t50.5 88.5t82 57.5t112 20.5zM298 438q-48 0 -77.5 -28
t-34.5 -87h220q-4 60 -32 87.5t-76 27.5zM179 753q16 0 30.5 -6.5t26 -17t18 -25.5t6.5 -31t-6.5 -30.5t-18 -25t-26 -17t-30.5 -6.5t-30.5 6.5t-26 17t-18 25t-6.5 30.5t6.5 31t18 25.5t26 17t30.5 6.5zM416 753q16 0 30.5 -6.5t26 -17t18 -25.5t6.5 -31t-6.5 -30.5
t-18 -25t-26 -17t-30.5 -6.5t-30.5 6.5t-26 17t-18 25t-6.5 30.5t6.5 31t18 25.5t26 17t30.5 6.5z" />
    <glyph glyph-name="igrave" unicode="&#xec;" horiz-adv-x="273" 
d="M210 0h-146v531h146v-531zM203 593h-111l-164 151h178z" />
    <glyph glyph-name="iacute" unicode="&#xed;" horiz-adv-x="273" 
d="M210 0h-146v531h146v-531zM179 593h-111l97 151h178z" />
    <glyph glyph-name="icircumflex" unicode="&#xee;" horiz-adv-x="273" 
d="M210 0h-146v531h146v-531zM348 593h-133l-79 73l-79 -73h-133l138 151h148z" />
    <glyph glyph-name="idieresis" unicode="&#xef;" horiz-adv-x="273" 
d="M210 0h-146v531h146v-531zM18 753q16 0 30.5 -6.5t26 -17t18 -25.5t6.5 -31t-6.5 -30.5t-18 -25t-26 -17t-30.5 -6.5t-30.5 6.5t-26 17t-18 25t-6.5 30.5t6.5 31t18 25.5t26 17t30.5 6.5zM255 753q16 0 30.5 -6.5t26 -17t18 -25.5t6.5 -31t-6.5 -30.5t-18 -25t-26 -17
t-30.5 -6.5t-30.5 6.5t-26 17t-18 25t-6.5 30.5t6.5 31t18 25.5t26 17t30.5 6.5z" />
    <glyph glyph-name="eth" unicode="&#xf0;" horiz-adv-x="607" 
d="M380 666q91 -43 141.5 -128t50.5 -223q0 -87 -20.5 -149.5t-57 -103t-87 -60t-109.5 -19.5t-107 17t-82.5 48.5t-53.5 76t-19 100.5q0 58 18.5 101.5t49.5 73t71.5 44.5t85.5 15q53 0 96.5 -19t71.5 -60q-4 72 -32.5 118.5t-77.5 72.5l-42 -65h-100l60 93q-26 6 -55 8.5
t-61 3.5l25 105q86 -5 153 -22l42 66h99zM301 99q50 0 80.5 32.5t30.5 91.5q0 56 -30.5 88.5t-83.5 32.5q-29 0 -50 -9.5t-35 -25.5t-20.5 -38t-6.5 -47q0 -61 31.5 -93t83.5 -32z" />
    <glyph glyph-name="ntilde" unicode="&#xf1;" horiz-adv-x="604" 
d="M368 545q86 0 132 -52.5t46 -148.5v-344h-146v300q0 60 -17 91t-65 31t-78 -35.5t-30 -94.5v-292h-146v531h142v-70q29 45 70.5 64.5t91.5 19.5zM259 736q28 0 48 -7.5t35 -16.5t26.5 -16.5t22.5 -7.5q15 0 25 8t19 28h79q-8 -60 -42.5 -96t-85.5 -36q-28 0 -48 7.5
t-35 16.5t-27 16.5t-23 7.5q-14 0 -24.5 -7.5t-19.5 -27.5h-78q9 60 42 95.5t86 35.5z" />
    <glyph glyph-name="ograve" unicode="&#xf2;" horiz-adv-x="626" 
d="M313 544q64 0 115.5 -21.5t87.5 -59t55.5 -88.5t19.5 -110q0 -62 -19 -113.5t-55 -88.5t-87.5 -57t-116.5 -20t-116.5 21t-87 58t-54.5 88t-19 112t19 112.5t55 88.5t87 57.5t116 20.5zM313 428q-57 0 -90.5 -40t-33.5 -121t32.5 -123t91.5 -42t91.5 42t32.5 123
t-33.5 121t-90.5 40zM380 593h-111l-164 151h178z" />
    <glyph glyph-name="oacute" unicode="&#xf3;" horiz-adv-x="626" 
d="M313 544q64 0 115.5 -21.5t87.5 -59t55.5 -88.5t19.5 -110q0 -62 -19 -113.5t-55 -88.5t-87.5 -57t-116.5 -20t-116.5 21t-87 58t-54.5 88t-19 112t19 112.5t55 88.5t87 57.5t116 20.5zM313 428q-57 0 -90.5 -40t-33.5 -121t32.5 -123t91.5 -42t91.5 42t32.5 123
t-33.5 121t-90.5 40zM356 593h-111l97 151h178z" />
    <glyph glyph-name="ocircumflex" unicode="&#xf4;" horiz-adv-x="626" 
d="M313 544q64 0 115.5 -21.5t87.5 -59t55.5 -88.5t19.5 -110q0 -62 -19 -113.5t-55 -88.5t-87.5 -57t-116.5 -20t-116.5 21t-87 58t-54.5 88t-19 112t19 112.5t55 88.5t87 57.5t116 20.5zM313 428q-57 0 -90.5 -40t-33.5 -121t32.5 -123t91.5 -42t91.5 42t32.5 123
t-33.5 121t-90.5 40zM525 593h-133l-79 73l-79 -73h-133l138 151h148z" />
    <glyph glyph-name="otilde" unicode="&#xf5;" horiz-adv-x="626" 
d="M313 544q64 0 115.5 -21.5t87.5 -59t55.5 -88.5t19.5 -110q0 -62 -19 -113.5t-55 -88.5t-87.5 -57t-116.5 -20t-116.5 21t-87 58t-54.5 88t-19 112t19 112.5t55 88.5t87 57.5t116 20.5zM313 428q-57 0 -90.5 -40t-33.5 -121t32.5 -123t91.5 -42t91.5 42t32.5 123
t-33.5 121t-90.5 40zM249 736q28 0 48 -7.5t35 -16.5t26.5 -16.5t22.5 -7.5q15 0 25 8t19 28h79q-8 -60 -42.5 -96t-85.5 -36q-28 0 -48 7.5t-35 16.5t-27 16.5t-23 7.5q-14 0 -24.5 -7.5t-19.5 -27.5h-78q9 60 42 95.5t86 35.5z" />
    <glyph glyph-name="odieresis" unicode="&#xf6;" horiz-adv-x="626" 
d="M313 544q64 0 115.5 -21.5t87.5 -59t55.5 -88.5t19.5 -110q0 -62 -19 -113.5t-55 -88.5t-87.5 -57t-116.5 -20t-116.5 21t-87 58t-54.5 88t-19 112t19 112.5t55 88.5t87 57.5t116 20.5zM313 428q-57 0 -90.5 -40t-33.5 -121t32.5 -123t91.5 -42t91.5 42t32.5 123
t-33.5 121t-90.5 40zM195 753q16 0 30.5 -6.5t26 -17t18 -25.5t6.5 -31t-6.5 -30.5t-18 -25t-26 -17t-30.5 -6.5t-30.5 6.5t-26 17t-18 25t-6.5 30.5t6.5 31t18 25.5t26 17t30.5 6.5zM432 753q16 0 30.5 -6.5t26 -17t18 -25.5t6.5 -31t-6.5 -30.5t-18 -25t-26 -17
t-30.5 -6.5t-30.5 6.5t-26 17t-18 25t-6.5 30.5t6.5 31t18 25.5t26 17t30.5 6.5z" />
    <glyph glyph-name="divide" unicode="&#xf7;" 
d="M300.807 587.904q18.2207 0 34.5234 -7.19238t28.7695 -19.1797t19.6592 -28.7695t7.19238 -35.0029t-7.19238 -34.5234t-19.6592 -28.29t-28.7695 -19.1797t-34.5234 -7.19238t-35.0029 7.19238t-29.249 19.6592t-19.6592 28.7695t-7.19238 34.5234t7.19238 34.5234
t19.6592 28.29t29.249 19.1797t35.0029 7.19238zM515 238h-430v123h430v-123zM300.807 190.904q18.2207 0 34.5234 -7.19238t28.7695 -19.1797t19.6592 -28.7695t7.19238 -35.0029t-7.19238 -34.5234t-19.6592 -28.29t-28.7695 -19.1797t-34.5234 -7.19238t-35.0029 7.19238
t-29.249 19.6592t-19.6592 28.7695t-7.19238 34.5234t7.19238 34.5234t19.6592 28.29t29.249 19.1797t35.0029 7.19238z" />
    <glyph glyph-name="oslash" unicode="&#xf8;" horiz-adv-x="626" 
d="M503 473q42 -38 65 -91.5t23 -116.5q0 -62 -19 -113.5t-55 -88.5t-87.5 -57t-116.5 -20q-56 0 -102 17l-48 -83h-114l78 129q-45 38 -68 93.5t-23 122.5q0 61 19 112.5t55 88.5t87 57.5t116 20.5q57 0 106 -20l49 81h111zM314 428q-57 0 -91.5 -40t-34.5 -121
q0 -67 22 -108l156 260q-23 9 -52 9zM266 110q22 -8 48 -8q59 0 92 42t33 123q0 31 -5 55t-14 43z" />
    <glyph glyph-name="ugrave" unicode="&#xf9;" horiz-adv-x="598" 
d="M535 0h-141v63q-60 -77 -158 -77q-38 0 -70.5 11t-56 34t-37 57.5t-13.5 82.5v360h146v-326q0 -51 18.5 -72t59.5 -21q48 0 77 32.5t29 87.5v299h146v-531zM364 593h-111l-164 151h178z" />
    <glyph glyph-name="uacute" unicode="&#xfa;" horiz-adv-x="598" 
d="M535 0h-141v63q-60 -77 -158 -77q-38 0 -70.5 11t-56 34t-37 57.5t-13.5 82.5v360h146v-326q0 -51 18.5 -72t59.5 -21q48 0 77 32.5t29 87.5v299h146v-531zM340 593h-111l97 151h178z" />
    <glyph glyph-name="ucircumflex" unicode="&#xfb;" horiz-adv-x="598" 
d="M535 0h-141v63q-60 -77 -158 -77q-38 0 -70.5 11t-56 34t-37 57.5t-13.5 82.5v360h146v-326q0 -51 18.5 -72t59.5 -21q48 0 77 32.5t29 87.5v299h146v-531zM509 593h-133l-79 73l-79 -73h-133l138 151h148z" />
    <glyph glyph-name="udieresis" unicode="&#xfc;" horiz-adv-x="598" 
d="M535 0h-141v63q-60 -77 -158 -77q-38 0 -70.5 11t-56 34t-37 57.5t-13.5 82.5v360h146v-326q0 -51 18.5 -72t59.5 -21q48 0 77 32.5t29 87.5v299h146v-531zM179 753q16 0 30.5 -6.5t26 -17t18 -25.5t6.5 -31t-6.5 -30.5t-18 -25t-26 -17t-30.5 -6.5t-30.5 6.5t-26 17
t-18 25t-6.5 30.5t6.5 31t18 25.5t26 17t30.5 6.5zM416 753q16 0 30.5 -6.5t26 -17t18 -25.5t6.5 -31t-6.5 -30.5t-18 -25t-26 -17t-30.5 -6.5t-30.5 6.5t-26 17t-18 25t-6.5 30.5t6.5 31t18 25.5t26 17t30.5 6.5z" />
    <glyph glyph-name="yacute" unicode="&#xfd;" horiz-adv-x="526" 
d="M361 -19q-12 -38 -27 -69.5t-39 -53.5t-58.5 -34t-85.5 -12q-23 0 -41.5 2t-32.5 5v102q18 -2 27 -2h20q28 0 46 4t29 13t18 24.5t12 39.5h-56l-174 531h163l107 -428l99 428h157zM307 593h-111l97 151h178z" />
    <glyph glyph-name="thorn" unicode="&#xfe;" horiz-adv-x="627" 
d="M210 478q28 35 66.5 50.5t84.5 15.5q51 0 93.5 -20.5t73 -57t47.5 -88t17 -113.5q0 -60 -17.5 -111.5t-48.5 -88.5t-74 -58t-94 -21t-87 16t-61 45v-214h-146v867h146v-222zM318 428q-53 0 -85 -40t-32 -124q0 -83 33 -122.5t84 -39.5q56 0 88 42.5t32 120.5
q0 81 -30.5 122t-89.5 41z" />
    <glyph glyph-name="ydieresis" unicode="&#xff;" horiz-adv-x="526" 
d="M361 -19q-12 -38 -27 -69.5t-39 -53.5t-58.5 -34t-85.5 -12q-23 0 -41.5 2t-32.5 5v102q18 -2 27 -2h20q28 0 46 4t29 13t18 24.5t12 39.5h-56l-174 531h163l107 -428l99 428h157zM146 753q16 0 30.5 -6.5t26 -17t18 -25.5t6.5 -31t-6.5 -30.5t-18 -25t-26 -17
t-30.5 -6.5t-30.5 6.5t-26 17t-18 25t-6.5 30.5t6.5 31t18 25.5t26 17t30.5 6.5zM383 753q16 0 30.5 -6.5t26 -17t18 -25.5t6.5 -31t-6.5 -30.5t-18 -25t-26 -17t-30.5 -6.5t-30.5 6.5t-26 17t-18 25t-6.5 30.5t6.5 31t18 25.5t26 17t30.5 6.5z" />
    <glyph glyph-name="dotlessi" unicode="&#x131;" horiz-adv-x="273" 
d="M210 0h-146v531h146v-531z" />
    <glyph glyph-name="IJ" unicode="&#x132;" horiz-adv-x="821" 
d="M363 579h-88v-458h88v-121h-329v121h88v458h-88v121h329v-121zM761 224q0 -52 -11 -94.5t-37.5 -72.5t-70 -46.5t-109.5 -16.5q-28 0 -51.5 1.5t-49.5 4.5v128q14 -1 27.5 -1.5t27.5 -0.5q36 0 59.5 5.5t37 18t19 33.5t5.5 52v465h153v-476z" />
    <glyph glyph-name="ij" unicode="&#x133;" horiz-adv-x="558" 
d="M495 -13q0 -47 -14 -80.5t-37.5 -54.5t-53.5 -30.5t-63 -9.5q-24 0 -41 1.5t-33 5.5v107q8 -1 12 -1h8q21 0 35.5 4t23.5 15t13 30.5t4 50.5v506h146v-544zM420 749q18 0 33.5 -6.5t27.5 -17.5t19 -26t7 -33q0 -17 -7 -32t-19 -26t-27.5 -17.5t-33.5 -6.5
q-35 0 -60.5 23.5t-25.5 58.5q0 18 7 33t19 26t27.5 17.5t32.5 6.5zM210 0h-146v531h146v-531zM135 749q18 0 33.5 -6.5t27.5 -17.5t19 -26t7 -33q0 -17 -7 -32t-19 -26t-27.5 -17.5t-33.5 -6.5q-35 0 -60.5 23.5t-25.5 58.5q0 18 7 33t19 26t27.5 17.5t32.5 6.5z" />
    <glyph glyph-name="Lslash" unicode="&#x141;" horiz-adv-x="571" 
d="M549 131v-131h-455v257l-71 -38v107l71 38v336h152v-255l158 84v-106l-158 -85v-207h303z" />
    <glyph glyph-name="lslash" unicode="&#x142;" horiz-adv-x="305" 
d="M214 332v-168q0 -17 1 -28t5.5 -17.5t13.5 -9t25 -2.5h9q4 0 12 1v-107q-30 -8 -75 -8q-66 0 -101.5 36t-35.5 114v109l-53 -29v102l53 29v346h146v-266l76 42v-103z" />
    <glyph glyph-name="OE" unicode="&#x152;" horiz-adv-x="984" 
d="M388 717q32 0 65 -4t63 -13h417v-126h-305v-157h284v-120h-284v-171h314v-126h-433q-29 -9 -59.5 -13t-61.5 -4q-61 0 -122.5 19.5t-111.5 63t-81.5 113.5t-31.5 172q0 97 29 166.5t77.5 114t111 65t129.5 20.5zM388 591q-42 0 -77 -16t-60 -47t-39 -75t-14 -101
q0 -113 48 -178t142 -65q23 0 45 3.5t42 12.5v452q-34 14 -87 14z" />
    <glyph glyph-name="oe" unicode="&#x153;" horiz-adv-x="992" 
d="M708 545q59 0 105.5 -20.5t79 -57t49.5 -88.5t17 -115v-36h-370q10 -128 128 -128q46 0 74.5 19t47.5 48l115 -58q-39 -60 -98.5 -91.5t-144.5 -31.5q-72 0 -121.5 26.5t-79.5 69.5q-32 -42 -81.5 -69t-118.5 -27q-65 0 -115.5 21t-86 58t-54 88t-18.5 112t19 112.5
t54.5 88.5t86.5 57.5t115 20.5q70 0 120 -26t81 -71q31 44 79 71t117 27zM700 436q-95 0 -110 -108h218q-14 108 -108 108zM312 428q-57 0 -90 -40t-33 -121t32 -123t91 -42t92 42t33 123t-34 121t-91 40z" />
    <glyph glyph-name="Scaron" unicode="&#x160;" horiz-adv-x="658" 
d="M332 -17q-96 0 -177 32.5t-137 97.5l99 91q43 -44 94.5 -69t123.5 -25q60 0 98.5 21.5t38.5 62.5q0 19 -6.5 34.5t-25 27.5t-53 22t-89.5 20q-124 22 -184.5 71.5t-60.5 142.5q0 47 19.5 85t55.5 64.5t86.5 41t111.5 14.5q52 0 95.5 -9.5t80 -26t66 -39.5t52.5 -49
l-104 -84q-14 15 -31 29.5t-40 26.5t-52 19t-66 7q-57 0 -87.5 -20t-30.5 -56q0 -17 6.5 -30.5t24.5 -24t51 -20t86 -18.5q66 -11 114 -29t78.5 -44t45.5 -62t15 -83q0 -52 -20.5 -93t-59.5 -69.5t-94 -43.5t-124 -15zM405 763h-148l-138 147h133l79 -65l79 65h133z" />
    <glyph glyph-name="scaron" unicode="&#x161;" horiz-adv-x="538" 
d="M276 544q75 0 131 -22.5t94 -57.5l-75 -82q-33 27 -68.5 41t-76.5 14q-44 0 -64.5 -13.5t-20.5 -35.5q0 -12 5 -21t19 -16t38.5 -13t64.5 -13q96 -17 143 -56t47 -113q0 -38 -16 -69t-47 -53.5t-76 -35t-103 -12.5q-88 0 -149 24.5t-106 66.5l75 86q38 -35 80 -51t87 -16
q53 0 77.5 14t24.5 39q0 12 -4 21.5t-17.5 17.5t-38.5 14.5t-68 14.5q-95 17 -140.5 55.5t-45.5 107.5q0 39 17.5 69.5t48.5 51.5t73 32t91 11zM351 603h-148l-138 151h133l79 -72l79 72h133z" />
    <glyph glyph-name="Ydieresis" unicode="&#x178;" horiz-adv-x="620" 
d="M384 278v-278h-152v276l-240 424h173l145 -299l147 299h167zM191 913q16 0 30.5 -6.5t26 -17t18 -25.5t6.5 -31t-6.5 -30.5t-18 -25t-26 -17t-30.5 -6.5t-30.5 6.5t-26 17t-18 25t-6.5 30.5t6.5 31t18 25.5t26 17t30.5 6.5zM428 913q16 0 30.5 -6.5t26 -17t18 -25.5
t6.5 -31t-6.5 -30.5t-18 -25t-26 -17t-30.5 -6.5t-30.5 6.5t-26 17t-18 25t-6.5 30.5t6.5 31t18 25.5t26 17t30.5 6.5z" />
    <glyph glyph-name="Zcaron" unicode="&#x17d;" horiz-adv-x="608" 
d="M565 580l-352 -454h363v-126h-555v117l357 460h-333v123h520v-120zM374 763h-148l-138 147h133l79 -65l79 65h133z" />
    <glyph glyph-name="zcaron" unicode="&#x17e;" horiz-adv-x="485" 
d="M450 419l-255 -300h263v-119h-442v109l258 305h-232v117h408v-112zM313 603h-148l-138 151h133l79 -72l79 72h133z" />
    <glyph glyph-name="longs" unicode="&#x17f;" horiz-adv-x="357" 
d="M263 714q26 0 49.5 -3.5t52.5 -11.5v-104q-23 6 -39.5 8t-33.5 2q-32 0 -46.5 -10.5t-14.5 -40.5v-554h-146v418h-72v104h72v47q0 31 10 57.5t31.5 46t55.5 30.5t81 11z" />
    <glyph glyph-name="florin" unicode="&#x192;" horiz-adv-x="327" 
d="M232 715q34 0 65 -5.5t56 -13.5v-105q-19 6 -44 10.5t-48 4.5q-32 0 -46.5 -10t-14.5 -40v-33h130v-104h-130v-428q0 -47 -14 -80t-37.5 -54t-53.5 -31t-63 -10q-24 0 -41 2t-33 6v106q8 -1 12 -1h8q21 0 35.5 4t23.5 15t13 30.5t4 51.5v389h-72v104h72v52q0 31 10 56.5
t31.5 44t55.5 29t81 10.5z" />
    <glyph glyph-name="uni0237" unicode="&#x237;" horiz-adv-x="273" 
d="M210 -13q0 -47 -14 -80.5t-37.5 -54.5t-53.5 -30.5t-63 -9.5q-24 0 -41 1.5t-33 5.5v107q8 -1 12 -1h8q21 0 35.5 4t23.5 15t13 30.5t4 50.5v506h146v-544z" />
    <glyph glyph-name="uni02BB" unicode="&#x2bb;" horiz-adv-x="299" 
d="M154.157 463.31q-39.9824 0 -65.6855 26.1797q-25.7031 26.1787 -25.7031 67.1133q0 62.8301 30.9385 124.231q30.9395 61.4023 80.4414 112.808l72.3496 -38.0781q-20.9434 -33.3193 -32.3672 -63.3057q-11.4238 -29.9873 -15.2314 -70.9219
q21.8955 -13.3271 33.3193 -30.9385q11.4229 -17.6113 11.4229 -45.2188q0 -33.3184 -25.2266 -57.5938q-25.2275 -24.2754 -64.2578 -24.2754z" />
    <glyph glyph-name="uni02BC" unicode="&#x2bc;" horiz-adv-x="298" 
d="M144.852 760.7q39.9854 0 65.6904 -26.1807q25.7041 -26.1807 25.7041 -67.1172q0 -62.834 -30.9404 -124.24q-30.9404 -61.4053 -80.4463 -112.814l-72.3535 38.0811q20.9443 33.3203 32.3682 63.3096q11.4248 29.9883 15.2324 70.9258
q-21.8965 13.3281 -33.3203 30.9414q-11.4248 17.6123 -11.4248 45.2207q0 33.3213 25.2285 57.5977t64.2617 24.2764z" />
    <glyph glyph-name="circumflex" unicode="&#x2c6;" horiz-adv-x="484" 
d="M454 593h-133l-79 73l-79 -73h-133l138 151h148z" />
    <glyph glyph-name="caron" unicode="&#x2c7;" horiz-adv-x="484" 
d="M316 603h-148l-138 151h133l79 -72l79 72h133z" />
    <glyph glyph-name="breve" unicode="&#x2d8;" horiz-adv-x="410" 
d="M380 748q-11 -73 -54.5 -115t-120.5 -42q-75 0 -119.5 42t-55.5 115h85q6 -30 31 -44.5t59 -15.5q34 0 58.5 14.5t31.5 45.5h85z" />
    <glyph glyph-name="dotaccent" unicode="&#x2d9;" horiz-adv-x="233" 
d="M118 749q18 0 33.5 -6.5t27.5 -17.5t19 -26t7 -33q0 -17 -7 -32t-19 -26t-27.5 -17.5t-33.5 -6.5q-35 0 -60.5 23.5t-25.5 58.5q0 18 7 33t19 26t27.5 17.5t32.5 6.5z" />
    <glyph glyph-name="ring" unicode="&#x2da;" horiz-adv-x="332" 
d="M166 842q27 0 52 -9t43.5 -26t29.5 -40.5t11 -52.5t-11 -53t-29.5 -41t-43.5 -26t-52 -9t-52 9t-43.5 26t-29.5 41t-11 53t11 52.5t29.5 40.5t43.5 26t52 9zM166 764q-19 0 -32.5 -13t-13.5 -37t13.5 -37.5t32.5 -13.5t32.5 13.5t13.5 37.5t-13.5 37t-32.5 13z" />
    <glyph glyph-name="ogonek" unicode="&#x2db;" horiz-adv-x="315" 
d="M224 0q-26 -16 -42.5 -31.5t-25.5 -29.5t-12.5 -27.5t-3.5 -25.5q0 -20 13 -32t42 -12q19 0 34.5 3.5t29.5 8.5l26 -73q-52 -23 -111 -23q-68 0 -107 29t-39 84q0 48 45 89t130 62z" />
    <glyph glyph-name="tilde" unicode="&#x2dc;" horiz-adv-x="443" 
d="M158 736q28 0 48 -7.5t35 -16.5t26.5 -16.5t22.5 -7.5q15 0 25 8t19 28h79q-8 -60 -42.5 -96t-85.5 -36q-28 0 -48 7.5t-35 16.5t-27 16.5t-23 7.5q-14 0 -24.5 -7.5t-19.5 -27.5h-78q9 60 42 95.5t86 35.5z" />
    <glyph glyph-name="hungarumlaut" unicode="&#x2dd;" horiz-adv-x="510" 
d="M134 593h-104l87 161h159zM330 593h-104l94 161h160z" />
    <glyph glyph-name="gravecomb" unicode="&#x300;" horiz-adv-x="1" 
d="M-36 593h-111l-164 151h178z" />
    <glyph glyph-name="acutecomb" unicode="&#x301;" horiz-adv-x="1" 
d="M-191 593h-111l97 151h178z" />
    <glyph glyph-name="uni0302" unicode="&#x302;" horiz-adv-x="1" 
d="M-30 593h-133l-79 73l-79 -73h-133l138 151h148z" />
    <glyph glyph-name="tildecomb" unicode="&#x303;" horiz-adv-x="1" 
d="M-285 736q28 0 48 -7.5t35 -16.5t26.5 -16.5t22.5 -7.5q15 0 25 8t19 28h79q-8 -60 -42.5 -96t-85.5 -36q-28 0 -48 7.5t-35 16.5t-27 16.5t-23 7.5q-14 0 -24.5 -7.5t-19.5 -27.5h-78q9 60 42 95.5t86 35.5z" />
    <glyph glyph-name="uni0304" unicode="&#x304;" horiz-adv-x="1" 
d="M-30 618h-357v99h357v-99z" />
    <glyph glyph-name="uni0306" unicode="&#x306;" horiz-adv-x="1" 
d="M-30 748q-11 -73 -54.5 -115t-120.5 -42q-75 0 -119.5 42t-55.5 115h85q6 -30 31 -44.5t59 -15.5q34 0 58.5 14.5t31.5 45.5h85z" />
    <glyph glyph-name="uni0307" unicode="&#x307;" horiz-adv-x="1" 
d="M-115 749q18 0 33.5 -6.5t27.5 -17.5t19 -26t7 -33q0 -17 -7 -32t-19 -26t-27.5 -17.5t-33.5 -6.5q-35 0 -60.5 23.5t-25.5 58.5q0 18 7 33t19 26t27.5 17.5t32.5 6.5z" />
    <glyph glyph-name="uni0308" unicode="&#x308;" horiz-adv-x="1" 
d="M-350 753q16 0 30.5 -6.5t26 -17t18 -25.5t6.5 -31t-6.5 -30.5t-18 -25t-26 -17t-30.5 -6.5t-30.5 6.5t-26 17t-18 25t-6.5 30.5t6.5 31t18 25.5t26 17t30.5 6.5zM-113 753q16 0 30.5 -6.5t26 -17t18 -25.5t6.5 -31t-6.5 -30.5t-18 -25t-26 -17t-30.5 -6.5t-30.5 6.5
t-26 17t-18 25t-6.5 30.5t6.5 31t18 25.5t26 17t30.5 6.5z" />
    <glyph glyph-name="uni030A" unicode="&#x30a;" horiz-adv-x="1" 
d="M-166 842q27 0 52 -9t43.5 -26t29.5 -40.5t11 -52.5t-11 -53t-29.5 -41t-43.5 -26t-52 -9t-52 9t-43.5 26t-29.5 41t-11 53t11 52.5t29.5 40.5t43.5 26t52 9zM-166 764q-19 0 -32.5 -13t-13.5 -37t13.5 -37.5t32.5 -13.5t32.5 13.5t13.5 37.5t-13.5 37t-32.5 13z" />
    <glyph glyph-name="uni030B" unicode="&#x30b;" horiz-adv-x="1" 
d="M-376 593h-104l87 161h159zM-180 593h-104l94 161h160z" />
    <glyph glyph-name="uni030C" unicode="&#x30c;" horiz-adv-x="1" 
d="M-168 603h-148l-138 151h133l79 -72l79 72h133z" />
    <glyph glyph-name="uni0326" unicode="&#x326;" horiz-adv-x="1" 
d="M-104 -60q35 0 54.5 -22t19.5 -53q0 -45 -25.5 -94t-63.5 -91l-60 25q16 26 25 49t14 56q-21 14 -29 28.5t-8 33.5q0 29 21.5 48.5t51.5 19.5z" />
    <glyph glyph-name="uni0327" unicode="&#x327;" horiz-adv-x="1" 
d="M-139 -44q53 -5 82 -30t29 -62q0 -52 -41.5 -79.5t-106.5 -27.5q-38 0 -69 7.5t-56 20.5l34 70q17 -8 36.5 -12.5t39.5 -4.5q21 0 35 5.5t14 24.5q0 23 -26.5 30t-77.5 7l17 105h91z" />
    <glyph glyph-name="uni0328" unicode="&#x328;" horiz-adv-x="1" 
d="M-91 0q-26 -16 -42.5 -31.5t-25.5 -29.5t-12.5 -27.5t-3.5 -25.5q0 -20 13 -32t42 -12q19 0 34.5 3.5t29.5 8.5l26 -73q-52 -23 -111 -23q-68 0 -107 29t-39 84q0 48 45 89t130 62z" />
    <glyph glyph-name="uni0394" unicode="&#x394;" 
d="M591 0h-580l193 700h193zM405 121l-108 458l-107 -458h215z" />
    <glyph glyph-name="uni03A9" unicode="&#x3a9;" horiz-adv-x="776" 
d="M388 717q64 0 126 -19t111.5 -62t80 -111.5t30.5 -167.5q0 -91 -29.5 -147t-77.5 -90h100v-120h-271v120q63 23 92 87t29 147q0 113 -50 174t-141 61q-85 0 -137.5 -59t-52.5 -173q0 -85 29 -149.5t92 -87.5v-120h-271v120h105q-52 34 -82 90.5t-30 147.5q0 96 29 164
t77.5 111.5t111 63.5t129.5 20z" />
    <glyph glyph-name="uni03BC" unicode="&#x3bc;" horiz-adv-x="603" 
d="M540 0h-141v57q-43 -69 -119 -69q-47 0 -79 30v-185h-137v698h146v-321q0 -55 20 -77.5t58 -22.5q48 0 77 33.5t29 88.5v299h146v-531z" />
    <glyph glyph-name="pi" unicode="&#x3c0;" horiz-adv-x="648" 
d="M615 415h-76v-415h-142v415h-145v-415h-141v415h-77v116h581v-116z" />
    <glyph glyph-name="uni1E9E" unicode="&#x1e9e;" horiz-adv-x="707" 
d="M440 -19q-46 0 -86 7t-88 29l39 107q27 -14 54 -19t59 -5q19 0 39 5.5t35.5 17.5t25.5 31t10 46q0 25 -9 44.5t-29 33.5t-52 25t-79 20v89l126 144q-23 17 -55.5 28t-77.5 11q-31 0 -56.5 -8t-43.5 -25.5t-27.5 -46.5t-9.5 -71v-444h-153v453q0 63 20 112.5t57.5 83
t91 51.5t121.5 18q95 0 169.5 -35t131.5 -100l-148 -177q36 -10 69 -27t57.5 -42t39 -59t14.5 -79q0 -47 -17 -87t-49 -69t-77 -45.5t-102 -16.5z" />
    <glyph glyph-name="uni2007" unicode="&#x2007;" 
 />
    <glyph glyph-name="uni2008" unicode="&#x2008;" horiz-adv-x="301" 
 />
    <glyph glyph-name="uni200B" unicode="&#x200b;" horiz-adv-x="0" 
 />
    <glyph glyph-name="uniFEFF" unicode="&#xfeff;" horiz-adv-x="0" 
 />
    <glyph glyph-name="figuredash" unicode="&#x2012;" 
d="M562 252h-524v122h524v-122z" />
    <glyph glyph-name="endash" unicode="&#x2013;" horiz-adv-x="551" 
d="M510 246h-469v123h469v-123z" />
    <glyph glyph-name="emdash" unicode="&#x2014;" horiz-adv-x="669" 
d="M628 246h-587v123h587v-123z" />
    <glyph glyph-name="quoteleft" unicode="&#x2018;" horiz-adv-x="299" 
d="M154.157 463.31q-39.9824 0 -65.6855 26.1797q-25.7031 26.1787 -25.7031 67.1133q0 62.8301 30.9385 124.231q30.9395 61.4023 80.4414 112.808l72.3496 -38.0781q-20.9434 -33.3193 -32.3672 -63.3057q-11.4238 -29.9873 -15.2314 -70.9219
q21.8955 -13.3271 33.3193 -30.9385q11.4229 -17.6113 11.4229 -45.2188q0 -33.3184 -25.2266 -57.5938q-25.2275 -24.2754 -64.2578 -24.2754z" />
    <glyph glyph-name="quoteright" unicode="&#x2019;" horiz-adv-x="298" 
d="M144.852 760.7q39.9854 0 65.6904 -26.1807q25.7041 -26.1807 25.7041 -67.1172q0 -62.834 -30.9404 -124.24q-30.9404 -61.4053 -80.4463 -112.814l-72.3535 38.0811q20.9443 33.3203 32.3682 63.3096q11.4248 29.9883 15.2324 70.9258
q-21.8965 13.3281 -33.3203 30.9414q-11.4248 17.6123 -11.4248 45.2207q0 33.3213 25.2285 57.5977t64.2617 24.2764z" />
    <glyph glyph-name="quotesinglbase" unicode="&#x201a;" horiz-adv-x="298" 
d="M144.852 164.7q39.9854 0 65.6904 -26.1807q25.7041 -26.1807 25.7041 -67.1172q0 -62.834 -30.9404 -124.24q-30.9404 -61.4053 -80.4463 -112.814l-72.3535 38.0811q20.9443 33.3203 32.3682 63.3096q11.4248 29.9883 15.2324 70.9258
q-21.8965 13.3281 -33.3203 30.9414q-11.4248 17.6123 -11.4248 45.2207q0 33.3213 25.2285 57.5977t64.2617 24.2764z" />
    <glyph glyph-name="quotedblleft" unicode="&#x201c;" horiz-adv-x="518" 
d="M373.157 463.31q-39.9824 0 -65.6855 26.1797q-25.7031 26.1787 -25.7031 67.1133q0 62.8301 30.9385 124.231q30.9395 61.4023 80.4414 112.808l72.3496 -38.0781q-20.9434 -33.3193 -32.3672 -63.3057q-11.4238 -29.9873 -15.2314 -70.9219
q21.8955 -13.3271 33.3193 -30.9385q11.4229 -17.6113 11.4229 -45.2188q0 -33.3184 -25.2266 -57.5938q-25.2275 -24.2754 -64.2578 -24.2754zM154.157 463.31q-39.9824 0 -65.6855 26.1797q-25.7031 26.1787 -25.7031 67.1133q0 62.8301 30.9385 124.231
q30.9395 61.4023 80.4414 112.808l72.3496 -38.0781q-20.9434 -33.3193 -32.3672 -63.3057q-11.4238 -29.9873 -15.2314 -70.9219q21.8955 -13.3271 33.3193 -30.9385q11.4229 -17.6113 11.4229 -45.2188q0 -33.3184 -25.2266 -57.5938q-25.2275 -24.2754 -64.2578 -24.2754
z" />
    <glyph glyph-name="quotedblright" unicode="&#x201d;" horiz-adv-x="517" 
d="M144.852 759.7q39.9854 0 65.6904 -26.1807q25.7041 -26.1807 25.7041 -67.1172q0 -62.834 -30.9404 -124.24q-30.9404 -61.4053 -80.4463 -112.814l-72.3535 38.0811q20.9443 33.3203 32.3682 63.3096q11.4248 29.9883 15.2324 70.9258
q-21.8965 13.3281 -33.3203 30.9414q-11.4248 17.6123 -11.4248 45.2207q0 33.3213 25.2285 57.5977t64.2617 24.2764zM363.852 759.7q39.9854 0 65.6904 -26.1807q25.7041 -26.1807 25.7041 -67.1172q0 -62.834 -30.9404 -124.24q-30.9404 -61.4053 -80.4463 -112.814
l-72.3535 38.0811q20.9443 33.3203 32.3682 63.3096q11.4248 29.9883 15.2324 70.9258q-21.8965 13.3281 -33.3203 30.9414q-11.4248 17.6123 -11.4248 45.2207q0 33.3213 25.2285 57.5977t64.2617 24.2764z" />
    <glyph glyph-name="quotedblbase" unicode="&#x201e;" horiz-adv-x="517" 
d="M144.852 164.7q39.9854 0 65.6904 -26.1807q25.7041 -26.1807 25.7041 -67.1172q0 -62.834 -30.9404 -124.24q-30.9404 -61.4053 -80.4463 -112.814l-72.3535 38.0811q20.9443 33.3203 32.3682 63.3096q11.4248 29.9883 15.2324 70.9258
q-21.8965 13.3281 -33.3203 30.9414q-11.4248 17.6123 -11.4248 45.2207q0 33.3213 25.2285 57.5977t64.2617 24.2764zM363.852 164.7q39.9854 0 65.6904 -26.1807q25.7041 -26.1807 25.7041 -67.1172q0 -62.834 -30.9404 -124.24q-30.9404 -61.4053 -80.4463 -112.814
l-72.3535 38.0811q20.9443 33.3203 32.3682 63.3096q11.4248 29.9883 15.2324 70.9258q-21.8965 13.3281 -33.3203 30.9414q-11.4248 17.6123 -11.4248 45.2207q0 33.3213 25.2285 57.5977t64.2617 24.2764z" />
    <glyph glyph-name="dagger" unicode="&#x2020;" horiz-adv-x="638" 
d="M390 531h162v-118h-162v-578h-144v578h-162v118h162v169h144v-169z" />
    <glyph glyph-name="daggerdbl" unicode="&#x2021;" horiz-adv-x="638" 
d="M390 503h162v-118h-162v-225h162v-118h-162v-207h-144v207h-162v118h162v225h-162v118h162v197h144v-197z" />
    <glyph glyph-name="bullet" unicode="&#x2022;" horiz-adv-x="357" 
d="M179 415q25 0 47.5 -9.5t39 -26.5t26.5 -39.5t10 -47.5q0 -24 -10 -46t-26.5 -38.5t-39 -26.5t-47.5 -10t-47.5 10t-39.5 26.5t-27 38.5t-10 47t10 47.5t27 39t39.5 26t47.5 9.5z" />
    <glyph glyph-name="uni2023" unicode="&#x2023;" horiz-adv-x="375" 
d="M65 169v243l243 -120z" />
    <glyph glyph-name="ellipsis" unicode="&#x2026;" horiz-adv-x="876" 
d="M142.259 157.257q17.2705 0 32.7236 -6.81836q15.4531 -6.81738 27.2695 -18.1797q11.8174 -11.3623 18.6348 -27.2695t6.81738 -33.1787q0 -17.2705 -6.81738 -32.7236t-18.6348 -26.8154q-11.8164 -11.3623 -27.2695 -18.1797t-32.7236 -6.81738
q-17.2715 0 -33.1787 6.81738t-27.7246 18.6338q-11.8164 11.8174 -18.6338 27.2705t-6.81738 32.7236t6.81738 32.7236t18.6338 26.8154q11.8174 11.3623 27.7246 18.1797q15.9072 6.81836 33.1787 6.81836zM437.259 157.257q17.2705 0 32.7236 -6.81836
q15.4531 -6.81738 27.2695 -18.1797q11.8174 -11.3623 18.6348 -27.2695t6.81738 -33.1787q0 -17.2705 -6.81738 -32.7236t-18.6348 -26.8154q-11.8164 -11.3623 -27.2695 -18.1797t-32.7236 -6.81738q-17.2715 0 -33.1787 6.81738t-27.7246 18.6338
q-11.8164 11.8174 -18.6338 27.2705t-6.81738 32.7236t6.81738 32.7236t18.6338 26.8154q11.8174 11.3623 27.7246 18.1797q15.9072 6.81836 33.1787 6.81836zM734.259 157.257q17.2705 0 32.7236 -6.81836q15.4531 -6.81738 27.2695 -18.1797
q11.8174 -11.3623 18.6348 -27.2695t6.81738 -33.1787q0 -17.2705 -6.81738 -32.7236t-18.6348 -26.8154q-11.8164 -11.3623 -27.2695 -18.1797t-32.7236 -6.81738q-17.2715 0 -33.1787 6.81738t-27.7246 18.6338q-11.8164 11.8174 -18.6338 27.2705t-6.81738 32.7236
t6.81738 32.7236t18.6338 26.8154q11.8174 11.3623 27.7246 18.1797q15.9072 6.81836 33.1787 6.81836z" />
    <glyph glyph-name="perthousand" unicode="&#x2030;" horiz-adv-x="1452" 
d="M226 717q41 0 76.5 -14.5t62 -43.5t41.5 -72t15 -101q0 -60 -15 -104t-41.5 -72.5t-62 -42t-76.5 -13.5q-42 0 -77.5 13.5t-61.5 42t-41 72.5t-15 104q0 58 15 101t41 72t61.5 43.5t77.5 14.5zM350 -12h-109l433 724h109zM226 630q-45 0 -65.5 -36.5t-20.5 -105.5
q0 -74 20.5 -110.5t65.5 -36.5t65 36.5t20 108.5q0 70 -20 107t-65 37zM803 448q41 0 76.5 -14.5t62 -43.5t41.5 -72.5t15 -101.5q0 -60 -15 -104t-41.5 -72.5t-62 -42t-76.5 -13.5q-42 0 -77.5 13.5t-61.5 42t-41 72.5t-15 104q0 58 15 101.5t41 72.5t61.5 43.5t77.5 14.5z
M1225 448q42 0 77.5 -14.5t62 -43.5t41.5 -72.5t15 -101.5q0 -60 -15 -104t-41.5 -72.5t-62 -42t-77.5 -13.5q-41 0 -76.5 13.5t-61.5 42t-41 72.5t-15 104q0 58 15 101.5t41 72.5t61.5 43.5t76.5 14.5zM804 360q-45 0 -65.5 -36.5t-20.5 -106.5q0 -73 20.5 -109t65.5 -36
t65 36t20 108q0 71 -20 107.5t-65 36.5zM1226 360q-45 0 -65 -36.5t-20 -106.5q0 -73 20 -109t65 -36t65.5 36t20.5 108q0 71 -20.5 107.5t-65.5 36.5z" />
    <glyph glyph-name="guilsinglleft" unicode="&#x2039;" horiz-adv-x="296" 
d="M265 452l-98 -174l98 -174l-84 -59l-150 168v130l150 168z" />
    <glyph glyph-name="guilsinglright" unicode="&#x203a;" horiz-adv-x="296" 
d="M265 343v-130l-150 -168l-84 59l98 174l-98 174l84 59z" />
    <glyph glyph-name="uni203D" unicode="&#x203d;" horiz-adv-x="534" 
d="M269 714q62 0 107.5 -16.5t75.5 -43.5t44.5 -61t14.5 -69q0 -43 -13.5 -73t-33.5 -51.5t-44 -37t-44 -31.5t-33.5 -34.5t-13.5 -44.5v-25h-120l-18 268v84q-20 -13 -32.5 -33.5t-21.5 -46.5l-119 37q10 31 30.5 63t51.5 57.5t73 41.5t96 16zM307 402q12 13 23.5 25.5
t20.5 25.5t15 28t6 35q0 58 -55 75v-96zM270 163q37 0 63.5 -26t26.5 -64q0 -18 -7 -34t-19.5 -28t-29 -19t-34.5 -7t-34.5 7t-29 19.5t-20 28.5t-7.5 34q0 37 27 63t64 26z" />
    <glyph glyph-name="fraction" unicode="&#x2044;" horiz-adv-x="262" 
d="M-31 -12h-109l433 724h109z" />
    <glyph glyph-name="uni2070" unicode="&#x2070;" horiz-adv-x="400" 
d="M200 763q83 0 130.5 -55.5t47.5 -165.5q0 -112 -47.5 -167.5t-130.5 -55.5q-84 0 -131 55.5t-47 167.5q0 110 46.5 165.5t131.5 55.5zM200 675q-37 0 -51 -33t-14 -99t14 -101t51 -35q35 0 50 35t15 101t-15 99t-50 33z" />
    <glyph glyph-name="uni2074" unicode="&#x2074;" horiz-adv-x="400" 
d="M331 487h55v-88h-55v-69h-108v69h-210v91l175 260h143v-263zM119 487h103v152z" />
    <glyph glyph-name="uni2075" unicode="&#x2075;" horiz-adv-x="400" 
d="M342 664h-184l-12 -76q21 17 44 24t48 7q27 0 53 -9.5t45.5 -28t31.5 -44.5t12 -59q0 -69 -47 -114t-139 -45q-73 0 -116 31t-58 74l99 31q10 -26 30.5 -38t46.5 -12q35 0 52.5 19.5t17.5 45.5q0 29 -17.5 44.5t-49.5 15.5q-24 0 -40.5 -8.5t-26.5 -21.5l-97 14l34 236
h286z" />
    <glyph glyph-name="uni2076" unicode="&#x2076;" horiz-adv-x="400" 
d="M212 763q56 0 95 -23t59 -67l-94 -32q-7 17 -23 27t-37 10q-36 0 -57.5 -27t-27.5 -90q20 29 50.5 39.5t57.5 10.5q28 0 53.5 -9t45.5 -26.5t32 -43t12 -59.5q0 -37 -13.5 -66t-37 -48.5t-55 -29.5t-68.5 -10t-70 10.5t-58 34.5t-40 64t-15 100q0 112 52.5 173.5
t138.5 61.5zM206 525q-26 0 -43 -15t-17 -44t17 -45t40 -16q24 0 41.5 16t17.5 46q0 26 -14 42t-42 16z" />
    <glyph glyph-name="uni2077" unicode="&#x2077;" horiz-adv-x="400" 
d="M368 661q-33 -38 -57 -73.5t-41.5 -73.5t-28.5 -82.5t-18 -101.5h-120q8 67 23.5 116.5t36 88t46 68.5t53.5 57h-135v-48h-95v138h336v-89z" />
    <glyph glyph-name="uni2078" unicode="&#x2078;" horiz-adv-x="400" 
d="M198 319q-51 0 -86.5 11.5t-58 29.5t-32.5 40t-10 43q0 36 20.5 63.5t60.5 42.5q-35 22 -46 46t-11 50q0 22 10 43.5t30 38t50.5 26.5t72.5 10q43 0 74 -10t51.5 -25.5t30.5 -35.5t10 -40q0 -24 -15.5 -50t-48.5 -41q26 -10 43 -20.5t27 -23.5t14 -29t4 -35
q0 -23 -9 -46.5t-31 -43t-58.5 -32t-91.5 -12.5zM221 589q19 14 26.5 27.5t7.5 26.5q0 19 -14.5 29.5t-40.5 10.5q-25 0 -40 -10.5t-15 -29.5q0 -18 12 -29t42 -19zM199 406q41 0 57.5 14.5t16.5 31.5q0 23 -17.5 34t-59.5 22l-33 9q-17 -13 -27 -28t-10 -34q0 -23 19.5 -36
t53.5 -13z" />
    <glyph glyph-name="uni2079" unicode="&#x2079;" horiz-adv-x="400" 
d="M184 317q-58 0 -98.5 24.5t-59.5 62.5l92 37q20 -40 68 -40q41 0 61 29t23 90q-20 -28 -49 -38.5t-58 -10.5q-27 0 -53 9t-45.5 26.5t-31.5 44t-12 61.5q0 36 13.5 63.5t37 47t55.5 29.5t68 10q37 0 70.5 -10.5t58.5 -34.5t39.5 -64t14.5 -99q0 -112 -48.5 -174.5
t-145.5 -62.5zM194 558q27 0 43.5 15.5t16.5 44.5t-16.5 43.5t-39.5 14.5q-25 0 -43 -15t-18 -46q0 -24 14 -40.5t43 -16.5z" />
    <glyph glyph-name="uni207A" unicode="&#x207a;" horiz-adv-x="384" 
d="M242 568h97v-85h-97v-97h-98v97h-98v85h98v97h98v-97z" />
    <glyph glyph-name="uni207B" unicode="&#x207b;" horiz-adv-x="384" 
d="M339 483h-293v85h293v-85z" />
    <glyph glyph-name="uni207C" unicode="&#x207c;" horiz-adv-x="384" 
d="M339 554h-293v86h293v-86zM339 411h-293v86h293v-86z" />
    <glyph glyph-name="uni2080" unicode="&#x2080;" horiz-adv-x="400" 
d="M200 267q83 0 130.5 -55.5t47.5 -165.5q0 -112 -47.5 -167.5t-130.5 -55.5q-84 0 -131 55.5t-47 167.5q0 110 46.5 165.5t131.5 55.5zM200 179q-37 0 -51 -33t-14 -99t14 -101t51 -35q35 0 50 35t15 101t-15 99t-50 33z" />
    <glyph glyph-name="uni2081" unicode="&#x2081;" horiz-adv-x="400" 
d="M64 -77h106v180h-108v74h10q33 0 54.5 5.5t35 16t20.5 24.5t9 31h89v-331h84v-89h-300v89z" />
    <glyph glyph-name="uni2082" unicode="&#x2082;" horiz-adv-x="400" 
d="M201 267q37 0 67 -10t51 -27t32 -40.5t11 -51.5q0 -66 -44.5 -115.5t-137.5 -99.5h187v-89h-336v86q59 40 99.5 70t65.5 55t36 46t11 44q0 21 -11.5 33t-34.5 12q-52 0 -52 -70h-113q0 33 10 61.5t31 50t53 33.5t75 12z" />
    <glyph glyph-name="uni2083" unicode="&#x2083;" horiz-adv-x="400" 
d="M203 266q79 0 120.5 -33t41.5 -82q0 -38 -22.5 -61t-60.5 -32q40 -6 68 -30.5t28 -69.5q0 -63 -48 -99t-129 -36q-71 0 -118.5 31t-61.5 91l104 24q14 -58 75 -58q28 0 45 13t17 39q0 25 -17.5 37.5t-46.5 12.5h-45v80h37q22 0 41.5 9t19.5 36q0 22 -15 31.5t-36 9.5
q-23 0 -41 -11t-26 -37l-104 16q13 53 59 86t115 33z" />
    <glyph glyph-name="uni2084" unicode="&#x2084;" horiz-adv-x="400" 
d="M331 -9h55v-88h-55v-69h-108v69h-210v91l175 260h143v-263zM119 -9h103v152z" />
    <glyph glyph-name="uni2085" unicode="&#x2085;" horiz-adv-x="400" 
d="M342 168h-184l-12 -76q21 17 44 24t48 7q27 0 53 -9.5t45.5 -28t31.5 -44.5t12 -59q0 -69 -47 -114t-139 -45q-73 0 -116 31t-58 74l99 31q10 -26 30.5 -38t46.5 -12q35 0 52.5 19.5t17.5 45.5q0 29 -17.5 44.5t-49.5 15.5q-24 0 -40.5 -8.5t-26.5 -21.5l-97 14l34 236
h286z" />
    <glyph glyph-name="uni2086" unicode="&#x2086;" horiz-adv-x="400" 
d="M212 267q56 0 95 -23t59 -67l-94 -32q-7 17 -23 27t-37 10q-36 0 -57.5 -27t-27.5 -90q20 29 50.5 39.5t57.5 10.5q28 0 53.5 -9t45.5 -26.5t32 -43t12 -59.5q0 -37 -13.5 -66t-37 -48.5t-55 -29.5t-68.5 -10t-70 10.5t-58 34.5t-40 64t-15 100q0 112 52.5 173.5
t138.5 61.5zM206 29q-26 0 -43 -15t-17 -44t17 -45t40 -16q24 0 41.5 16t17.5 46q0 26 -14 42t-42 16z" />
    <glyph glyph-name="uni2087" unicode="&#x2087;" horiz-adv-x="400" 
d="M368 165q-33 -38 -57 -73.5t-41.5 -73.5t-28.5 -82.5t-18 -101.5h-120q8 67 23.5 116.5t36 88t46 68.5t53.5 57h-135v-48h-95v138h336v-89z" />
    <glyph glyph-name="uni2088" unicode="&#x2088;" horiz-adv-x="400" 
d="M198 -177q-51 0 -86.5 11.5t-58 29.5t-32.5 40t-10 43q0 36 20.5 63.5t60.5 42.5q-35 22 -46 46t-11 50q0 22 10 43.5t30 38t50.5 26.5t72.5 10q43 0 74 -10t51.5 -25.5t30.5 -35.5t10 -40q0 -24 -15.5 -50t-48.5 -41q26 -10 43 -20.5t27 -23.5t14 -29t4 -35
q0 -23 -9 -46.5t-31 -43t-58.5 -32t-91.5 -12.5zM221 93q19 14 26.5 27.5t7.5 26.5q0 19 -14.5 29.5t-40.5 10.5q-25 0 -40 -10.5t-15 -29.5q0 -18 12 -29t42 -19zM199 -90q41 0 57.5 14.5t16.5 31.5q0 23 -17.5 34t-59.5 22l-33 9q-17 -13 -27 -28t-10 -34q0 -23 19.5 -36
t53.5 -13z" />
    <glyph glyph-name="uni2089" unicode="&#x2089;" horiz-adv-x="400" 
d="M184 -179q-58 0 -98.5 24.5t-59.5 62.5l92 37q20 -40 68 -40q41 0 61 29t23 90q-20 -28 -49 -38.5t-58 -10.5q-27 0 -53 9t-45.5 26.5t-31.5 44t-12 61.5q0 36 13.5 63.5t37 47t55.5 29.5t68 10q37 0 70.5 -10.5t58.5 -34.5t39.5 -64t14.5 -99q0 -112 -48.5 -174.5
t-145.5 -62.5zM194 62q27 0 43.5 15.5t16.5 44.5t-16.5 43.5t-39.5 14.5q-25 0 -43 -15t-18 -46q0 -24 14 -40.5t43 -16.5z" />
    <glyph glyph-name="uni208A" unicode="&#x208a;" horiz-adv-x="384" 
d="M242 79h97v-85h-97v-97h-98v97h-98v85h98v97h98v-97z" />
    <glyph glyph-name="uni208B" unicode="&#x208b;" horiz-adv-x="384" 
d="M339 -6h-293v85h293v-85z" />
    <glyph glyph-name="uni208C" unicode="&#x208c;" horiz-adv-x="384" 
d="M339 59h-293v86h293v-86zM339 -84h-293v86h293v-86z" />
    <glyph glyph-name="uni208D" unicode="&#x208d;" horiz-adv-x="300" 
d="M240 296q-20 -37 -33 -67.5t-21 -59t-11.5 -58t-3.5 -64.5t3.5 -64t11.5 -57.5t21 -59t33 -67.5h-79q-45 59 -68 123.5t-23 124.5t23 125t69 124h78z" />
    <glyph glyph-name="uni208E" unicode="&#x208e;" horiz-adv-x="300" 
d="M148 296q46 -59 69 -124t23 -125t-22.5 -124.5t-68.5 -123.5h-79q20 37 33 67.5t21 59t11.5 57.5t3.5 64t-3.5 64.5t-11.5 58t-21 59t-33 67.5h78z" />
    <glyph glyph-name="Euro" unicode="&#x20ac;" horiz-adv-x="588" 
d="M378 717q121 0 199 -77l-44 -112q-31 36 -65 56t-79 20q-60 0 -95.5 -40t-49.5 -109h267l-27 -79h-249q0 -14 -0.5 -27.5t0.5 -27.5h235l-26 -78h-202q11 -68 44 -107t100 -39q28 0 50.5 6.5t40.5 16t32.5 20.5t25.5 21v-126q-32 -23 -74.5 -37.5t-94.5 -14.5
q-51 0 -94.5 14t-77.5 45.5t-57.5 80.5t-34.5 120h-93l26 78h61v55h-80l26 79h62q12 67 38 116.5t61.5 82t80 48t94.5 15.5z" />
    <glyph glyph-name="uni20B9" unicode="&#x20b9;" 
d="M543 619h-136q24 -20 37.5 -45t18.5 -54h80v-79h-80q-8 -41 -30.5 -71.5t-53 -51t-65 -31t-66.5 -10.5h-17l260 -277h-178l-255 272v102h129q91 0 114 67h-243v79h249q-7 48 -41 73.5t-88 25.5h-120v81h485v-81z" />
    <glyph glyph-name="uni20BA" unicode="&#x20ba;" 
d="M546 233q-3 -51 -22.5 -96t-56 -78t-89.5 -52.5t-121 -19.5q-79 0 -130 12v305l-75 -40v79l75 40v65l-75 -39v78l75 39v174h146v-97l173 91v-78l-173 -91v-65l173 92v-78l-173 -92v-277q3 -1 6 -1h7q63 0 95.5 35t43.5 94h121z" />
    <glyph glyph-name="uni20BD" unicode="&#x20bd;" 
d="M208 261v-53h204v-78h-204v-130h-153v130h-51v78h51v53h-51v117h51v322h265q69 0 119.5 -16t83.5 -45t49 -69t16 -89q0 -106 -67.5 -163t-198.5 -57h-114zM208 378h112q22 0 42 4.5t35.5 16t24.5 31.5t9 50q0 48 -28.5 71t-78.5 23h-116v-196z" />
    <glyph glyph-name="uni2105" unicode="&#x2105;" horiz-adv-x="900" 
d="M278 -12h-109l433 724h109zM222 686q54 0 89.5 -22.5t55.5 -63.5l-76 -31q-9 21 -25.5 33t-40.5 12q-33 0 -53.5 -23.5t-20.5 -70.5t20 -71t54 -24q31 0 46.5 15.5t23.5 35.5l76 -31q-20 -42 -56.5 -67.5t-92.5 -25.5q-39 0 -70 12.5t-52.5 35t-32.5 53t-11 67.5
q0 36 11.5 66.5t32.5 52.5t52 34.5t70 12.5zM673 326q40 0 71.5 -13t53.5 -35.5t33.5 -52.5t11.5 -65q0 -75 -44.5 -121.5t-125.5 -46.5q-41 0 -72 12.5t-53 35t-33 53t-11 67.5q0 36 11.5 66.5t33 52.5t53 34.5t71.5 12.5zM674 254q-34 0 -54 -23.5t-20 -70.5t19.5 -71
t54.5 -24t55 24t20 71t-20.5 70.5t-54.5 23.5z" />
    <glyph glyph-name="uni2113" unicode="&#x2113;" 
d="M368 -18q-50 0 -83.5 14t-54.5 37t-30 52.5t-9 61.5v44l-50 -53l-41 69l90 91v249q0 84 44.5 127.5t122.5 43.5q68 0 103 -34.5t35 -93.5q0 -39 -11 -75.5t-31 -73.5t-50 -76.5t-67 -83.5v-103q0 -45 19 -63t54 -18q14 0 33 2.5t39 10.5v-107q-26 -10 -55 -15.5t-58 -5.5
zM335 407q29 45 45.5 87.5t16.5 80.5q0 52 -29 52q-14 0 -23.5 -16.5t-9.5 -58.5v-145z" />
    <glyph glyph-name="uni2116" unicode="&#x2116;" horiz-adv-x="1200" 
d="M941 369q-41 0 -72 12.5t-53 35t-33 53t-11 67.5q0 36 11.5 66.5t33 52.5t53 34.5t71.5 12.5t71.5 -13t53.5 -35.5t33.5 -52.5t11.5 -65q0 -75 -44.5 -121.5t-125.5 -46.5zM699 0h-176l-264 465v-465h-138v700h176l264 -477v477h138v-700zM941 441q35 0 55 24.5t20 71.5
t-20.5 70.5t-54.5 23.5t-54 -23.5t-20 -70.5t19.5 -71.5t54.5 -24.5zM786 309h313v-85h-313v85z" />
    <glyph glyph-name="uni2117" unicode="&#x2117;" horiz-adv-x="900" 
d="M451 -17q-80 0 -148 28t-118 77.5t-78.5 116.5t-28.5 144t28.5 144.5t78.5 117t118 78t148 28.5t148.5 -28.5t118 -78t77.5 -117t28 -144.5t-28 -144t-77.5 -116.5t-118 -77.5t-148.5 -28zM451 53q66 0 119.5 23.5t92 64t59.5 94.5t21 114t-21 114.5t-59.5 95t-92 64.5
t-119.5 24q-67 0 -121 -24.5t-92.5 -65.5t-59.5 -95t-21 -113t21 -113t59.5 -94.5t92.5 -64.5t121 -24zM312 556h166q78 0 120.5 -33.5t42.5 -94.5q0 -54 -39 -92t-120 -38h-77v-149h-93v407zM478 369q29 0 47.5 13t18.5 46q0 26 -18 40t-45 14h-76v-113h73z" />
    <glyph glyph-name="uni2120" unicode="&#x2120;" horiz-adv-x="1200" 
d="M311 711q68 0 114.5 -21t78.5 -52l-73 -59q-17 16 -45 31t-73 15q-32 0 -51 -11t-19 -28q0 -8 4 -15t15 -13t31 -12t53 -12q85 -16 124 -46t39 -89q0 -67 -52.5 -103t-140.5 -36q-61 0 -117 19.5t-94 61.5l77 62q26 -26 58.5 -42t77.5 -16q36 0 58 12t22 33q0 10 -4 17
t-15 13.5t-32 12t-54 12.5q-81 16 -121.5 47t-40.5 89q0 29 13 53t37 41t57 26.5t73 9.5zM1086 265h-108l-16 312l-82 -312h-116l-82 310l-16 -310h-105l26 435h158l79 -317l77 317h158z" />
    <glyph glyph-name="trademark" unicode="&#x2122;" horiz-adv-x="1000" 
d="M414 608h-132v-343h-112v343h-132v92h376v-92zM953 265h-107l-16 312l-83 -312h-115l-82 310l-16 -310h-106l27 435h158l78 -317l77 317h159z" />
    <glyph glyph-name="Omega" unicode="&#x2126;" horiz-adv-x="788" 
d="M394 717q64 0 126 -19t111.5 -62t80 -111.5t30.5 -167.5q0 -91 -29.5 -147t-77.5 -90h100v-120h-271v120q63 23 92 87t29 147q0 113 -50 174t-141 61q-85 0 -137.5 -59t-52.5 -173q0 -85 29 -149.5t92 -87.5v-120h-271v120h105q-52 34 -82 90.5t-30 147.5q0 96 29 164
t77.5 111.5t111 63.5t129.5 20z" />
    <glyph glyph-name="estimated" unicode="&#x212e;" horiz-adv-x="945" 
d="M472 716q80 0 153 -27.5t128.5 -77.5t88.5 -119t33 -153h-657v-218q16 -24 44.5 -42t63.5 -30.5t73.5 -18.5t73.5 -6t72.5 6t72 18t64.5 30.5t51 43.5h58q-55 -65 -134.5 -101.5t-184.5 -36.5q-86 0 -159.5 27t-127.5 75.5t-84.5 115t-30.5 145.5t31.5 146.5t86.5 117
t128 77.5t156 28zM473 676q-88 0 -152.5 -26.5t-102.5 -74.5v-196h509v196q-42 46 -104 73.5t-150 27.5z" />
    <glyph glyph-name="uni2150" unicode="&#x2150;" horiz-adv-x="1032" 
d="M359 -12h-109l433 724h109zM1000 331q-33 -38 -57 -73.5t-41.5 -73.5t-28.5 -82.5t-18 -101.5h-120q8 67 23.5 116.5t36 88t46 68.5t53.5 57h-135v-48h-95v138h336v-89zM64 369h106v180h-108v74h10q33 0 54.5 5.5t35 16t20.5 24.5t9 31h89v-331h84v-89h-300v89z" />
    <glyph glyph-name="uni2151" unicode="&#x2151;" horiz-adv-x="1002" 
d="M359 -12h-109l433 724h109zM786 -12q-58 0 -98.5 24.5t-59.5 62.5l92 37q20 -40 68 -40q41 0 61 29t23 90q-20 -28 -49 -38.5t-58 -10.5q-27 0 -53 9t-45.5 26.5t-31.5 44t-12 61.5q0 36 13.5 63.5t37 47t55.5 29.5t68 10q37 0 70.5 -10.5t58.5 -34.5t39.5 -64t14.5 -99
q0 -112 -48.5 -174.5t-145.5 -62.5zM796 229q27 0 43.5 15.5t16.5 44.5t-16.5 43.5t-39.5 14.5q-25 0 -43 -15t-18 -46q0 -24 14 -40.5t43 -16.5zM64 369h106v180h-108v74h10q33 0 54.5 5.5t35 16t20.5 24.5t9 31h89v-331h84v-89h-300v89z" />
    <glyph glyph-name="uni2152" unicode="&#x2152;" horiz-adv-x="1392" 
d="M359 -12h-109l433 724h109zM656 89h106v180h-108v74h10q33 0 54.5 5.5t35 16t20.5 24.5t9 31h89v-331h84v-89h-300v89zM1192 433q83 0 130.5 -55.5t47.5 -165.5q0 -112 -47.5 -167.5t-130.5 -55.5q-84 0 -131 55.5t-47 167.5q0 110 46.5 165.5t131.5 55.5zM1192 345
q-37 0 -51 -33t-14 -99t14 -101t51 -35q35 0 50 35t15 101t-15 99t-50 33zM64 369h106v180h-108v74h10q33 0 54.5 5.5t35 16t20.5 24.5t9 31h89v-331h84v-89h-300v89z" />
    <glyph glyph-name="onethird" unicode="&#x2153;" horiz-adv-x="1002" 
d="M359 -12h-109l433 724h109zM805 432q79 0 120.5 -33t41.5 -82q0 -38 -22.5 -61t-60.5 -32q40 -6 68 -30.5t28 -69.5q0 -63 -48 -99t-129 -36q-71 0 -118.5 31t-61.5 91l104 24q14 -58 75 -58q28 0 45 13t17 39q0 25 -17.5 37.5t-46.5 12.5h-45v80h37q22 0 41.5 9t19.5 36
q0 22 -15 31.5t-36 9.5q-23 0 -41 -11t-26 -37l-104 16q13 53 59 86t115 33zM64 369h106v180h-108v74h10q33 0 54.5 5.5t35 16t20.5 24.5t9 31h89v-331h84v-89h-300v89z" />
    <glyph glyph-name="twothirds" unicode="&#x2154;" horiz-adv-x="1002" 
d="M359 -12h-109l433 724h109zM805 432q79 0 120.5 -33t41.5 -82q0 -38 -22.5 -61t-60.5 -32q40 -6 68 -30.5t28 -69.5q0 -63 -48 -99t-129 -36q-71 0 -118.5 31t-61.5 91l104 24q14 -58 75 -58q28 0 45 13t17 39q0 25 -17.5 37.5t-46.5 12.5h-45v80h37q22 0 41.5 9t19.5 36
q0 22 -15 31.5t-36 9.5q-23 0 -41 -11t-26 -37l-104 16q13 53 59 86t115 33zM201 713q37 0 67 -10t51 -27t32 -40.5t11 -51.5q0 -66 -44.5 -115.5t-137.5 -99.5h187v-89h-336v86q59 40 99.5 70t65.5 55t36 46t11 44q0 21 -11.5 33t-34.5 12q-52 0 -52 -70h-113q0 33 10 61.5
t31 50t53 33.5t75 12z" />
    <glyph glyph-name="uni2155" unicode="&#x2155;" horiz-adv-x="1012" 
d="M359 -12h-109l433 724h109zM954 334h-184l-12 -76q21 17 44 24t48 7q27 0 53 -9.5t45.5 -28t31.5 -44.5t12 -59q0 -69 -47 -114t-139 -45q-73 0 -116 31t-58 74l99 31q10 -26 30.5 -38t46.5 -12q35 0 52.5 19.5t17.5 45.5q0 29 -17.5 44.5t-49.5 15.5q-24 0 -40.5 -8.5
t-26.5 -21.5l-97 14l34 236h286zM64 369h106v180h-108v74h10q33 0 54.5 5.5t35 16t20.5 24.5t9 31h89v-331h84v-89h-300v89z" />
    <glyph glyph-name="uni2156" unicode="&#x2156;" horiz-adv-x="1012" 
d="M359 -12h-109l433 724h109zM954 334h-184l-12 -76q21 17 44 24t48 7q27 0 53 -9.5t45.5 -28t31.5 -44.5t12 -59q0 -69 -47 -114t-139 -45q-73 0 -116 31t-58 74l99 31q10 -26 30.5 -38t46.5 -12q35 0 52.5 19.5t17.5 45.5q0 29 -17.5 44.5t-49.5 15.5q-24 0 -40.5 -8.5
t-26.5 -21.5l-97 14l34 236h286zM201 713q37 0 67 -10t51 -27t32 -40.5t11 -51.5q0 -66 -44.5 -115.5t-137.5 -99.5h187v-89h-336v86q59 40 99.5 70t65.5 55t36 46t11 44q0 21 -11.5 33t-34.5 12q-52 0 -52 -70h-113q0 33 10 61.5t31 50t53 33.5t75 12z" />
    <glyph glyph-name="uni2157" unicode="&#x2157;" horiz-adv-x="972" 
d="M319 -12h-109l433 724h109zM914 334h-184l-12 -76q21 17 44 24t48 7q27 0 53 -9.5t45.5 -28t31.5 -44.5t12 -59q0 -69 -47 -114t-139 -45q-73 0 -116 31t-58 74l99 31q10 -26 30.5 -38t46.5 -12q35 0 52.5 19.5t17.5 45.5q0 29 -17.5 44.5t-49.5 15.5q-24 0 -40.5 -8.5
t-26.5 -21.5l-97 14l34 236h286zM203 712q79 0 120.5 -33t41.5 -82q0 -38 -22.5 -61t-60.5 -32q40 -6 68 -30.5t28 -69.5q0 -63 -48 -99t-129 -36q-71 0 -118.5 31t-61.5 91l104 24q14 -58 75 -58q28 0 45 13t17 39q0 25 -17.5 37.5t-46.5 12.5h-45v80h37q22 0 41.5 9
t19.5 36q0 22 -15 31.5t-36 9.5q-23 0 -41 -11t-26 -37l-104 16q13 53 59 86t115 33z" />
    <glyph glyph-name="uni2158" unicode="&#x2158;" horiz-adv-x="1002" 
d="M349 -12h-109l433 724h109zM944 334h-184l-12 -76q21 17 44 24t48 7q27 0 53 -9.5t45.5 -28t31.5 -44.5t12 -59q0 -69 -47 -114t-139 -45q-73 0 -116 31t-58 74l99 31q10 -26 30.5 -38t46.5 -12q35 0 52.5 19.5t17.5 45.5q0 29 -17.5 44.5t-49.5 15.5q-24 0 -40.5 -8.5
t-26.5 -21.5l-97 14l34 236h286zM331 437h55v-88h-55v-69h-108v69h-210v91l175 260h143v-263zM119 437h103v152z" />
    <glyph glyph-name="uni2159" unicode="&#x2159;" horiz-adv-x="992" 
d="M359 -12h-109l433 724h109zM804 433q56 0 95 -23t59 -67l-94 -32q-7 17 -23 27t-37 10q-36 0 -57.5 -27t-27.5 -90q20 29 50.5 39.5t57.5 10.5q28 0 53.5 -9t45.5 -26.5t32 -43t12 -59.5q0 -37 -13.5 -66t-37 -48.5t-55 -29.5t-68.5 -10t-70 10.5t-58 34.5t-40 64
t-15 100q0 112 52.5 173.5t138.5 61.5zM798 195q-26 0 -43 -15t-17 -44t17 -45t40 -16q24 0 41.5 16t17.5 46q0 26 -14 42t-42 16zM64 369h106v180h-108v74h10q33 0 54.5 5.5t35 16t20.5 24.5t9 31h89v-331h84v-89h-300v89z" />
    <glyph glyph-name="uni215A" unicode="&#x215a;" horiz-adv-x="952" 
d="M319 -12h-109l433 724h109zM764 433q56 0 95 -23t59 -67l-94 -32q-7 17 -23 27t-37 10q-36 0 -57.5 -27t-27.5 -90q20 29 50.5 39.5t57.5 10.5q28 0 53.5 -9t45.5 -26.5t32 -43t12 -59.5q0 -37 -13.5 -66t-37 -48.5t-55 -29.5t-68.5 -10t-70 10.5t-58 34.5t-40 64
t-15 100q0 112 52.5 173.5t138.5 61.5zM758 195q-26 0 -43 -15t-17 -44t17 -45t40 -16q24 0 41.5 16t17.5 46q0 26 -14 42t-42 16zM342 614h-184l-12 -76q21 17 44 24t48 7q27 0 53 -9.5t45.5 -28t31.5 -44.5t12 -59q0 -69 -47 -114t-139 -45q-73 0 -116 31t-58 74l99 31
q10 -26 30.5 -38t46.5 -12q35 0 52.5 19.5t17.5 45.5q0 29 -17.5 44.5t-49.5 15.5q-24 0 -40.5 -8.5t-26.5 -21.5l-97 14l34 236h286z" />
    <glyph glyph-name="oneeighth" unicode="&#x215b;" horiz-adv-x="1002" 
d="M359 -12h-109l433 724h109zM800 -11q-51 0 -86.5 11.5t-58 29.5t-32.5 40t-10 43q0 36 20.5 63.5t60.5 42.5q-35 22 -46 46t-11 50q0 22 10 43.5t30 38t50.5 26.5t72.5 10q43 0 74 -10t51.5 -25.5t30.5 -35.5t10 -40q0 -24 -15.5 -50t-48.5 -41q26 -10 43 -20.5t27 -23.5
t14 -29t4 -35q0 -23 -9 -46.5t-31 -43t-58.5 -32t-91.5 -12.5zM823 259q19 14 26.5 27.5t7.5 26.5q0 19 -14.5 29.5t-40.5 10.5q-25 0 -40 -10.5t-15 -29.5q0 -18 12 -29t42 -19zM801 76q41 0 57.5 14.5t16.5 31.5q0 23 -17.5 34t-59.5 22l-33 9q-17 -13 -27 -28t-10 -34
q0 -23 19.5 -36t53.5 -13zM64 369h106v180h-108v74h10q33 0 54.5 5.5t35 16t20.5 24.5t9 31h89v-331h84v-89h-300v89z" />
    <glyph glyph-name="threeeighths" unicode="&#x215c;" horiz-adv-x="962" 
d="M319 -12h-109l433 724h109zM760 -11q-51 0 -86.5 11.5t-58 29.5t-32.5 40t-10 43q0 36 20.5 63.5t60.5 42.5q-35 22 -46 46t-11 50q0 22 10 43.5t30 38t50.5 26.5t72.5 10q43 0 74 -10t51.5 -25.5t30.5 -35.5t10 -40q0 -24 -15.5 -50t-48.5 -41q26 -10 43 -20.5t27 -23.5
t14 -29t4 -35q0 -23 -9 -46.5t-31 -43t-58.5 -32t-91.5 -12.5zM783 259q19 14 26.5 27.5t7.5 26.5q0 19 -14.5 29.5t-40.5 10.5q-25 0 -40 -10.5t-15 -29.5q0 -18 12 -29t42 -19zM761 76q41 0 57.5 14.5t16.5 31.5q0 23 -17.5 34t-59.5 22l-33 9q-17 -13 -27 -28t-10 -34
q0 -23 19.5 -36t53.5 -13zM203 712q79 0 120.5 -33t41.5 -82q0 -38 -22.5 -61t-60.5 -32q40 -6 68 -30.5t28 -69.5q0 -63 -48 -99t-129 -36q-71 0 -118.5 31t-61.5 91l104 24q14 -58 75 -58q28 0 45 13t17 39q0 25 -17.5 37.5t-46.5 12.5h-45v80h37q22 0 41.5 9t19.5 36
q0 22 -15 31.5t-36 9.5q-23 0 -41 -11t-26 -37l-104 16q13 53 59 86t115 33z" />
    <glyph glyph-name="fiveeighths" unicode="&#x215d;" horiz-adv-x="962" 
d="M319 -12h-109l433 724h109zM760 -11q-51 0 -86.5 11.5t-58 29.5t-32.5 40t-10 43q0 36 20.5 63.5t60.5 42.5q-35 22 -46 46t-11 50q0 22 10 43.5t30 38t50.5 26.5t72.5 10q43 0 74 -10t51.5 -25.5t30.5 -35.5t10 -40q0 -24 -15.5 -50t-48.5 -41q26 -10 43 -20.5t27 -23.5
t14 -29t4 -35q0 -23 -9 -46.5t-31 -43t-58.5 -32t-91.5 -12.5zM783 259q19 14 26.5 27.5t7.5 26.5q0 19 -14.5 29.5t-40.5 10.5q-25 0 -40 -10.5t-15 -29.5q0 -18 12 -29t42 -19zM761 76q41 0 57.5 14.5t16.5 31.5q0 23 -17.5 34t-59.5 22l-33 9q-17 -13 -27 -28t-10 -34
q0 -23 19.5 -36t53.5 -13zM342 614h-184l-12 -76q21 17 44 24t48 7q27 0 53 -9.5t45.5 -28t31.5 -44.5t12 -59q0 -69 -47 -114t-139 -45q-73 0 -116 31t-58 74l99 31q10 -26 30.5 -38t46.5 -12q35 0 52.5 19.5t17.5 45.5q0 29 -17.5 44.5t-49.5 15.5q-24 0 -40.5 -8.5
t-26.5 -21.5l-97 14l34 236h286z" />
    <glyph glyph-name="seveneighths" unicode="&#x215e;" horiz-adv-x="912" 
d="M269 -12h-109l433 724h109zM710 -11q-51 0 -86.5 11.5t-58 29.5t-32.5 40t-10 43q0 36 20.5 63.5t60.5 42.5q-35 22 -46 46t-11 50q0 22 10 43.5t30 38t50.5 26.5t72.5 10q43 0 74 -10t51.5 -25.5t30.5 -35.5t10 -40q0 -24 -15.5 -50t-48.5 -41q26 -10 43 -20.5t27 -23.5
t14 -29t4 -35q0 -23 -9 -46.5t-31 -43t-58.5 -32t-91.5 -12.5zM733 259q19 14 26.5 27.5t7.5 26.5q0 19 -14.5 29.5t-40.5 10.5q-25 0 -40 -10.5t-15 -29.5q0 -18 12 -29t42 -19zM711 76q41 0 57.5 14.5t16.5 31.5q0 23 -17.5 34t-59.5 22l-33 9q-17 -13 -27 -28t-10 -34
q0 -23 19.5 -36t53.5 -13zM368 611q-33 -38 -57 -73.5t-41.5 -73.5t-28.5 -82.5t-18 -101.5h-120q8 67 23.5 116.5t36 88t46 68.5t53.5 57h-135v-48h-95v138h336v-89z" />
    <glyph glyph-name="uni215F" unicode="&#x215f;" horiz-adv-x="652" 
d="M359 -12h-109l433 724h109zM64 369h106v180h-108v74h10q33 0 54.5 5.5t35 16t20.5 24.5t9 31h89v-331h84v-89h-300v89z" />
    <glyph glyph-name="uni2189" unicode="&#x2189;" horiz-adv-x="952" 
d="M309 -12h-109l433 724h109zM755 432q79 0 120.5 -33t41.5 -82q0 -38 -22.5 -61t-60.5 -32q40 -6 68 -30.5t28 -69.5q0 -63 -48 -99t-129 -36q-71 0 -118.5 31t-61.5 91l104 24q14 -58 75 -58q28 0 45 13t17 39q0 25 -17.5 37.5t-46.5 12.5h-45v80h37q22 0 41.5 9t19.5 36
q0 22 -15 31.5t-36 9.5q-23 0 -41 -11t-26 -37l-104 16q13 53 59 86t115 33zM200 713q83 0 130.5 -55.5t47.5 -165.5q0 -112 -47.5 -167.5t-130.5 -55.5q-84 0 -131 55.5t-47 167.5q0 110 46.5 165.5t131.5 55.5zM200 625q-37 0 -51 -33t-14 -99t14 -101t51 -35q35 0 50 35
t15 101t-15 99t-50 33z" />
    <glyph glyph-name="arrowleft" unicode="&#x2190;" horiz-adv-x="900" 
d="M501 586l-191 -199h491v-116h-491l191 -199l-97 -82l-305 339l305 339z" />
    <glyph glyph-name="arrowup" unicode="&#x2191;" horiz-adv-x="900" 
d="M790 388l-79 -90l-196 185v-483h-131v483l-195 -185l-80 90l341 307z" />
    <glyph glyph-name="arrowright" unicode="&#x2192;" horiz-adv-x="900" 
d="M801 329l-305 -339l-97 82l191 199h-491v116h491l-191 199l97 82z" />
    <glyph glyph-name="arrowdown" unicode="&#x2193;" horiz-adv-x="900" 
d="M515 166l196 185l79 -90l-340 -307l-341 307l80 90l195 -185v483h131v-483z" />
    <glyph glyph-name="arrowboth" unicode="&#x2194;" horiz-adv-x="1280" 
d="M1186 329l-306 -339l-96 82l191 199h-670l191 -199l-97 -82l-305 339l305 339l97 -82l-191 -199h670l-191 199l96 82z" />
    <glyph glyph-name="arrowupdn" unicode="&#x2195;" horiz-adv-x="900" 
d="M790 575l-79 -88l-196 185v-662l196 184l79 -88l-340 -306l-341 306l80 88l195 -184v662l-195 -185l-80 88l341 306z" />
    <glyph glyph-name="uni2196" unicode="&#x2196;" horiz-adv-x="909" 
d="M665 497l-278 -2l352 -355l-89 -87l-349 351l-3 -274l-128 5l24 457l463 25z" />
    <glyph glyph-name="uni2197" unicode="&#x2197;" horiz-adv-x="909" 
d="M714 592l25 -457l-128 -5l-3 274l-349 -351l-89 87l352 355l-278 2l7 120z" />
    <glyph glyph-name="uni2198" unicode="&#x2198;" horiz-adv-x="909" 
d="M608 231l3 273l128 -4l-25 -458l-463 -25l-7 121l278 2l-352 354l89 87z" />
    <glyph glyph-name="uni2199" unicode="&#x2199;" horiz-adv-x="909" 
d="M739 494l-352 -354l278 -2l-8 -121l-463 25l-24 458l128 4l3 -273l349 350z" />
    <glyph glyph-name="partialdiff" unicode="&#x2202;" horiz-adv-x="638" 
d="M127 716q110 0 196.5 -25t146.5 -74.5t92 -124.5t32 -176q0 -89 -21.5 -152t-59.5 -103t-90.5 -59t-113.5 -19t-111.5 17t-87 48.5t-56.5 76t-20 100.5q0 58 19 102t51.5 73.5t74.5 44.5t88 15q54 0 100 -19t73 -58q-6 61 -29.5 103t-63.5 68t-95.5 37t-124.5 11v114z
M307 344q-61 0 -91 -35t-30 -85q0 -61 36 -93t90 -32t86.5 32t32.5 91q0 56 -34.5 89t-89.5 33z" />
    <glyph glyph-name="emptyset" unicode="&#x2205;" horiz-adv-x="900" 
d="M691 627q58 -51 91.5 -122t33.5 -156q0 -77 -28.5 -143.5t-78 -116t-116 -77.5t-142.5 -28q-54 0 -104 14.5t-93 41.5l-41 -56h-86l73 98q-54 50 -85 118t-31 149q0 77 29 144t78.5 116.5t116.5 78t143 28.5q51 0 96.5 -12.5t86.5 -35.5l35 47h87zM196 349
q0 -52 18.5 -97t51.5 -80l302 406q-53 29 -117 29q-54 0 -100.5 -20.5t-81 -55.5t-54 -82t-19.5 -100zM451 93q53 0 99 20t80 54.5t53.5 81.5t19.5 100q0 56 -21 104.5t-58 83.5l-304 -409q29 -17 62 -26t69 -9z" />
    <glyph glyph-name="Delta" unicode="&#x2206;" horiz-adv-x="648" 
d="M647 0h-646l227 700h192zM451 121l-130 461l-131 -461h261z" />
    <glyph glyph-name="product" unicode="&#x220f;" horiz-adv-x="638" 
d="M606 585h-73v-585h-146v585h-137v-585h-146v585h-73v115h575v-115z" />
    <glyph glyph-name="summation" unicode="&#x2211;" 
d="M551 585h-330l178 -177v-97l-179 -194h331v-117h-502v106l233 253l-233 233v108h502v-115z" />
    <glyph glyph-name="minus" unicode="&#x2212;" 
d="M515 230h-430v123h430v-123z" />
    <glyph glyph-name="uni2215" unicode="&#x2215;" 
d="M138 -12h-109l433 724h109z" />
    <glyph glyph-name="uni2219" unicode="&#x2219;" 
d="M300 415q25 0 47.5 -9.5t39 -26.5t26.5 -39.5t10 -47.5q0 -24 -10 -46t-26.5 -38.5t-39 -26.5t-47.5 -10t-47.5 10t-39.5 26.5t-27 38.5t-10 47t10 47.5t27 39t39.5 26t47.5 9.5z" />
    <glyph glyph-name="radical" unicode="&#x221a;" 
d="M725 752h-189l-209 -752h-156l-188 522h146l112 -368l191 713h293v-115z" />
    <glyph glyph-name="infinity" unicode="&#x221e;" horiz-adv-x="913" 
d="M648 481q54 0 94.5 -17t68.5 -46.5t42 -68.5t14 -84t-15 -84t-43.5 -68t-70.5 -46t-95 -17q-66 0 -110 30.5t-76 85.5q-17 -25 -35.5 -46.5t-41 -37t-51 -24t-64.5 -8.5q-53 0 -94 17t-68.5 46.5t-41.5 68.5t-14 84t15 84t43.5 68t70 46t95.5 17q65 0 109 -30.5t76 -86.5
q16 25 34.5 46.5t41.5 37.5t51.5 24.5t64.5 8.5zM280 368q-38 0 -64 -25.5t-26 -76.5t24 -76.5t62 -25.5q24 0 42 9.5t31.5 25.5t24 36t18.5 41q-8 17 -18 33.5t-23 29.5t-30 21t-41 8zM637 367q-24 0 -42 -9.5t-32 -25.5t-24 -36t-18 -41q8 -17 17.5 -33.5t22.5 -29.5
t30.5 -21t41.5 -8q37 0 63.5 25.5t26.5 76.5t-24 76.5t-62 25.5z" />
    <glyph glyph-name="integral" unicode="&#x222b;" horiz-adv-x="300" 
d="M271 852q30 0 58 -5t48 -11v-113q-16 5 -39 10.5t-46 5.5q-30 0 -49.5 -11.5t-19.5 -43.5v-742q0 -33 -12 -61.5t-36 -49t-59.5 -32.5t-83.5 -12q-33 0 -61.5 5t-48.5 11v112q17 -5 39.5 -10t45.5 -5q29 0 49.5 12t20.5 48v741q0 32 12 59.5t36.5 48t61 32t84.5 11.5z
" />
    <glyph glyph-name="congruent" unicode="&#x2245;" 
d="M521 311h-430v123h430v-123zM521 89h-430v123h430v-123zM215 701q33 0 58.5 -9t45.5 -20t37.5 -20t34.5 -9q29 0 48.5 17t32.5 39l75 -65q-11 -20 -26 -39t-35 -34t-45.5 -24t-55.5 -9q-32 0 -57 9t-46 20t-38.5 20t-34.5 9q-29 0 -48.5 -17t-32.5 -40l-75 65
q11 20 26 39t34.5 34t44.5 24.5t57 9.5z" />
    <glyph glyph-name="approxequal" unicode="&#x2248;" 
d="M215 498q33 0 58.5 -9t45.5 -20t37.5 -20t34.5 -9q29 0 48.5 17t32.5 39l75 -65q-11 -20 -26 -39t-35 -34t-45.5 -24t-55.5 -9q-32 0 -57 9t-46 20t-38.5 20t-34.5 9q-29 0 -48.5 -17t-32.5 -40l-75 65q11 20 26 39t34.5 34t44.5 24.5t57 9.5zM215 299q33 0 58.5 -9
t45.5 -20t37.5 -20t34.5 -9q29 0 48.5 17t32.5 39l75 -65q-11 -20 -26 -39t-35 -34t-45.5 -24t-55.5 -9q-32 0 -57 9t-46 20t-38.5 20t-34.5 9q-29 0 -48.5 -17t-32.5 -40l-75 65q11 20 26 39t34.5 34t44.5 24.5t57 9.5z" />
    <glyph glyph-name="uni2259" unicode="&#x2259;" 
d="M483 531h-126l-59 80l-60 -80h-126l130 169h114zM515 352h-430v123h430v-123zM515 130h-430v123h430v-123z" />
    <glyph glyph-name="notequal" unicode="&#x2260;" 
d="M379 352l-58 -99h194v-123h-266l-66 -113h-96l67 113h-69v123h141l58 99h-199v123h272l62 106h94l-62 -106h64v-123h-136z" />
    <glyph glyph-name="lessequal" unicode="&#x2264;" 
d="M515 475l-305 -88l305 -89v-143l-430 152v159l430 152v-143zM515 0h-430v123h430v-123z" />
    <glyph glyph-name="greaterequal" unicode="&#x2265;" 
d="M515 466v-159l-430 -152v143l304 89l-304 88v143zM515 0h-430v123h430v-123z" />
    <glyph glyph-name="dotmath" unicode="&#x22c5;" 
d="M300 395q19 0 36 -7.5t30 -20t20.5 -30t7.5 -36.5t-7.5 -36t-20.5 -29.5t-30 -20t-36 -7.5t-36.5 7.5t-30.5 20.5t-20.5 30t-7.5 36t7.5 36t20.5 29.5t30.5 20t36.5 7.5z" />
    <glyph glyph-name="uni2460" unicode="&#x2460;" horiz-adv-x="900" 
d="M319.176 239.9h96.3535v163.62h-98.1719v67.2656h9.08984q29.9971 0 49.541 4.99902q19.543 5 31.8145 14.5439q12.2715 9.54492 18.6348 22.2705t8.18066 28.1787h80.9014v-300.878h76.3555v-80.9004h-272.699v80.9004zM451 717q80 0 148.5 -28.5t118 -78t77.5 -117
t28 -144.5t-28 -144t-77.5 -116.5t-118 -77.5t-148.5 -28t-148 28t-118 77.5t-78.5 116.5t-28.5 144t28.5 144.5t78.5 117t118 78t148 28.5zM451 647q-65 0 -119 -24t-93 -64.5t-60.5 -95t-21.5 -114.5t21.5 -114t60.5 -94.5t93 -64t119 -23.5q66 0 119.5 23.5t92 64
t59.5 94.5t21 114t-21 114.5t-59.5 95t-92 64.5t-119.5 24z" />
    <glyph glyph-name="uni2461" unicode="&#x2461;" horiz-adv-x="900" 
d="M450.708 552.596q33.6328 0 60.9033 -9.08984q27.2695 -9.08984 46.3584 -24.543t29.0879 -36.8145t9.99902 -46.8135q0 -59.9941 -40.4502 -104.989t-124.987 -90.4453h169.982v-80.9004h-305.423v78.1738q53.6309 36.3594 90.4453 63.6299
q36.8145 27.2695 59.5391 49.9941q22.7256 22.7256 32.7236 41.8145q9.99902 19.0889 9.99902 39.9961q0 19.0889 -10.4531 29.9961q-10.4531 10.9082 -31.3604 10.9082q-47.2676 0 -47.2676 -63.6299h-102.717q0 29.9971 9.08984 55.9033t28.1787 45.4502
q19.0889 19.543 48.1768 30.4512t68.1748 10.9082zM451 717q80 0 148.5 -28.5t118 -78t77.5 -117t28 -144.5t-28 -144t-77.5 -116.5t-118 -77.5t-148.5 -28t-148 28t-118 77.5t-78.5 116.5t-28.5 144t28.5 144.5t78.5 117t118 78t148 28.5zM451 647q-65 0 -119 -24
t-93 -64.5t-60.5 -95t-21.5 -114.5t21.5 -114t60.5 -94.5t93 -64t119 -23.5q66 0 119.5 23.5t92 64t59.5 94.5t21 114t-21 114.5t-59.5 95t-92 64.5t-119.5 24z" />
    <glyph glyph-name="uni2462" unicode="&#x2462;" horiz-adv-x="900" 
d="M452.526 551.687q71.8105 0 109.534 -29.9971t37.7236 -74.5371q0 -34.542 -20.4531 -55.4492q-20.4521 -20.9072 -54.9941 -29.0879q36.3604 -5.4541 61.8115 -27.7246q25.4521 -22.2705 25.4521 -63.1748q0 -57.2666 -43.6318 -89.9912
q-43.6318 -32.7236 -117.261 -32.7236q-64.5381 0 -107.716 28.1787t-55.9033 82.7188l94.5361 21.8164q12.7256 -52.7217 68.1738 -52.7217q25.4521 0 40.9053 11.8164q15.4531 11.8174 15.4531 35.4512q0 22.7246 -15.9072 34.0869q-15.9082 11.3623 -42.2686 11.3623
h-40.9053v72.7197h33.6328q19.998 0 37.7236 8.18164q17.7256 8.18066 17.7256 32.7236q0 19.998 -13.6348 28.6338q-13.6348 8.63477 -32.7246 8.63477q-20.9062 0 -37.2686 -9.99902q-16.3613 -9.99902 -23.6338 -33.6328l-94.5352 14.5439
q11.8164 48.1768 53.6309 78.1738q41.8135 29.9971 104.534 29.9971zM451 717q80 0 148.5 -28.5t118 -78t77.5 -117t28 -144.5t-28 -144t-77.5 -116.5t-118 -77.5t-148.5 -28t-148 28t-118 77.5t-78.5 116.5t-28.5 144t28.5 144.5t78.5 117t118 78t148 28.5zM451 647
q-65 0 -119 -24t-93 -64.5t-60.5 -95t-21.5 -114.5t21.5 -114t60.5 -94.5t93 -64t119 -23.5q66 0 119.5 23.5t92 64t59.5 94.5t21 114t-21 114.5t-59.5 95t-92 64.5t-119.5 24z" />
    <glyph glyph-name="uni2463" unicode="&#x2463;" horiz-adv-x="900" 
d="M557.878 301.713h49.9951v-79.9922h-49.9951v-62.7207h-98.1719v62.7207h-190.889v82.7188l159.074 236.339h129.986v-239.065zM365.171 301.713h93.626v138.167zM451 717q80 0 148.5 -28.5t118 -78t77.5 -117t28 -144.5t-28 -144t-77.5 -116.5t-118 -77.5t-148.5 -28
t-148 28t-118 77.5t-78.5 116.5t-28.5 144t28.5 144.5t78.5 117t118 78t148 28.5zM451 647q-65 0 -119 -24t-93 -64.5t-60.5 -95t-21.5 -114.5t21.5 -114t60.5 -94.5t93 -64t119 -23.5q66 0 119.5 23.5t92 64t59.5 94.5t21 114t-21 114.5t-59.5 95t-92 64.5t-119.5 24z" />
    <glyph glyph-name="uni2464" unicode="&#x2464;" horiz-adv-x="900" 
d="M576.877 462.604h-167.256l-10.9072 -69.083q19.0889 15.4521 39.9951 21.8154q20.9072 6.36328 43.6318 6.36328q24.543 0 48.1768 -8.63574q23.6348 -8.63574 41.3594 -25.4521q17.7256 -16.8164 28.6338 -40.4502t10.9082 -53.6309q0 -62.7207 -42.7227 -103.625
q-42.7236 -40.9053 -126.351 -40.9053q-66.3574 0 -105.444 28.1787t-52.7217 67.2656l89.9912 28.1797q9.08984 -23.6348 27.7236 -34.542q18.6348 -10.9082 42.2686 -10.9082q31.8154 0 47.7227 17.7256t15.9072 41.3594q0 26.3604 -15.9072 40.4502
q-15.9072 14.0889 -44.9951 14.0889q-21.8164 0 -36.8145 -7.72559q-14.999 -7.72656 -24.0889 -19.5439l-88.1729 12.7266l30.9062 214.522h259.973zM451 717q80 0 148.5 -28.5t118 -78t77.5 -117t28 -144.5t-28 -144t-77.5 -116.5t-118 -77.5t-148.5 -28t-148 28
t-118 77.5t-78.5 116.5t-28.5 144t28.5 144.5t78.5 117t118 78t148 28.5zM451 647q-65 0 -119 -24t-93 -64.5t-60.5 -95t-21.5 -114.5t21.5 -114t60.5 -94.5t93 -64t119 -23.5q66 0 119.5 23.5t92 64t59.5 94.5t21 114t-21 114.5t-59.5 95t-92 64.5t-119.5 24z" />
    <glyph glyph-name="uni2465" unicode="&#x2465;" horiz-adv-x="900" 
d="M455.707 552.596q50.9043 0 86.3545 -20.9072q35.4512 -20.9072 53.6309 -60.9023l-85.4453 -29.0879q-6.36328 15.4521 -20.9072 24.543q-14.5439 9.08984 -33.6328 9.08984q-32.7236 0 -52.2666 -24.543q-19.5439 -24.543 -24.998 -81.8096
q18.1797 26.3604 45.9043 35.9053q27.7246 9.54395 52.2676 9.54395q25.4521 0 48.6309 -8.18066q23.1797 -8.18066 41.3594 -24.0889q18.1807 -15.9072 29.0879 -39.0859q10.9082 -23.1797 10.9082 -54.0859q0 -33.6328 -12.2715 -59.9932
q-12.2715 -26.3613 -33.6328 -44.0869t-49.9951 -26.8154q-28.6328 -9.08984 -62.2656 -9.08984t-63.6299 9.54492q-29.9971 9.54395 -52.7217 31.3604q-22.7256 21.8154 -36.3604 58.1758q-13.6348 36.3594 -13.6348 90.8994q0 101.808 47.7227 157.711
q47.7217 55.9033 125.896 55.9033zM450.253 336.254q-23.6338 0 -39.0869 -13.6348q-15.4521 -13.6348 -15.4521 -39.9961q0 -26.3604 15.4521 -40.9043q15.4531 -14.5439 36.3604 -14.5439q21.8154 0 37.7236 14.5439q15.9072 14.5439 15.9072 41.8135
q0 23.6338 -12.7256 38.1777q-12.7266 14.5439 -38.1787 14.5439zM451 717q80 0 148.5 -28.5t118 -78t77.5 -117t28 -144.5t-28 -144t-77.5 -116.5t-118 -77.5t-148.5 -28t-148 28t-118 77.5t-78.5 116.5t-28.5 144t28.5 144.5t78.5 117t118 78t148 28.5zM451 647
q-65 0 -119 -24t-93 -64.5t-60.5 -95t-21.5 -114.5t21.5 -114t60.5 -94.5t93 -64t119 -23.5q66 0 119.5 23.5t92 64t59.5 94.5t21 114t-21 114.5t-59.5 95t-92 64.5t-119.5 24z" />
    <glyph glyph-name="uni2466" unicode="&#x2466;" horiz-adv-x="900" 
d="M607.511 459.878q-29.9971 -34.542 -51.8125 -66.8115q-21.8164 -32.2695 -37.7236 -66.8105q-15.9072 -34.542 -25.9062 -74.9932q-9.99902 -40.4502 -16.3623 -92.2627h-109.079q7.27148 60.9023 21.3613 105.898q14.0889 44.9951 32.7236 79.9912t41.8135 62.2666
q23.1797 27.2695 48.6318 51.8125h-122.715v-43.6318h-86.3545v125.441h305.423v-80.9004zM451 717q80 0 148.5 -28.5t118 -78t77.5 -117t28 -144.5t-28 -144t-77.5 -116.5t-118 -77.5t-148.5 -28t-148 28t-118 77.5t-78.5 116.5t-28.5 144t28.5 144.5t78.5 117t118 78
t148 28.5zM451 647q-65 0 -119 -24t-93 -64.5t-60.5 -95t-21.5 -114.5t21.5 -114t60.5 -94.5t93 -64t119 -23.5q66 0 119.5 23.5t92 64t59.5 94.5t21 114t-21 114.5t-59.5 95t-92 64.5t-119.5 24z" />
    <glyph glyph-name="uni2467" unicode="&#x2467;" horiz-adv-x="900" 
d="M447.981 149.001q-46.3594 0 -78.6279 10.4531q-32.2695 10.4541 -52.7227 26.8154q-20.4521 16.3623 -29.542 36.3604t-9.08984 39.0869q0 32.7236 18.6348 57.7207q18.6338 24.998 54.9941 38.6328q-31.8154 19.998 -41.8145 41.8135
q-9.99902 21.8164 -9.99902 45.4502q0 19.998 9.09082 39.541q9.08984 19.5439 27.2695 34.542q18.1797 14.999 45.9043 24.0889t65.9023 9.08984q39.0869 0 67.2656 -9.08984t46.8135 -23.1797t27.7246 -32.2695t9.08984 -36.3594q0 -21.8164 -14.0898 -45.4502
q-14.0889 -23.6338 -44.0859 -37.2686q23.6338 -9.08984 39.0869 -18.6348q15.4521 -9.54492 24.543 -21.3613q9.08984 -11.8174 12.7256 -26.3613t3.63574 -31.8145q0 -20.9072 -8.18066 -42.2686t-28.1787 -39.0869t-53.1768 -29.0879
q-33.1777 -11.3623 -83.1729 -11.3623zM468.889 394.43q17.2705 12.7266 24.0879 24.998t6.81738 24.0879q0 17.2715 -13.1807 26.8154q-13.1797 9.54492 -36.8145 9.54492q-22.7246 0 -36.3594 -9.54492q-13.6348 -9.54395 -13.6348 -26.8154q0 -16.3613 10.9082 -26.3604
q10.9072 -9.99902 38.1777 -17.2715zM448.891 228.084q37.2686 0 52.2666 13.1807q14.999 13.1797 14.999 28.6328q0 20.9072 -15.9072 30.9062q-15.9082 9.99902 -54.0859 19.998l-29.9971 8.18066q-15.4521 -11.8174 -24.543 -25.4521
q-9.08984 -13.6348 -9.08984 -30.9053q0 -20.9072 17.7256 -32.7246q17.7256 -11.8164 48.6318 -11.8164zM451 717q80 0 148.5 -28.5t118 -78t77.5 -117t28 -144.5t-28 -144t-77.5 -116.5t-118 -77.5t-148.5 -28t-148 28t-118 77.5t-78.5 116.5t-28.5 144t28.5 144.5
t78.5 117t118 78t148 28.5zM451 647q-65 0 -119 -24t-93 -64.5t-60.5 -95t-21.5 -114.5t21.5 -114t60.5 -94.5t93 -64t119 -23.5q66 0 119.5 23.5t92 64t59.5 94.5t21 114t-21 114.5t-59.5 95t-92 64.5t-119.5 24z" />
    <glyph glyph-name="uni2468" unicode="&#x2468;" horiz-adv-x="900" 
d="M436.256 148.092q-52.7227 0 -89.5371 22.2705q-36.8135 22.2705 -54.085 56.8125l83.6279 33.6328q18.1797 -36.3604 61.8115 -36.3604q37.2686 0 55.4492 26.3613q18.1797 26.3613 20.9062 81.8096q-18.1797 -25.4521 -44.54 -34.9961
q-26.3613 -9.54492 -52.7227 -9.54492q-24.543 0 -48.1768 8.18164q-23.6338 8.18066 -41.3594 24.0879q-17.7246 15.9072 -28.6328 39.9961t-10.9082 55.9033q0 32.7236 12.2715 57.7217q12.2715 24.9971 33.6328 42.7227t50.4492 26.8154t61.8115 9.08984
q33.6328 0 64.085 -9.54492q30.4512 -9.54395 53.1758 -31.3604q22.7256 -21.8154 35.9053 -58.1758q13.1807 -36.3594 13.1807 -89.9902q0 -101.808 -44.0859 -158.62q-44.0869 -56.8125 -132.259 -56.8125zM445.346 367.16q24.543 0 39.541 14.0898
q14.998 14.0889 14.998 40.4502q0 26.3604 -14.998 39.541t-35.9053 13.1807q-22.7246 0 -39.0869 -13.6348t-16.3623 -41.8145q0 -21.8154 12.7266 -36.8145q12.7256 -14.998 39.0869 -14.998zM451 717q80 0 148.5 -28.5t118 -78t77.5 -117t28 -144.5t-28 -144
t-77.5 -116.5t-118 -77.5t-148.5 -28t-148 28t-118 77.5t-78.5 116.5t-28.5 144t28.5 144.5t78.5 117t118 78t148 28.5zM451 647q-65 0 -119 -24t-93 -64.5t-60.5 -95t-21.5 -114.5t21.5 -114t60.5 -94.5t93 -64t119 -23.5q66 0 119.5 23.5t92 64t59.5 94.5t21 114
t-21 114.5t-59.5 95t-92 64.5t-119.5 24z" />
    <glyph glyph-name="uni24EA" unicode="&#x24ea;" horiz-adv-x="900" 
d="M449.799 552.596q75.4473 0 118.625 -50.4492q43.1768 -50.4492 43.1768 -150.439q0 -101.808 -43.1768 -152.257q-43.1777 -50.4492 -118.625 -50.4492q-76.3555 0 -119.078 50.4492t-42.7227 152.257q0 99.9902 42.2686 150.439q42.2676 50.4492 119.532 50.4492z
M449.799 472.604q-33.6328 0 -46.3584 -29.9961q-12.7256 -29.9971 -12.7256 -89.9912t12.7256 -91.8086t46.3584 -31.8145q31.8154 0 45.4502 31.8145t13.6348 91.8086t-13.6348 89.9912q-13.6348 29.9961 -45.4502 29.9961zM451 717q80 0 148.5 -28.5t118 -78t77.5 -117
t28 -144.5t-28 -144t-77.5 -116.5t-118 -77.5t-148.5 -28t-148 28t-118 77.5t-78.5 116.5t-28.5 144t28.5 144.5t78.5 117t118 78t148 28.5zM451 647q-65 0 -119 -24t-93 -64.5t-60.5 -95t-21.5 -114.5t21.5 -114t60.5 -94.5t93 -64t119 -23.5q66 0 119.5 23.5t92 64
t59.5 94.5t21 114t-21 114.5t-59.5 95t-92 64.5t-119.5 24z" />
    <glyph glyph-name="uni24FF" unicode="&#x24ff;" horiz-adv-x="900" 
d="M451 -17q-80 0 -148 28t-118 77.5t-78.5 116.5t-28.5 144t28.5 144.5t78.5 117t118 78t148 28.5t148.5 -28.5t118 -78t77.5 -117t28 -144.5t-28 -144t-77.5 -116.5t-118 -77.5t-148.5 -28zM450 149q76 0 119 50.5t43 152.5q0 100 -43.5 150.5t-118.5 50.5
q-76 0 -118.5 -50.5t-42.5 -150.5q0 -102 43 -152.5t118 -50.5zM450 229q-33 0 -46 32t-13 92t13 90t46 30q32 0 45.5 -30t13.5 -90t-13.5 -92t-45.5 -32z" />
    <glyph glyph-name="filledbox" unicode="&#x25a0;" 
d="M489 454v-379h-379v379h379z" />
    <glyph glyph-name="uni25A1" unicode="&#x25a1;" 
d="M489 454v-379h-379v379h379zM216 181h167v167h-167v-167z" />
    <glyph glyph-name="uni25B3" unicode="&#x25b3;" horiz-adv-x="900" 
d="M452 709l348 -709h-700zM606 112l-155 327l-158 -327h313z" />
    <glyph glyph-name="uni25B4" unicode="&#x25b4;" 
d="M489 75h-379l189 379z" />
    <glyph glyph-name="uni25B8" unicode="&#x25b8;" 
d="M110 75v379l379 -190z" />
    <glyph glyph-name="uni25BD" unicode="&#x25bd;" horiz-adv-x="900" 
d="M452 -8.95703l348 708.957h-700zM606 588.007l-155 -326.98l-158 326.98h313z" />
    <glyph glyph-name="uni25BE" unicode="&#x25be;" 
d="M110 454h379l-190 -379z" />
    <glyph glyph-name="uni25C2" unicode="&#x25c2;" 
d="M489 454v-379l-379 189z" />
    <glyph glyph-name="uni25C6" unicode="&#x25c6;" 
d="M560 266l-260 -278l-260 278l260 273z" />
    <glyph glyph-name="uni25C7" unicode="&#x25c7;" 
d="M560 266l-260 -278l-260 278l260 273zM181 267l119 -132l120 132l-120 125z" />
    <glyph glyph-name="lozenge" unicode="&#x25ca;" 
d="M578 361l-195 -361h-167l-195 359l195 341h167zM167 360l134 -265l132 265l-134 247z" />
    <glyph glyph-name="circle" unicode="&#x25cb;" 
d="M301 27q-50 0 -94 19t-77 52t-52 77t-19 94t19 94t52 76.5t77 51.5t94 19t94 -19t76.5 -51.5t51.5 -76.5t19 -94t-19 -94t-51.5 -77t-76.5 -52t-94 -19zM301 140q24 0 45.5 9.5t37.5 26.5t25.5 40.5t9.5 52.5q0 28 -9.5 51.5t-25.5 40.5t-37.5 26.5t-45.5 9.5t-46 -9.5
t-38 -26.5t-25.5 -40.5t-9.5 -51.5q0 -29 9.5 -52.5t25.5 -40.5t38 -26.5t46 -9.5z" />
    <glyph glyph-name="uni25CF" unicode="&#x25cf;" 
d="M301 27q-50 0 -94 19t-77 52t-52 77t-19 94t19 94t52 76.5t77 51.5t94 19t94 -19t76.5 -51.5t51.5 -76.5t19 -94t-19 -94t-51.5 -77t-76.5 -52t-94 -19z" />
    <glyph glyph-name="uni2605" unicode="&#x2605;" horiz-adv-x="900" 
d="M690 -10l-242 177l-242 -177l80 280l-201 195l266 -29l94 277l96 -278l273 29l-203 -197z" />
    <glyph glyph-name="uni2610" unicode="&#x2610;" horiz-adv-x="900" 
d="M100 700h700v-700h-700v700zM680 119v462h-461v-462h461z" />
    <glyph glyph-name="uni2611" unicode="&#x2611;" horiz-adv-x="900" 
d="M100 700h700v-700h-700v700zM680 119v462h-461v-462h461zM628.781 532.917l-172.928 -358.301h-90.3936l-83.1885 175.548h89.084l39.9561 -92.3594l132.316 275.112h85.1533z" />
    <glyph glyph-name="uni2612" unicode="&#x2612;" horiz-adv-x="900" 
d="M100 700h700v-700h-700v700zM680 119v462h-461v-462h461zM509.618 341.196l84.4932 -168.985h-104.373l-45.4414 93.0127l-86.623 -121.413h-104.373l146.265 211.586l-82.3623 167.565h101.532l48.2822 -95.8525l85.9121 120.703h105.084z" />
    <glyph glyph-name="uni2620" unicode="&#x2620;" 
d="M300 129q-19 0 -37 2.5t-35 7.5l-33 65q-17 10 -23.5 17t-9.5 21v42q-21 24 -26 51t-5 51q0 33 13 61t35.5 48.5t53.5 32t67 11.5t67 -11.5t53.5 -32t35.5 -48.5t13 -61q0 -24 -5 -51t-26 -51v-42q-3 -14 -9.5 -21t-23.5 -17l-33 -65q-17 -5 -35 -7.5t-37 -2.5zM81 259
q-17 -11 -27.5 -15t-21.5 -4q-10 0 -18.5 6.5t-8.5 20.5q0 11 7.5 22t28.5 13l3 7q-5 5 -9 12.5t-4 16.5q0 12 8 20.5t24 8.5q21 0 30 -16t11 -42l34 -20v-58zM462 289l34 20q2 26 11 42t30 16q16 0 24 -8.5t8 -20.5q0 -9 -4 -16.5t-9 -12.5l3 -7q21 -2 28.5 -13t7.5 -22
q0 -14 -8.5 -20.5t-18.5 -6.5q-11 0 -21.5 4t-27.5 15l-57 -28v58zM219 285q17 0 28.5 10t11.5 27t-11.5 28t-28.5 11q-16 0 -27.5 -11t-11.5 -28t11.5 -27t27.5 -10zM381 285q16 0 27.5 10t11.5 27t-11.5 28t-27.5 11q-17 0 -28.5 -11t-11.5 -28t11.5 -27t28.5 -10z
M265 206q10 0 18 3.5t17 3.5t17 -3.5t18 -3.5v29q-5 15 -14.5 30t-20.5 15t-20.5 -15t-14.5 -30v-29zM90 32q-16 0 -24 8.5t-8 20.5q0 9 4 16.5t9 12.5l-3 7q-21 2 -28.5 13t-7.5 22q0 14 8.5 20.5t18.5 6.5q11 0 21.5 -4t27.5 -15l71 38l25 -47l-73 -41q-2 -26 -11 -42
t-30 -16zM510 32q-21 0 -30 16t-11 42l-73 41l25 47l71 -38q17 11 27.5 15t21.5 4q10 0 18.5 -6.5t8.5 -20.5q0 -11 -7.5 -22t-28.5 -13l-3 -7q5 -5 9 -12.5t4 -16.5q0 -12 -8 -20.5t-24 -8.5z" />
    <glyph glyph-name="smileface" unicode="&#x263a;" 
d="M301 -16q-59 0 -110 21.5t-88.5 59t-59 88.5t-21.5 110t21.5 110t59 88.5t88.5 59t110 21.5t110 -21.5t88.5 -59t59 -88.5t21.5 -110t-21.5 -110t-59 -88.5t-88.5 -59t-110 -21.5zM301 60q39 0 73.5 14t60.5 40t41 64t15 85t-15 84.5t-41 64t-60.5 40.5t-73.5 14
q-40 0 -75 -14t-61 -40.5t-41 -64t-15 -84.5t15 -85t41 -64t61 -40t75 -14zM218 295q-23 0 -37.5 14.5t-14.5 36.5q0 20 14.5 34.5t37.5 14.5t37.5 -14.5t14.5 -34.5q0 -22 -14.5 -36.5t-37.5 -14.5zM378 295q-23 0 -37.5 14.5t-14.5 36.5q0 20 14.5 34.5t37.5 14.5
t37.5 -14.5t14.5 -34.5q0 -22 -14.5 -36.5t-37.5 -14.5zM300 100q-33 0 -60 12t-47 31.5t-32.5 45t-15.5 52.5h60q10 -35 32.5 -58t62.5 -23t62.5 23t32.5 58h60q-3 -27 -15.5 -52.5t-32.5 -45t-47 -31.5t-60 -12z" />
    <glyph glyph-name="invsmileface" unicode="&#x263b;" 
d="M301 -16q-59 0 -110 21.5t-88.5 59t-59 88.5t-21.5 110t21.5 110t59 88.5t88.5 59t110 21.5t110 -21.5t88.5 -59t59 -88.5t21.5 -110t-21.5 -110t-59 -88.5t-88.5 -59t-110 -21.5zM211 295q23 0 37.5 14.5t14.5 36.5q0 20 -14.5 34.5t-37.5 14.5t-37.5 -14.5t-14.5 -34.5
q0 -22 14.5 -36.5t37.5 -14.5zM386 295q23 0 37.5 14.5t14.5 36.5q0 20 -14.5 34.5t-37.5 14.5t-37.5 -14.5t-14.5 -34.5q0 -22 14.5 -36.5t37.5 -14.5zM300 80q33 0 60 12t47 31.5t32.5 45t15.5 52.5h-60q-10 -36 -32.5 -58.5t-62.5 -22.5t-62.5 22.5t-32.5 58.5h-60
q3 -27 15.5 -52.5t32.5 -45t47 -31.5t60 -12z" />
    <glyph glyph-name="sun" unicode="&#x263c;" 
d="M336 425q28 -5 54 -21l86 88l53 -53l-88 -87q16 -22 22 -51h118v-72h-116q-6 -29 -22 -51l86 -85l-53 -52l-82 84q-25 -17 -58 -23v-111h-72v111q-33 6 -57 22l-82 -83l-52 52l84 84q-8 11 -13.5 24.5t-7.5 27.5h-116v72h117q6 31 22 52l-86 86l52 53l86 -87q23 15 53 20
v114h72v-114zM300 350q-36 0 -60 -24t-24 -63q0 -40 24 -63.5t60 -23.5t60 23.5t24 63.5q0 39 -24 63t-60 24z" />
    <glyph glyph-name="female" unicode="&#x2640;" 
d="M340 163h95v-73h-95v-90h-76v90h-94v73h94v57q-29 6 -53.5 20.5t-42 35.5t-27.5 47.5t-10 56.5q0 34 13 64.5t36 52.5t53.5 35t66.5 13q35 0 66 -13t53.5 -35t35.5 -52.5t13 -64.5q0 -30 -9.5 -56t-26.5 -46.5t-40.5 -35t-51.5 -20.5v-59zM220 380q0 -35 22 -58.5
t57 -23.5t57.5 23.5t22.5 58.5q0 36 -22.5 59t-57.5 23t-57 -23t-22 -59z" />
    <glyph glyph-name="male" unicode="&#x2642;" 
d="M561 279l-69 -10l-19 150l-128 -155q16 -20 25 -45.5t9 -54.5q0 -36 -13.5 -66t-36.5 -51.5t-54 -34t-66 -12.5t-65.5 12.5t-53 35t-35.5 52t-13 64.5q0 34 13 64t36 52.5t53.5 35t66.5 12.5q42 0 76 -17l131 155l-161 -11v67l269 9zM210 82q35 0 57.5 23t22.5 59
q0 35 -22.5 58.5t-57.5 23.5t-57 -23.5t-22 -58.5q0 -36 22 -59t57 -23z" />
    <glyph glyph-name="spade" unicode="&#x2660;" 
d="M100 45q43 0 77 5t57 21t35.5 47t12.5 82q-21 -35 -48.5 -49.5t-65.5 -14.5q-45 0 -71.5 26t-26.5 72q0 35 16 68.5t46 69.5t72.5 77t95.5 90q53 -49 95.5 -90t72.5 -77t46 -69.5t16 -68.5q0 -46 -26.5 -72t-71.5 -26q-38 0 -65.5 14.5t-48.5 49.5q0 -51 12.5 -82
t35.5 -47t57 -21t77 -5l20 -45h-440z" />
    <glyph glyph-name="club" unicode="&#x2663;" 
d="M100 45q43 0 77 5t57 21t35.5 47t12.5 82q-21 -35 -47 -50.5t-61 -15.5q-49 0 -81.5 31.5t-32.5 82.5q0 49 30 78.5t77 29.5q23 0 35 -3t32 -11q-20 17 -37 39.5t-17 59.5q0 48 33 77t87 29t87 -29t33 -77q0 -37 -17 -59.5t-37 -39.5q20 8 32 11t35 3q47 0 77 -29.5
t30 -78.5q0 -51 -32.5 -82.5t-81.5 -31.5q-36 0 -62 15.5t-46 50.5q0 -51 12.5 -82t35.5 -47t57 -21t77 -5l20 -45h-440z" />
    <glyph glyph-name="heart" unicode="&#x2665;" 
d="M434 539q55 0 90.5 -33t35.5 -91q0 -44 -18 -83.5t-52 -81t-82 -86.5t-108 -100q-60 55 -108 100t-82 86t-52 81t-18 84q0 58 35.5 91t90.5 33q52 0 81.5 -25t52.5 -67q23 42 52.5 67t81.5 25z" />
    <glyph glyph-name="diamond" unicode="&#x2666;" 
d="M520 266l-220 -278l-220 278l220 273z" />
    <glyph glyph-name="musicalnote" unicode="&#x266a;" 
d="M409 507q51 -27 72 -61t21 -76q0 -25 -8.5 -48t-17.5 -41l-40 17q3 16 3 35q0 36 -12 61.5t-41 42.5l-20 13v-334q0 -33 -12.5 -57.5t-32.5 -40.5t-45.5 -24t-51.5 -8q-50 0 -79.5 20.5t-29.5 57.5q0 20 9 36t24.5 27.5t36 18t42.5 6.5q19 0 37.5 -3.5t30.5 -9.5v392h71z
" />
    <glyph glyph-name="musicalnotedbl" unicode="&#x266b;" 
d="M566 167q0 -29 -10.5 -53.5t-29.5 -42.5t-45 -28t-57 -10q-51 0 -79 19t-28 55q0 19 9 35.5t25 28.5t37.5 18.5t46.5 6.5q20 0 35 -3.5t26 -8.5v258l-213 -53v-269q0 -62 -37.5 -98t-106.5 -36q-48 0 -77.5 20t-29.5 58q0 19 9 35.5t25 27.5t36.5 17.5t44.5 6.5
q17 0 35.5 -3t29.5 -9v352l354 93v-417z" />
    <glyph glyph-name="uni2713" unicode="&#x2713;" 
d="M563 580l-264 -547h-138l-127 268h136l61 -141l202 420h130z" />
    <glyph glyph-name="uni2717" unicode="&#x2717;" 
d="M391 289l119 -238h-147l-64 131l-122 -171h-147l206 298l-116 236h143l68 -135l121 170h148z" />
    <glyph glyph-name="uni2776" unicode="&#x2776;" horiz-adv-x="900" 
d="M451 -17q-80 0 -148 28t-118 77.5t-78.5 116.5t-28.5 144t28.5 144.5t78.5 117t118 78t148 28.5t148.5 -28.5t118 -78t77.5 -117t28 -144.5t-28 -144t-77.5 -116.5t-118 -77.5t-148.5 -28zM592 159v81h-77v301h-80q-6 -17 -13.5 -30t-21 -22t-33.5 -13.5t-50 -4.5v-76
q29 0 52.5 4t45.5 21v-180h-96v-81h273z" />
    <glyph glyph-name="uni2777" unicode="&#x2777;" horiz-adv-x="900" 
d="M451 -17q-80 0 -148 28t-118 77.5t-78.5 116.5t-28.5 144t28.5 144.5t78.5 117t118 78t148 28.5t148.5 -28.5t118 -78t77.5 -117t28 -144.5t-28 -144t-77.5 -116.5t-118 -77.5t-148.5 -28zM603 159v81h-171q85 46 125.5 91t40.5 105q0 51 -39 84t-107 33q-39 0 -68 -11
t-48.5 -30t-29 -45.5t-9.5 -56.5h103q1 64 47 64q21 0 32 -11t11 -30q0 -21 -10 -40t-33 -41.5t-59.5 -50t-90.5 -64.5v-78h306z" />
    <glyph glyph-name="uni2778" unicode="&#x2778;" horiz-adv-x="900" 
d="M451 -17q-80 0 -148 28t-118 77.5t-78.5 116.5t-28.5 144t28.5 144.5t78.5 117t118 78t148 28.5t148.5 -28.5t118 -78t77.5 -117t28 -144.5t-28 -144t-77.5 -116.5t-118 -77.5t-148.5 -28zM451 149q75 0 118.5 33t43.5 90q0 42 -26 64t-61 27q33 8 53.5 29t20.5 55
q0 45 -37 75t-109 30q-63 0 -105 -30t-54 -78l95 -15q8 24 23.5 34t37.5 10q19 0 32.5 -9t13.5 -29q0 -24 -17.5 -32t-37.5 -8h-34v-73h41q26 0 42 -11.5t16 -34.5t-15.5 -34.5t-40.5 -11.5q-55 0 -69 52l-94 -22q13 -54 56 -82.5t107 -28.5z" />
    <glyph glyph-name="uni2779" unicode="&#x2779;" horiz-adv-x="900" 
d="M451 -17q-80 0 -148 28t-118 77.5t-78.5 116.5t-28.5 144t28.5 144.5t78.5 117t118 78t148 28.5t148.5 -28.5t118 -78t77.5 -117t28 -144.5t-28 -144t-77.5 -116.5t-118 -77.5t-148.5 -28zM558 159v63h50v80h-50v239h-130l-159 -236v-83h191v-63h98zM460 443v-141h-95z
" />
    <glyph glyph-name="uni277A" unicode="&#x277a;" horiz-adv-x="900" 
d="M451 -17q-80 0 -148 28t-118 77.5t-78.5 116.5t-28.5 144t28.5 144.5t78.5 117t118 78t148 28.5t148.5 -28.5t118 -78t77.5 -117t28 -144.5t-28 -144t-77.5 -116.5t-118 -77.5t-148.5 -28zM443 149q84 0 126.5 41t42.5 104q0 30 -10.5 53.5t-28.5 40t-41.5 25.5t-48.5 9
q-23 0 -43.5 -6t-39.5 -23l10 70h168l11 78h-259l-31 -214l87 -13q10 11 25 19t36 8q29 0 45 -14t16 -40q0 -24 -15.5 -42t-47.5 -18q-24 0 -42.5 11t-27.5 35l-90 -29q14 -38 53 -66.5t105 -28.5z" />
    <glyph glyph-name="uni277B" unicode="&#x277b;" horiz-adv-x="900" 
d="M451 -17q-80 0 -148 28t-118 77.5t-78.5 116.5t-28.5 144t28.5 144.5t78.5 117t118 78t148 28.5t148.5 -28.5t118 -78t77.5 -117t28 -144.5t-28 -144t-77.5 -116.5t-118 -77.5t-148.5 -28zM449 149q33 0 61.5 9t50 27t33.5 44t12 60q0 31 -11 54.5t-29 39.5t-41.5 24
t-48.5 8t-52.5 -9.5t-45.5 -36.5q6 57 25.5 82t52.5 25q19 0 33.5 -9t20.5 -25l86 29q-19 39 -54 60.5t-86 21.5q-39 0 -71 -14.5t-55 -42t-35.5 -67t-12.5 -90.5q0 -54 13.5 -90.5t36.5 -58.5t53 -31.5t64 -9.5zM448 228q-20 0 -36 14.5t-16 40.5t15.5 40t38.5 14
q26 0 39 -15t13 -38q0 -28 -16 -42t-38 -14z" />
    <glyph glyph-name="uni277C" unicode="&#x277c;" horiz-adv-x="900" 
d="M451 -17q-80 0 -148 28t-118 77.5t-78.5 116.5t-28.5 144t28.5 144.5t78.5 117t118 78t148 28.5t148.5 -28.5t118 -78t77.5 -117t28 -144.5t-28 -144t-77.5 -116.5t-118 -77.5t-148.5 -28zM476 159q6 52 16 92.5t26 75.5t38 66.5t52 66.5v81h-306v-125h86v43h123
q-26 -25 -48.5 -52t-41.5 -61.5t-33 -80t-21 -106.5h109z" />
    <glyph glyph-name="uni277D" unicode="&#x277d;" horiz-adv-x="900" 
d="M451 -17q-80 0 -148 28t-118 77.5t-78.5 116.5t-28.5 144t28.5 144.5t78.5 117t118 78t148 28.5t148.5 -28.5t118 -78t77.5 -117t28 -144.5t-28 -144t-77.5 -116.5t-118 -77.5t-148.5 -28zM448 149q49 0 82.5 11.5t53.5 29t28.5 39t8.5 42.5q0 35 -16.5 57.5t-63.5 40.5
q30 14 44 37.5t14 45.5q0 18 -9 36.5t-27.5 32.5t-47 23t-67.5 9q-38 0 -66 -9t-46 -24t-27 -34t-9 -40q0 -24 10 -46t41 -42q-73 -28 -73 -96q0 -19 9 -39t29.5 -36.5t52.5 -27t79 -10.5zM450 400q-28 8 -39 17.5t-11 26.5t13.5 26.5t36.5 9.5t36.5 -9.5t13.5 -27.5
q0 -11 -7 -23.5t-24 -24.5zM449 228q-31 0 -48.5 12t-17.5 33q0 17 9 31t25 25l30 -8q38 -11 53.5 -21t15.5 -30q0 -15 -14.5 -28.5t-52.5 -13.5z" />
    <glyph glyph-name="uni277E" unicode="&#x277e;" horiz-adv-x="900" 
d="M451 -17q-80 0 -148 28t-118 77.5t-78.5 116.5t-28.5 144t28.5 144.5t78.5 117t118 78t148 28.5t148.5 -28.5t118 -78t77.5 -117t28 -144.5t-28 -144t-77.5 -116.5t-118 -77.5t-148.5 -28zM438 148q88 0 131.5 57t43.5 159q0 53 -13.5 89.5t-36 58.5t-52.5 31.5t-64 9.5
q-33 0 -62 -9t-50 -26.5t-33.5 -43t-12.5 -58.5q0 -32 11 -55.5t29 -40t41 -24.5t48 -8q27 0 53.5 9.5t43.5 35.5q-2 -56 -20.5 -82t-55.5 -26q-45 0 -61 36l-85 -34q18 -35 54.5 -57t90.5 -22zM446 367q-26 0 -39 15t-13 38q0 27 16 40.5t39 13.5q22 0 37 -13t15 -39
t-15 -40.5t-40 -14.5z" />
    <glyph glyph-name="fi" unicode="&#xfb01;" horiz-adv-x="602" 
d="M283 714q43 0 82 -8t62 -16v-107q-29 12 -58 17t-57 5q-43 0 -62 -10.5t-19 -40.5v-32h308v-522h-146v418h-162v-418h-146v418h-72v104h72v52q0 31 11 56.5t35 44t61.5 29t90.5 10.5z" />
    <glyph glyph-name="fl" unicode="&#xfb02;" horiz-adv-x="621" 
d="M269 714q35 0 65 -5.5t54 -12.5l144 7v-539q0 -17 1 -28t5.5 -17.5t13.5 -9t25 -2.5h8q4 0 12 1v-107q-29 -8 -74 -8q-66 0 -101.5 36t-35.5 114v450q-16 5 -38 8.5t-47 3.5q-36 0 -53 -10.5t-17 -40.5v-32h89v-104h-89v-418h-146v418h-72v104h72v52q0 31 11 56.5
t33.5 44t57 29t82.5 10.5z" />
    <glyph glyph-name="u1F310" unicode="&#x1f310;" horiz-adv-x="900" 
d="M450 713q76 0 143 -28.5t116.5 -78t78.5 -116t29 -141.5q0 -76 -29 -142t-78.5 -115.5t-116.5 -78t-143 -28.5t-143 28.5t-116.5 78t-78.5 115.5t-29 142q0 75 29 141.5t78.5 116t116.5 78t143 28.5zM365 645q-78 -24 -133 -84q14 -9 27.5 -16.5t27.5 -13.5q30 63 78 114
zM669 561q-56 60 -133 84q48 -51 78 -114q14 6 27.5 13.5t27.5 16.5zM416 618q-20 -23 -37.5 -50t-30.5 -58q16 -3 33 -5.5t35 -3.5v117zM485 501q18 1 34.5 3.5t33.5 5.5q-28 63 -68 108v-117zM247 379q2 24 6.5 47.5t11.5 46.5q-18 8 -36 17t-35 20q-34 -59 -41 -131h94z
M748 379q-7 72 -41 131q-17 -11 -35 -20t-36 -17q7 -23 11.5 -46.5t6.5 -47.5h94zM416 441q-46 3 -88 12q-5 -18 -8 -36.5t-5 -37.5h101v62zM485 379h100q-2 19 -5 37.5t-8 36.5q-43 -9 -87 -12v-62zM153 319q8 -74 42 -131q36 22 70 36q-7 23 -11.5 46.5t-6.5 48.5h-94z
M315 319q2 -19 5 -38t8 -37q42 9 88 12v63h-101zM485 256q45 -3 87 -12q5 18 8 37t5 38h-100v-63zM654 319q-2 -25 -6.5 -48.5t-11.5 -46.5q34 -14 70 -36q34 57 42 131h-94zM416 197q-18 -1 -35 -3.5t-33 -5.5q13 -31 30.5 -58t37.5 -50v117zM485 80q40 45 68 108
q-17 3 -33.5 5.5t-34.5 3.5v-117zM232 137q56 -60 133 -84q-24 25 -43.5 53.5t-34.5 60.5q-27 -11 -55 -30zM536 54q39 11 72.5 32.5t60.5 50.5q-14 9 -27.5 16.5t-27.5 13.5q-15 -32 -34.5 -60.5t-43.5 -52.5z" />
    <glyph glyph-name="plus.dnom" horiz-adv-x="384" 
d="M242 238h97v-85h-97v-97h-98v97h-98v85h98v97h98v-97z" />
    <glyph glyph-name="zero.dnom" horiz-adv-x="400" 
d="M200 433q83 0 130.5 -55.5t47.5 -165.5q0 -112 -47.5 -167.5t-130.5 -55.5q-84 0 -131 55.5t-47 167.5q0 110 46.5 165.5t131.5 55.5zM200 345q-37 0 -51 -33t-14 -99t14 -101t51 -35q35 0 50 35t15 101t-15 99t-50 33z" />
    <glyph glyph-name="one.dnom" horiz-adv-x="400" 
d="M64 89h106v180h-108v74h10q33 0 54.5 5.5t35 16t20.5 24.5t9 31h89v-331h84v-89h-300v89z" />
    <glyph glyph-name="two.dnom" horiz-adv-x="400" 
d="M201 433q37 0 67 -10t51 -27t32 -40.5t11 -51.5q0 -66 -44.5 -115.5t-137.5 -99.5h187v-89h-336v86q59 40 99.5 70t65.5 55t36 46t11 44q0 21 -11.5 33t-34.5 12q-52 0 -52 -70h-113q0 33 10 61.5t31 50t53 33.5t75 12z" />
    <glyph glyph-name="three.dnom" horiz-adv-x="400" 
d="M203 432q79 0 120.5 -33t41.5 -82q0 -38 -22.5 -61t-60.5 -32q40 -6 68 -30.5t28 -69.5q0 -63 -48 -99t-129 -36q-71 0 -118.5 31t-61.5 91l104 24q14 -58 75 -58q28 0 45 13t17 39q0 25 -17.5 37.5t-46.5 12.5h-45v80h37q22 0 41.5 9t19.5 36q0 22 -15 31.5t-36 9.5
q-23 0 -41 -11t-26 -37l-104 16q13 53 59 86t115 33z" />
    <glyph glyph-name="four.dnom" horiz-adv-x="400" 
d="M331 157h55v-88h-55v-69h-108v69h-210v91l175 260h143v-263zM119 157h103v152z" />
    <glyph glyph-name="five.dnom" horiz-adv-x="400" 
d="M342 334h-184l-12 -76q21 17 44 24t48 7q27 0 53 -9.5t45.5 -28t31.5 -44.5t12 -59q0 -69 -47 -114t-139 -45q-73 0 -116 31t-58 74l99 31q10 -26 30.5 -38t46.5 -12q35 0 52.5 19.5t17.5 45.5q0 29 -17.5 44.5t-49.5 15.5q-24 0 -40.5 -8.5t-26.5 -21.5l-97 14l34 236
h286z" />
    <glyph glyph-name="six.dnom" horiz-adv-x="400" 
d="M212 433q56 0 95 -23t59 -67l-94 -32q-7 17 -23 27t-37 10q-36 0 -57.5 -27t-27.5 -90q20 29 50.5 39.5t57.5 10.5q28 0 53.5 -9t45.5 -26.5t32 -43t12 -59.5q0 -37 -13.5 -66t-37 -48.5t-55 -29.5t-68.5 -10t-70 10.5t-58 34.5t-40 64t-15 100q0 112 52.5 173.5
t138.5 61.5zM206 195q-26 0 -43 -15t-17 -44t17 -45t40 -16q24 0 41.5 16t17.5 46q0 26 -14 42t-42 16z" />
    <glyph glyph-name="seven.dnom" horiz-adv-x="400" 
d="M368 331q-33 -38 -57 -73.5t-41.5 -73.5t-28.5 -82.5t-18 -101.5h-120q8 67 23.5 116.5t36 88t46 68.5t53.5 57h-135v-48h-95v138h336v-89z" />
    <glyph glyph-name="eight.dnom" horiz-adv-x="400" 
d="M198 -11q-51 0 -86.5 11.5t-58 29.5t-32.5 40t-10 43q0 36 20.5 63.5t60.5 42.5q-35 22 -46 46t-11 50q0 22 10 43.5t30 38t50.5 26.5t72.5 10q43 0 74 -10t51.5 -25.5t30.5 -35.5t10 -40q0 -24 -15.5 -50t-48.5 -41q26 -10 43 -20.5t27 -23.5t14 -29t4 -35
q0 -23 -9 -46.5t-31 -43t-58.5 -32t-91.5 -12.5zM221 259q19 14 26.5 27.5t7.5 26.5q0 19 -14.5 29.5t-40.5 10.5q-25 0 -40 -10.5t-15 -29.5q0 -18 12 -29t42 -19zM199 76q41 0 57.5 14.5t16.5 31.5q0 23 -17.5 34t-59.5 22l-33 9q-17 -13 -27 -28t-10 -34q0 -23 19.5 -36
t53.5 -13z" />
    <glyph glyph-name="nine.dnom" horiz-adv-x="400" 
d="M184 -12q-58 0 -98.5 24.5t-59.5 62.5l92 37q20 -40 68 -40q41 0 61 29t23 90q-20 -28 -49 -38.5t-58 -10.5q-27 0 -53 9t-45.5 26.5t-31.5 44t-12 61.5q0 36 13.5 63.5t37 47t55.5 29.5t68 10q37 0 70.5 -10.5t58.5 -34.5t39.5 -64t14.5 -99q0 -112 -48.5 -174.5
t-145.5 -62.5zM194 229q27 0 43.5 15.5t16.5 44.5t-16.5 43.5t-39.5 14.5q-25 0 -43 -15t-18 -46q0 -24 14 -40.5t43 -16.5z" />
    <glyph glyph-name="equal.dnom" horiz-adv-x="384" 
d="M339 224h-293v86h293v-86zM339 81h-293v86h293v-86z" />
    <glyph glyph-name="minus.dnom" horiz-adv-x="384" 
d="M339 153h-293v85h293v-85z" />
    <glyph glyph-name="gravecomb.case" horiz-adv-x="1" 
d="M-34 753h-114l-169 149h184z" />
    <glyph glyph-name="acutecomb.case" horiz-adv-x="1" 
d="M-194 753h-115l99 149h184z" />
    <glyph glyph-name="uni0302.case" horiz-adv-x="1" 
d="M-30 753h-133l-79 66l-79 -66h-133l138 147h148z" />
    <glyph glyph-name="uni030A.case" horiz-adv-x="1" 
d="M-166 995q27 0 52 -9t43.5 -26t29.5 -41t11 -53t-11 -53t-29.5 -41t-43.5 -26t-52 -9t-52 9t-43.5 26t-29.5 41t-11 53t11 53t29.5 41t43.5 26t52 9zM-166 916q-19 0 -32.5 -13t-13.5 -37t13.5 -37t32.5 -13t32.5 13t13.5 37t-13.5 37t-32.5 13z" />
    <glyph glyph-name="uni030C.case" horiz-adv-x="1" 
d="M-168 763h-148l-138 147h133l79 -65l79 65h133z" />
    <glyph glyph-name="circle.comp" horiz-adv-x="900" 
d="M451 717q80 0 148.5 -28.5t118 -78t77.5 -117t28 -144.5t-28 -144t-77.5 -116.5t-118 -77.5t-148.5 -28t-148 28t-118 77.5t-78.5 116.5t-28.5 144t28.5 144.5t78.5 117t118 78t148 28.5zM451 647q-65 0 -119 -24t-93 -64.5t-60.5 -95t-21.5 -114.5t21.5 -114t60.5 -94.5
t93 -64t119 -23.5q66 0 119.5 23.5t92 64t59.5 94.5t21 114t-21 114.5t-59.5 95t-92 64.5t-119.5 24z" />
    </font>
</defs>
</svg>
