<svg width="100%" height="100%" viewBox="0 0 68 75" version="1.1" xmlns="http://www.w3.org/2000/svg" xmlns:xlink="http://www.w3.org/1999/xlink" xml:space="preserve" style="fill-rule:evenodd;clip-rule:evenodd;stroke-linejoin:round;stroke-miterlimit:1.41421;"><path d="M63.394,50.712l1.989,0.697c0.683,0.238 1.222,0.774 1.465,1.455c0.243,0.682 0.165,1.437 -0.213,2.054c-2.337,3.784 -5.346,7.087 -8.861,9.756c0.309,0.341 0.669,0.779 1.039,1.272c0.579,0.769 1.24,1.85 1.823,2.866c0.401,0.661 0.456,1.475 0.15,2.185c-0.306,0.71 -1.071,1.201 -1.693,1.389c-1.942,0.586 -4.754,0.892 -7.731,1.161c-13.42,1.214 -36.393,1.117 -43.561,-6.057c-6.768,-6.774 -7.693,-21.234 -7.762,-29.78c-0.687,-14.619 7.649,-28.797 21.9,-34.846c6.882,-2.922 14.478,-3.619 21.737,-2.042c0.709,0.157 1.308,0.627 1.63,1.277c0.322,0.65 0.333,1.411 0.03,2.07l-0.88,1.91c1.412,0.406 2.795,0.912 4.136,1.513c1.693,0.76 3.316,1.671 4.847,2.719c1.416,0.97 2.753,2.056 3.992,3.244c1.351,1.296 2.586,2.713 3.684,4.228c0.976,1.346 1.845,2.77 2.594,4.255c1.295,2.566 2.232,5.311 2.773,8.134c0.635,3.309 0.729,6.722 0.283,10.062c-0.215,1.605 -0.555,3.192 -1.017,4.743c-0.453,1.524 -1.024,3.012 -1.706,4.448c-0.206,0.434 -0.422,0.863 -0.648,1.287Zm-28.388,-24.116c1.184,1.217 2.175,2.622 2.922,4.147c0.669,1.367 1.142,2.828 1.401,4.327c0.277,1.609 0.308,3.259 0.091,4.877c-0.1,0.75 -0.253,1.491 -0.458,2.219c5.305,1.855 11.937,4.174 17.531,6.131c0.341,-0.574 0.658,-1.162 0.95,-1.762c0.555,-1.141 1.018,-2.327 1.384,-3.542c0.336,-1.117 0.59,-2.259 0.759,-3.414c0.178,-1.212 0.262,-2.438 0.254,-3.663c-0.009,-1.422 -0.142,-2.843 -0.401,-4.241c-0.412,-2.219 -1.14,-4.378 -2.157,-6.393c-1.227,-2.43 -2.87,-4.646 -4.835,-6.53c-0.954,-0.916 -1.984,-1.753 -3.076,-2.5c-1.136,-0.778 -2.34,-1.459 -3.594,-2.031c-1.406,-0.641 -2.875,-1.145 -4.379,-1.502l-6.392,13.877Zm-11.524,3.532c4.239,0 7.68,3.442 7.68,7.68c0,4.239 -3.441,7.68 -7.68,7.68c-4.238,0 -7.68,-3.441 -7.68,-7.68c0,-4.238 3.442,-7.68 7.68,-7.68Z"/></svg>