<svg viewBox="0 0 68 75" xmlns="http://www.w3.org/2000/svg" fill-rule="evenodd" clip-rule="evenodd" stroke-linejoin="round" stroke-miterlimit="1.414"><path d="M63.394 50.712l1.989.697a2.393 2.393 0 0 1 1.252 3.509 36.007 36.007 0 0 1-8.861 9.756c.309.341.669.779 1.039 1.272.579.769 1.24 1.85 1.823 2.866.401.661.456 1.475.15 2.185-.306.71-1.071 1.201-1.693 1.389-1.942.586-4.754.892-7.731 1.161-13.42 1.214-36.393 1.117-43.561-6.057C1.033 60.716.108 46.256.039 37.71c-.687-14.619 7.649-28.797 21.9-34.846A36.041 36.041 0 0 1 43.676.822a2.398 2.398 0 0 1 1.66 3.347l-.88 1.91c1.412.406 2.795.912 4.136 1.513a31.22 31.22 0 0 1 8.839 5.963 31.39 31.39 0 0 1 6.278 8.483 31.052 31.052 0 0 1 2.773 8.134c.635 3.309.729 6.722.283 10.062a31.07 31.07 0 0 1-3.371 10.478zM35.006 26.596a16.146 16.146 0 0 1 2.922 4.147 16.09 16.09 0 0 1 1.034 11.423l17.531 6.131a23.787 23.787 0 0 0 3.093-8.718c.178-1.212.262-2.438.254-3.663a23.887 23.887 0 0 0-2.558-10.634 24.143 24.143 0 0 0-11.505-11.061 23.835 23.835 0 0 0-4.379-1.502l-6.392 13.877zm-11.524 3.532a7.684 7.684 0 0 1 7.68 7.68 7.683 7.683 0 0 1-7.68 7.68 7.684 7.684 0 0 1-7.68-7.68 7.685 7.685 0 0 1 7.68-7.68z"/></svg>